<mxfile host="Electron" modified="2024-04-04T10:06:35.375Z" agent="Mozilla/5.0 (Macintosh; Intel Mac OS X 10_15_7) AppleWebKit/537.36 (KHTML, like Gecko) draw.io/24.0.4 Chrome/120.0.6099.109 Electron/28.1.0 Safari/537.36" etag="9Ly0perQC8TMnqh3T0yy" version="24.0.4" type="device">
  <diagram name="Page-1" id="zaz9tsWS0dgxStnun2Rv">
    <mxGraphModel dx="1034" dy="539" grid="1" gridSize="10" guides="1" tooltips="1" connect="1" arrows="1" fold="1" page="1" pageScale="1" pageWidth="827" pageHeight="1169" math="0" shadow="0">
      <root>
        <mxCell id="0" />
        <mxCell id="1" parent="0" />
        <mxCell id="bwCUnxS7NbJIKGIXhCUE-4" value="" style="shape=image;verticalLabelPosition=bottom;labelBackgroundColor=default;verticalAlign=top;aspect=fixed;imageAspect=0;image=data:image/png,iVBORw0KGgoAAAANSUhEUgAABLAAAAJYCAIAAAD9hIhNAAAABGdBTUEAALGPC/xhBQAAACBjSFJNAAB6JgAAgIQAAPoAAACA6AAAdTAAAOpgAAA6mAAAF3CculE8AAAABmJLR0QA/wD/AP+gvaeTAAAAB3RJTUUH6AQEBBo3Q7j10AAAUqhJREFUeNrt3Xd8VMXex/Gzu+mdFEISSiihd5AiTZEmiKBYEVGxF+wooqhYrr1gxa4oCAqKioBIL9J7TeglJCGF9E3bPc8f+HjVS8lmZ3fO2fm8X/vHc+9znf3Nmd14vjtzZiy6rmsAAAAAAPVYZRcAAAAAAJCDQAgAAAAAiiIQAgAAAICiCIQAAAAAoCgCIQAAAAAoikAIAAAAAIoiEAIAAACAogiEAAAAAKAoAiEAAAAAKIpACAAAAACKIhACAAAAgKIIhAAAAACgKAIhAAAAACiKQAgAAAAAiiIQAgAAAICiCIQAAAAAoCgCIQAAAAAoikAIAAAAAIoiEAIAAACAogiEAAAAAKAoAiEAAAAAKIpACAAAAACKIhACAAAAgKIIhAAAAACgKAIhAAAAACiKQAgAAAAAiiIQAgAAAICiCIQAAAAAoCgCIQAAAAAoikAIAAAAAIoiEAIAAACAogiEAAAAAKAoAiEAAAAAKIpACAAAAACKIhACAAAAgKIIhAAAAACgKAIhAAAAACiKQAgAAAAAiiIQAgAAAICiCIQAAAAAoCgCIQAAAAAoikAIAAAAAIoiEAIAAACAogiEAAAAAKAoAiEAAAAAKIpACAAAAACKIhACAAAAgKIIhAAAAACgKAIhAAAAACiKQAgAAAAAiiIQAgAAAICiCIQAAAAAoCgCIQAAAAAoikAIAAAAAIoiEAIAAACAogiEAAAAAKAoAiEAAAAAKIpACAAAAACKIhACAAAAgKIIhAAAAACgKAIhAAAAACiKQAgAAAAAiiIQAgAAAICiCIQAAAAAoCgCIQAAAAAoikAIAAAAAIoiEAIAAACAogiEAAAAAKAoAiEAAAAAKIpACAAAAACKIhACAAAAgKIIhAAAAACgKAIhAAAAACiKQAgAAAAAiiIQAgAAAICiCIQAAAAAoCgCIQAAAAAoikAIAAAAAIoiEAIAAACAogiEAAAAAKAoAiEAAAAAKIpACAAAAACKIhACAAAAgKIIhAAAAACgKAIhAAAAACiKQAgAAAAAiiIQAgAAAICiCIQAAAAAoCgCIQAAAAAoikAIAAAAAIoiEAIAAACAogiEAAAAAKAoAiEAAAAAKIpACAAAAACKIhACAAAAgKIIhAAAAACgKAIhAAAAACiKQAgAAAAAiiIQAgAAAICiCIQAAAAAoCgCIQAAAAAoikAIAAAAAIoiEAIAAACAogiEAAAAAKAoAiEAAAAAKIpACAAAAACKIhACAAAAgKIIhAAAAACgKAIhAAAAACiKQAgAAAAAiiIQAgAAAICiCIQAAAAAoCgCIQAAAAAoikAIAAAAAIoiEAIAAACAogiEAAAAAKAoAiEAAAAAKIpACAAAAACKIhACAAAAgKIIhAAAAACgKAIhAAAAACiKQAgAAAAAiiIQAgAAAICiCIQAAAAAoCgCIQAAAAAoikAIAAAAAIoiEAIAAACAogiEAAAAAKAoAiEAAAAAKIpACAAAAACKIhACAAAAgKIIhAAAAACgKD/ZBfg4XdP2Z2tp2dqRPO1gjnb4lJZfqhVXaPYKraxKdnGAF4UHalHBWkSwFuqvhQZqydFawxitUYzWJFarFSK7OAAAAFVZdF2XXYMPOnJKW3lAW39E23BUyyuVXQ1gbA1jtO7JWrdkrVsDLTJYdjUAAAAqIRCKVFimzd+jzdmubTmucVkBV1ktWrdkbVgbbWBzLdhfdjUAAAAKIBCKsSdL+3i1vnCvVuWUXQpgfuGB2mWttTHdLPVryS4FAADApxEI3bXhqPbRan3lAaYEAcFsVm1oK+2unpZGMbJLAQAA8FEEwppLL9D+s1D/PVV2HYBPs1q0K9tp4/pa2HsGAABAOAJhTVQ5tWkbtbeW6aUVsksB1BAZpN3X2zLqAs1mkV0KAACADyEQuuxgrvbAbD31pOw6APV0rKe9OdySGCm7DgAAAF9BIHTNnO36s/OZGASkCQ/U/jPUMrAFE4UAAAACEAirq8qpPf2rPmsrlwuQzKJpt19oebivxUoqBAAAcA+BsFrsldr9s/Tl+7lWgFH0b2558wpLoJ/sOgAAAMyMQHh+BWXanTOcm47JrgPAP3VLtnx4jSUsUHYdAAAApkUgPI+CMm3kV840tpABDKltojb1RmtogOw6AAAAzIlAeC5lVdot3zg3HuMSAcbVLdny2UhrgE12HQAAACZEIDwrh67dP8u5cA/XBzC6y1pZ3rjSyh4zAAAArrLKLsC4/vMbaRAwh7m79LeWOmVXAQAAYD4EwjNbmqZ/vZ40CJjGR6v0xal8ZwEAAFxDIDyDjEJt3E9Obi0BE9E17fGfnScKZNcBAABgKjxD+G9OXbv2C+eW41wWwHy6NLBMu4lnCQEAAKqLQ53/bcYm55ZjPIwEmNL6w/rsrdpV7Vn7AAAAUC3cNv1Dvl1jawrA1F5e6My3yy4CAADAJAiE//DaIuepUtlFAHBDvl17awk/6wAAAFQLgfC/DuTo32/hPhIwvRmbnEfyeAwYAADg/AiE//XJap2tRQEf4NC1j1bzZQYAADg/dhn9U2ahfvE7VZUO2XUAEMHPqi2+3y8pkg1HAQAAzoVdRv/02RpnRZXsIgAIUunQPl/jnDjIJrsQAAAAQ2PJqKZpWpVD+3EbTw8CPmXONn7lAQAAOA8CoaZp2rJ9bC4K+Jp8u7Z8Pz/0AAAAnAuBUNM07acdPEgJ+KAft/HVBgAAOBcCoVZaoS1JYxoB8EFL9zlLymUXAQAAYGBsKqNtOOIsq2AaAfBBFZXahqPOi1L45QsAAODMuE/S1h0mDQI+a+0hvuAAAABnxQyhtvYwx9EDPuuPg05N4/AJAACAM1N9htBeqe04QR4EfNbuTJ3HCAEAAM5G9UB4MEd3sKEM4LucunYwlx99AAAAzkz1JaOHcnVN42YR8GUHc/Q2iRbZVQAAABiR8oEwRycPAr7tYI6T1RAAAABnpPpN0tE84iDg4w6zZBQAAOAsVA+EBWXcKQI+rrBMdgUAAABGpXogLKmQXQEADytml1EAAICzUP0ZwpIKnYcIAd9WVM5WwgAAAGemeiAsLScPAj6uhCWjAAAAZ6H6klEOIQR8XhVfcwAAgLNQfYbQdOpEWFJqWxrGWMKDLGGBsqtxQ3G5VlyuH8zR953UMwt9eZY2LFBrUcfaKNZSK8QSEaRZTHseXnmVVlKuHc/X92c7D2TrTl8eNAAAAFUQCM2hQz3rsLa2i5paG0SbNk+c3eFcfcV+549bHVuP+85UTt0oy/D2tv7Nra0SrDafm4nPt+trDjp/2eFcnOqoqJJdDQAAAGrKoutK/85/yeTygznGvQIWi3ZpK9vdvWytE30uUpzJrgzn+8sdC3Y7TP2pbJtkvbePrV9zm9UHw/u/5ZXoX6xxfLm2ysg7edaJsKwZZ+b5dAAAAI8hEJYZNhC2qGN9fqh/p/pKRMG/23TU+dQvlXszzTdbGB1qeWKg/4j2NvOuC62Z7GL9Pwsq52xzyC7kzOpEWNaMC5JdBQAAgBGpHgj7vm3EQGixaDd383tioH+Aqkt6q5zaG4sqp6ysMtHHs1tD6+RrAuLDFcuCf/Pbbse4HyoLyww3ZgkRljWPEQgBAADOQLnZJ+OzWbX/DPN/Zoi6aVDTND+r9vgA/zdGBPjZZJdSPSM62L65JVDlNKhp2sCWth/uDEyIVPoiAAAAmAuB0Fj8rNr71wVc31nhLPg3V7a3vXdtgPF3ZBnT3e/1KwP8DF+nFzSJs8y+PTAxikwIAABgDtzDGsuLwwIGtTTJpJhXDGppe/Fyf9lVnMvwdraJg/1Ve2jwHBKjLF/fFBgVzBUBAAAwAQKhpmm6QV43dLFd24k0+G/Xdfa7vrNN+uic8dUs3vLy8ADS4L80jrO8dbW/xSJ/gP72AgAAwBkoHwil36b+/6thjGXipQGyL4dBPTMkoGG0RfoY/evlb9XevTYgyNDzl9Jc3NQ26gI/6WNEGAQAADg35QOhYUy6jGhxVkH+2qShhkvLt/Xwb1qbb9BZjRvgHxvG5CkAAIChqX47K33q4vSrR2Nb7xQWi55L7xRb90Y26SP11ys8yHLvRez9cy4RQZZ7L/KXPlLMEQIAAJyD6oHQIO7uQ7Q4v/uMFMBGd/MLC2T66zyu6+wXE8pVAgAAMC4CofSpC71uLa1HI6YHz+/CRrb60Zr08dI03WLRr+NokGoI9teGtTPIhkAAAAA4AwKhfFe092ObyuqwWLRhbQ0RwzrVt9WrxZhVy/B2hhgyAAAAnJHygVD6vIWu9W7C9GB19Wxikz5emq71YciqrU2SNTrEADvEAgAA4EyUD4SyBfhp7euSLqqrYz2bvwGu1gXJfHGqy2rROtXncgEAABgUN2qSJcdYA1hSV20Bflr9aPkf2hROm3BFEy4XAACAUZFFJK8m41E0VzWIsezPlllAaICF4/Vc0iDaKvdbxopRAACAsyEQSn7AKCJY9gUwm4ggTe6QhQfJvgRmI33IAAAAcDYEQsl3qsH+zDW5JiTAwpCZi/QhI40CAACcDc/2SGYlXLhI+hWTXoDpcKoKAACAYREIAQAAAEBRBEIAAAAAUBTPEEo/tZrHm1zFkJmO9CEDAGjTf/j9RGaO++08cvd1FiM9DPDr73/s2XfE/XZuv/HyyPBQ2b0BJFA9EOq6pku9U5X77mbEkJkRQwYA0v28YNXmHWnut/PI3dfJ7so/LFm1+ZeFq91v5/or+hEIoSaWjAIAAACAogiEAAAAAKAoAiEAAAAAKIpACAAAAACKUn1TGfY/NCd2GTUduRfNQLvhAQAAGIrygVB6HiRcuIohMx2GDAAAwKhYMgoAAAAAilJ9hlD61AVqgNkm02HIAAAAjIkZQgAAAABQlOozhAaYI2T2wlUMmRkxZAAAAEakfCCUHi5QA4QL02HIAAAADIklowAAAACgKOVnCAEAPq2istJeVnHe/1locJCfn012sQAAeBuBEAC86oEnJ89fslZ2Ffi3LyZP6NGljewqAADwNtUDoa7putQHjHi4yVW6pskeMgbNNQb4ljFkAAAAZ8YzhAAAAACgKNVnCOXvMsrUhasYMjNiyAAAAAyJGUIAAAAAUBSBEAAAAAAURSAEAAAAAEUp/wyhpsl+wIjHm1wl/SFC1ADfMgAAACNSPRDquqZzr2g2coeMD4zLZH/LGDIAAICzYckoAAAAACiKQAgAAAAAiiIQAgAAAICiVH+G0AA7lPB4k6sYMjNiyAAAAIyIGUIAAAAAUBQzhLInD5i6cJX0CULUAN8yAAAAQ1I9EEoPF9ypuoohMyOGDAAAwJhYMgoAAAAAilJ9htAAE06oASacTIchAwAAMCJmCAEAAABAUcrPEEqfIGTqwlUMmRlx0QAAAAyJGUIAAAAAUBSBEAAAAAAURSAEAAAAAEWp/gyhruk6T6SZjOQhk/2BMR/p3zKjDVnTxvUKikpkV3EGaQeO5uQVCGmqTYvG4WEhsjvkmqjIMNklAAAggeqBEAC87N4xV8ou4cwenPjOvEVrhDQ18eGb2rdOkd0hAABwfsoHQulbVqIGmNM1HYYMAADAkHiGEAAAAAAURSAEAAAAAEUpv2SUNaOmxAJE02HIAAAAjIgZQgAAAABQlPIzhLqmS508kPvuZqTLHjJmm1zGkAEAABgVM4QAAAAAoCgCIQAAAAAoSvklo/I3lWE1m6sYMjNiyAAAAIyIGUIAAAAAUBSBEAAAAAAUpfySUenLD1EDLD80HYYMAADAkFQPhNLzIHeqrmLIzIghAwAAMCaWjAIAAACAolSfIdQ0Tfb8AbMXrpI+R4gaYMgAAACMiEAIAABMr6y8IiMr51RBcWFhSX5hcUlpWUmpXdM0XdfLyiuCgwI1TbNZrWGhweHhoZHhoZERYXExkXExtaxWi+zaARNwOBx5p4ryC4sLi0ryC4srKisrK6vs9vLT/9/AQP/AwAA/my0iPDQqIiwiPDS6VkRggL/sqlEtygdC6bNNTJy4iiEzI4YM8K6qKsehoxknMnNy8vIzT+blnirMzSvQNK2opNTp1EvtZSHBQZqmRYaHapo28OIug/t1l12yC5xO/cjxjNT9x/YdOr7/4PEjxzMzTuaeyi+qQVN+frb4uOikOrGNGiQ2bVyvSXLdFs2ST18WQFkOp/NY+sl9B4/tP3R8/6H09MycE5nZ2Tn5DqfTpXbiYqIS4mMS68Qm10to1rhek4Z1GzVI9PdXPn0YD0MCAIDpORyOXamH12/ZvSv18L6Dxw4eOVFV5ajmPxsfV8v4gbCisnLTttT1W/Zs27V/2679RcWlQpqtqnKkZ2SnZ2Sv37Ln9H9jsVgaNUjs0Dqlc/vmPbu2rR1bS3bXAW8otZet37xny859W3fu2777wOkJdjdl5+Zn5+Zv333gr/8mwN+/VbPk9q1T2rdJ6daxVa2ocNn9hqYRCAEAqKaZcxb/sWGnm4106djyhhH9RZWUk1fw25J1y9du3bBlr5AbOKM5mXNq4bL1y/7YumHLHntZuRfeUdf1A4fTDxxOnzV3mcViadakfp/u7Qf3694ipYHsiwGId+joid+Xb1y1bvum7amVlVWefruKysotO/dt2blPm6FZrZZWzRr16ta2X6/OrVs0kn0llKZ6INQ1XWc9mdnIHTI+MK6T/C1jyCDKrtRD85esdbORkJAg9yuxl5X/umjN3IV/rNu0y9VFXKZQUFj882+r5y1es2VHmtMp7Sus6/refUf27jvy0dSfGjVIHDqgx1VDL4qPi5Z9eQB3HT9x8peFq+ctXpu6/6isGpxOfceeAzv2HPjgix/rJdW+tG+3ywf2bNq4nuxroyLVAyEAACaSeTJv2uyFM39anF9QLLsWj9i4de/MnxYvWLKuvKJSdi3/cPDIicmffP/e5z/079N51FUDu3RoIbsiwGVVVY7FKzd999Pi1Rt2SPyp5X8dSz/58dc/f/z1zx1ap1wzrO/gft1PbwQF7yAQAgBgAtm5+e99Nvv7X5ZW/+FAE3E4nQuXrf/0m7k79hxwvzUP1ulwLFiybsGSdR3bNrt3zBW9uraTXRFQLSWl9plzlnz13fyMrFzZtZzL6QWlr7w3bdSIgaOuHhAdFSG7IiUoHwilb1mJGmDLSnOR/i1jyCCIxSLnfAJ7Wfmn0+Z+Nm1uqb1M9jUQz+nUf130xzufzDpyPFN2LS7YvD311gdf7tim6YQHR7dt2Vh2OcBZFZfYP5/+61ffzRe1FZMX5BcUv/f57M+mz712WN+7b76CvWc8TflACACAgW3YumfCix+bKyxV34o1W1/74FuJTzG5afOOtKtvmzhsUM9x946Mi4mSXQ7wDxWVldNmLZwy9aeaHcoinb2s/MuZ82fNXTZm5JBbr78sOJhFpJ5CIAQAwIjKyiteeXfa9B9+13UfnOZOz8h+8e2pi1ZslF2Iu3RdnzN/5dLVW558cPTwS3vJLgf404q1215488vDx0z/W1Jxif2dT2Z9//PSCQ+MHnhxF9nl+CYCIavZTIchMyOGDHBNembOfePf3JV6SHYh4jmd+uffzn3309neOUbCOwoKix977oMFS9a+/NTdUZFhssuB0rJz8ie98cXCZetlFyJSRlbu2Alv9e7W7rnxtyXGx8oux9dYZRcgmW6AF1wifbwYMldJHy+GDKazduOuK2+Z4JNp8Fj6yRvumfTqe9N9KQ3+ZcmqzcNvemLLzn2yC4G65i1eO2TUOB9Lg39ZsXbb0FGP/zhvhexCfI3qgVDTZN+ocq/qKsbLjBg1oNrmL1l768Mvm/SZn3Obt2jN5aPHb9qWKrsQDzqRlXPD3ZO+/2Wp7EKgnFJ72bhJ7z/41GRfPZPmtKLi0sef//D+J98uLrHLrsV3EAgBADCKOfNXPPz0e5WVVbILEczhcLz+wbcPTnynpNT37+GqqhxP/ufjF976ylDnvMG3HTp64prbnv5pwSrZhXjJgiXrrrxlQtqBY7IL8REEQgAAqsXTx07Mnrvs8eenOBy+dsxgQWHxTWNf/Pjrn2UX4lVTv1sw4T8fOZxO2YXA9y1asXH4zRPSDqqVjg4fy7z69om/L98guxBfQCBkKZsZMWqmw5DBF3h0t88lqzY/9fKnvreh6PETJ6+789n1W/bILkSCH35d/sgz71VV+VrCh6F8NXP+fU+8abf74EO552W3l9/3xFvvfjpLdiGmxy6jAABUi+dmCLfu3PfgU5N9b24w7eCxm8e+mJNXILsQaeYtWhPg7/fKxLs9Pb0MBem6/uLbU6d+t0B2IZIvwrufzS4usY+/fxTfshpjhhAAAJly8grGTni7rLxCdiGC7dl35MZ7n1c5DZ42Z/7K5974UnYV8DVOp/7US58ongb/8sWMeU+/+hlP7daY8jOE0leT8dF1FUNmRgwZcBZVVY6xE97Kys6TXYhge/cdGX3v8wVFJbILMYRpsxc2rJ8w+ppBsguBj3A69cef/0CdLWSqY+acxU6n84XxtzNPWAOqB0Lp4QI1QLgwHYYMOJvJn3zve8cwHEs/eevDL5MG/+6lyV83bJDQq2s72YXAF7z0ztekwf/1/c9LgwIDJj58s+xCzIclo9L3uuBm1VXSx4shc5X08WLIIIbw35237Nz36Te/yO6WYDl5Bbc88J/snHzZhRiLw+l89Nn3T2TlyC4EpvfmlJlfzZwvuwqD+vr73z6a+pPsKsyHQAgAgAT2svLHn/vAx44lqKisvG/8m0fTs2QXYkSn8ovGPetrIw4v++6nJVO+miO7CkN7c8rMeYvXyq7CZFRfMgoAgBQffjnn8LFM2VUINvHlTzfvSPP++wb4+yfWiUlKiEtKiEuMjw0PCwnw9wsNDbbZrDar1eF0FhaWVFU5CotLMk/mpWdkH8/ITs/ILq+o9HKdG7bu+eTrn++6abj3LxF8wNqNu559/XPZVWjBwYEhQYEhIUERYaHBwYEB/v5Op7O4pLS4xF5qL7eXlRcVl0osT9f1J16YUj8pvnXzhrIvlWkoHwhZTWZGPJFmOgwZ8E+Hj2V+Pv1X2VUINm3Wwh/nrfDa29VLqt2pbbN2rVI6tW2a0riezeraoieHw5F64NiW7Wlbdu5bt3m31/b1eefTWX17dWraqJ7XLhR8Q3pG9tgn3/b+sZbBwYEdWjdt0jCpcXJSw/oJjZOT4mKizv2PFBWXHjqaceBw+sEjJw4cTt+yIy33VKE3a7aXld/z+Os/ffVyrahwL18uk1I+EAIA4HUvvPVVRaWY6anAAP+UxvWaJCfFx0XXjq2VEB8TGx0ZFRFms9lCQ4NsNltYaHBFRWVFZZXu1E//cl9YXJJ7qjC/oOhUftGpgqLmTRq4X8aefUdefvcbL1y65PoJgy/pNviS7k0bu5WpbDZby6bJLZsm33DVAKdT37ozbd7itQuWrDuZc8qj9VdVOSa+9Mm3H02yWtkLEdVVWVn1wFOTCwqLvfN2FouleZP6Pbu27dm1bad2zQL8/V36x8PDQtq2bNy2ZePT/9Hp1HenHV61btvKtdu37EzzTqbNPJn32PMffPz6Y2w6Wh0EQgAAvGrd5t0r1mx1p4W6ibX7dG/frlWTlk2TGycn2my2c//vg4MCg4MCNU2LigzzRI/s9vIHn3rHoyswbVbrwL5dx1w/5K+7TIGsVkvHts06tm32xAM3Lli89pNvftmddthzfdmyc9+MOYtGXtnfc28BH/Pq+9O37z7ghTeKjooYcVmf64b3q5dUW1SbVquldfOGrZs3vOum4fkFxbPmLp3x42IvPGm8/I+tn02fe9sNQz39Rj5A9UCoa7oudT0Za9lcpWua7CFj0FzGkMFXCPilWdf1t6bMrNk/2751yoCLLrjowg5NGtaVfSn+4c2PZh46esJDjfv7+103/JJbrhtcN1HYHerZ2KzWIf0vHNL/wpXrtr32/rd79x3x0BtN/uT7oQN6hIeFeLpH8AGr1+/wwgH0bVo0vunaQYP6dnV1PtAlUZFht90wdMz1l61av/3r7xcs/2OrRzv11kff9e7enhXa56V6IAQAwJvWbNyZkZXr0j8SHBR42YALbxgxoGXTZNnln8Gmbalff++pu9UeXdo8/cjNDesnerlTvbq2u7Bz66nfLZj8yaxSe5nw9k/lF035as64e0d6uV8wnaLi0gn/+UjXPfjLZr2k2o/cff2lfbt6bXWl1Wrp3a1d727t1m/Z8/I7X+/ce8hDb1RZWTX+hSnff/LceZdRKI5jJwAA8B6X0mBggP9dNw1f+csHLz5xhzHTYGVl1ZMvfex0ir9bjakVMfnFB76YPMH7afA0m812y/VD5n/7esc2TT3R/tTvFnhtJxuY18vvfOPqT0jVFxEWMn7sqPnfvj74km5SnrXr0qHFrM9efGXi3bVja3noLXbuOfiZz+3gJZzygVD6cdmsZXOV9PFiyFzFeAE1cnGPjvO/ff3hu66NMPDCwi9nzj94RPxi0TYtGs/6/MVL+3aT3T8tIT5m2odP33Hj5cJbLq+o/OSbX2T3D4a2eUfarLnLPNR4u1ZN5nz10piRQzy6RvS8rFbLFYN7z//2dc9939///If0zByJfTQ+5QMhAAAGUysq/NO3xn/0+jgvPDXnjuyc/A+//FF4s2NGDvnuk0lJdWJl9+9PNpvt0Xuuf+bRMcKnUGbOWZydky+7fzAoh9P53OtfeGKxqM1qvXfMlTM+etY4f2HCw0LefuH+px66yRPp1F5W/uq702R30dAIhNInL5i/cJX08WLIaoAhA6qrQ+uUOV++1LtbO9mFnN87n80qLrELbNBisTz54OjxY0cZ8IGfG0b0n/TYrWIzYXlF5TezF8ruGQzq+5+XemK324iwkC8mT3jg9quN9i2zWCyjrxk04+NJ5z3nsAbmL1m7Yese2V00LgIhAADV4oVnbK667KJpHz6TEB8ju6/nd/hY5qxflgls0Gq1PP/4bTdde6nsnp3VdcMvefqRW8S2OeuXpd4/ahzGZ7eXv/vZLOHNxsVEffPB0906t5Ldv7Nq3bzh9CnPJHpggcAbH8yQ3TnjIhAyc2EyjJcZMWpAdVw5pM8LT9zh52esn+3P5p1Pvnc4RCaZ58fffs2wvrK7dR43jOh/y3WDBTaYnZu/aMVG2d2C4Xw5c57w5cRJCXHTpzzTPKWB7M6dR4O6db6d8qzw3aQ270hbunqz7M4ZlPKBkBtVM2LUTIchA87n8oE9X5xwh9UqYaO/Gjh8NGPe4jUCG7xz9LCrh14su1vV8th9Iy9o30Jgg9/+uEh2n2AsRcWln06bK7bNxPjYGR8926BuHdmdq5aE+JjpU54RXu07n4ifdPUNygdCAABk69Su2SsT77JZTfMv5c++/VXgURMDL+7y0J3Xyu5TddlstrdfuD+mVoSoBtdu2nX4WKbsbsFApv/we1FxqcAGw0KDP37jsfi4aNk9c0FMrYiPXh8ndo/lXamHVq3bLrtnRmSaf/d4EpMX5sJ4mRGjBpxVZETYG5PuM9oGD+eQnZs/Z94KUa0l16vz6sR7zDI1elpcTNQTD9woqjVd12fMYZIQfyorr/hq5nyBDdpstrefv79p43qye+ayRg0SJ7/4oNi/jZz1ckYEQgAAZPrPhDsS441yxEJ1zPxpcXlFpZCmbFbrK0/fExwcKLtPLrt8YM8LL2gjqrV5i9Z44nQBmNGc+Stz8goENvjE/aN6d28vu1s11KNLmycfFPbji6Zpazbu3LPviOxuGQ6BEACAavHEJqOD+3Xv3+cC2T1zgcPp/P7npaJau23U0A6tU2T3qYaeHTfG399PSFOZJ/N2pR6W3SEYwjShJ5H07t7+xqsHyu6TW24YMaBX17YCG5z+w++y+2Q4BEIAAOTw87M9eMc1sqtwzbLVWzKycoU0VT8pfuxtI2R3qOaS69UZfmkvUa0tWblJdocg38ate1P3HxXVWmRE2H8m3OGF83I8ymKxvPDEHeHiHib85bfVYh/R9AGqB0Jdl/zi4SaXyR4yFvW4SjfCFw0wpKsuuyi5njk2/fvL7LnLRDX16D3XB/j7y+6QW+4aPVzUA06LV3L4BLQZcxYLbO3ZR2+pHVtLdp8ESIiPmSDuqd1Se9nc3/+Q3SdjUT0QAgAgRYC//323mmx+rLC4dMWabUKa6tim6cCLu8jukLvqJdW+fGAPIU3t2XckPTNHdocgU6m97PcVG0S11ufC9kP6Xyi7T8KMuOyizu2bi2rtpwWrZHfIWAiEbH5oRoyauUgfL4YMRtS3V0fT/Xj/29J1FZVitpMZd+9Is69kO+3Gq4Q9oMWqUcUtXLbebi8X0pTNah1370jZHRLs0XuuF9XUlh1px9JPyu6QgRAIAQCQ4MrBfWSX4LIFi9cKaad965RO7ZrJ7o0YrVs0atakvpCmVq4TM/sKk/r5t9WimrpicO+mjcx3zsS5dWzTtF/vzkKa0nV97u/CrrYPIBACAOBtsdGRvbqJ3DfPC4pL7Gs37xbS1C3XD5bdG5GuHCIm22/duY/DJ5RVWFy6TtD3KygwYOxtV8nukEeMu/d6UU/tLlrBhPx/EQhlL2TjL7+rGC8zYtTgEwQucRw6oIeJTqI/beW6bZWVVe63kxgfO8BUJ22c17BBPW1WATdU+QXFR45lyu4N5Fi6arOQ75emaSMu65MQHyO7Qx7RsH5i354dhTS1c+/BrOw82R0yCgIhAADe1q1zK9kluGzpqs1C2hkx9CLTheFzi46KaCfoNMWtu/bJ7g3k+H25mO1kLBbLjVcPkt0bDxp11QAh7ei6vnT1Ftm9MQrVA6HszfB1nckLF0kfL4eTIXONrksfNUAMUcv5rFZLp3bCtsvzmjUbdwlpZ6gP7Xz4lz7d2wlpZ+vO/bK7AgkcDseajTuFNNWra9tGDRJld8iDunduLerxyFXrtsvujVGoHggBV9krnLJLMJmScq4YfISoJaPNGtePEHfIsnccOnpCyPKqNi0aJ9dPkN0b8fpc2EFIO1t2pMnuCiTYvuegqKPSR1/jy9ODp113xSVC2lm7cafDyS2KphEIAVcV2Jlwck1BKX9tgX8QeJqW16zdJGa7i8v6d5fdFY9okdIgNjrS/XbSDh4vtZfJ7g28bc0GMdODtWNr9ewqZrLayIYO7OnnJ2DZeWFx6Z60I7J7YwgEQsA1JeXOk4UO2VWYycGTYp6SB3xG8yYNZJfgsq07xTzbdnEPMRtCGI3FYmnbsrH77TgcjgOH02X3Bt62YeseIe0MvLiL1eoLx3ueW2R4aPdOYh7D3rhtr+zeGILygZDND81I9qjtPSHmXGZF7D1RKX3IAEOpl1hbdgku25V6yP1GEuNjfXK96GltWggIhJqmHTqaIbsr8DYh3y9N0y7t2012V7xk4MVdhbSzW9CVNzvlAyHgutVprOepLodTW7ufywX8Q70kkwXCisrKg0dOuN/OhRe0lt0VD2ojYoZQ0zROnlBNekZ2fkGx++3ExUR1aNtUdm+8pH+fC4RsVrw79bDsrhgCgZCZCzOSPGpLdot58lsFmw+X55c6pA+Z7MsAHyFkUxk/P1sdsx0RlnbgeFWVgKXy3X07EDZvJKSdg8wQKkbU9GDfXp2EnIdpCrWiwtu1auJ+OwcOp9vLymX3Rj5VPjeAQBsOlh/KZtVotXy3TsCvnoAvSYyPNd1N2559h4W000HQYX3GVCsqPCoyzP12jhwjEKpll6BJqm4dW8ruild16dDC/UYcTmfq/qOyuyKfyf6dJBzTFmYkfdScujZ1FTnn/ErL9e/XF0sfL8BQIiJCZZfgMiGrqiLDQ5MS4mR3xbPqJ8W738iho5miTryEKezcc0BIOxeICEgm0rldMyHtiArkpqZ6IJSfLfib7yrp46Vrmq59vKSQ0xTO69NlhXlFTumDxbcMhhIcGCi7BJftSTvsfiOtmjcSdZCjYTWoW8f9RkpK7Tm5BbK7Au8REkiS6yfUjq0luyte1bFtMyGrLXanHZLdFfmUD4RAjRTZnW/My5ddhaGdKnG+vYB7GvgUIWkmKNBfdj9cdkjEIsaWTZNl98PjkusJCISapmWczJXdFXhJ7qnCvPxC99u5wISnm7opLDS4aeN67rez/+Bx2V2Rj0AofeaCyQtXSR+vP1/v/16w63iF7KthXM/Mzs0pqpI+THzLYDTBwUGyS3BNeUWlkC0QmzauK7srHlentpjtgvJOCUgIMIWMLDHhv1WzhrK7IkFLEb3m9xeNQAjUWKVDH/PxSXsFYeMM5m8r/WplkewqAMGEfNtDgk22ZDQjK1fII211E0x22EYN1IoKF9KOkCkjmEJGVo6QdlIa+f4PLv+rUYNE9xvJzsl3OATsomxqBEKg5vacqLjni2wnkfCfdqdX3P7pSfZEgO8RsmRUyNlZ3pQp6Odz052+WAPRtSKEtJPLDKEyRM0QNklWMRA2aZjkfiMOp/NkTr7srkhGIATcMntD8WPTcwg/fzmcXXnl25mFdnbcAXxE5sk89xsJDPCPi/H9HS+io8QEQmYI1SFkvWJsdKSo2WlzERWDWTXqJ7sAyXRdk3srT45wla5JHrL/9dGSwuIy/b1bYv2sPr6B3nltP1ox4u2MzAJjLb0w2gcGMJeTOafcbyQ8LOS3Zetkd8XjSkrLhLTDM4TqEDJDKGTlpBklJcQFBviXV7h7NHRmVq7WRnZnpFI9EBpgwwnuVV0lfcjOYNofhXszyr+6K75BrPn2DxRl+h9FD3+TU1JuwLlBw31gABMRcsOak1fwwJOTZXfFNJghVEdGpoBnCEXtZmQ6VqslLrbW8RMn3WxH1MJd82LJKCDGpkPlPScd/3x5oYKPFB7Lq7rh/cw7PztpyDQICOPzx+idUU5evuwSlFNQWCK7BHhJlogZ+NiYSNn9kCYuWkDfhayDMDVmCAFh8kudD0zN/mRJwbjLag3rFGZT4PeWjPyqd34r+HxZQSm7rUIBQjbbNB27vVx2CcopL+dMI1UIWWYcr9iR9H8XGxPlfiMldjGLvc2LQAgItvN4xU1TshJr5V7dNWxwu9DOjQID/HxtViGzwLFsd+nsDcWLdtirFJwSBVRSRjjxuorKKtklwEuEhP84hQNhnIhAyE8wygdC6c+jcS/tKulDVj0n8qomz8+fPD8/JNDaItG/Sbx/7Ui/0EBLSIBZ5w1PlTpKyvQjOZVpmZWHTrr7ALdXmeEDA1NQc8mo+xs2wFUVlVxzJei6LuT7FRURJrsr0gjZXtVeRiAE4Eml5c5Nh8o3HWLNFQBTYobQ+yqZIVRDWXmFkIXoQYEBsrsiTYC/gCzDXznVA6GuabrU6QOmLlwlfchgOnxgAHewmMr7KioIhEooLxczFRwYqO4O54EBAsJwWZnqv9qbdfUaAADwAn479z6WjCpC1JdLSCgyqcAAAWGYv3IEQgAAcFbcKnkfM4SKEDUxFSAiFJlUgIjZUf7Kqb5kVP4OJaxlc5X0IYPp8IGBKEpuKgPvczgcskuANzicYg7vVXlTGT+bzf1GHA7VT1FmhhAAAJxVgL+6kw+AR4naDEZUsDQjIZN7wUHqrrk9TfkZQvnzTUxeuEr6kMF0+MAANafyBoaARwUFBQppp7xC3RWPQs7tCFT+rxwzhAAA4KwIhICHBAnaHbRC0G6lZiRkG+RgQcncvFSfIWSyyYwYMriEDwzgDiF7NgD4X+JmCNUNhBUi+s7PXswQAgBQLWruKcOtEuAhNqvVX8S56kXFpbK7Ik1xid39RlgyqvoMIVOEpsSQAZBBV/KPj5BjvgCcUVBgQGWlu6eMnMzNl90PabJF9D2EJaOyC5CORGhGDBlcwgcGYqg5Q8jTNYDnBAUFuD+/l51zSnY/pMnJK3C/EWYIWTIKAADOqlZkuOwSAJ8VWyvS/UaEzJKZlJC+x0YLGAVTIxACAICzio+Lll0C4LMS68S634jKgVDIDGGd2qr/lWPJKAAA1WJRcs2oqFulhPgYPz+b7N6Yg83K7/WqqFM7xv1GjhzPkt0POQqKSgoKi91vJyFewCiYGoFQ8iYBam5R4A5d56LBNXxgIIqu5IdJ1Azhm5PGdmrXTHZvAGMREkX2Hzwmux9yHDh0XEg7CfEC5mlNjZ+gAADAWYmaIUw9cFR2VwDDEbJktLC4NDsnX3ZXJDhw+ISQduLjasnuimTMEErfZVTF35vdI33IYDp8YICaExUI0w4oOokBnEOCiCWjmqbtO3QsLjZKdm+8bf/hdPcbqRUVzl7KzBACAFAtaj5DGBkRJuRuKU3VVW3AOSTUERMIU5X8wUXIWtk67JtFIAQAAOcm5DGnPWlHHA6H7K4AxhIfFx0Y4O9+O5u3p8ruirc5nfq2Xfvdb6dBvTqyuyIfgRAAAJxL4+Qk9xspKbXv2HNQdlcAY7FZrUK+Xxu27FVt16u0A0cLi0vdb6dVs4ayuyKf8oFQl/1CDUgfNV6mewFwQ0qjukLaWbtpl+yuAIbTtHF99xvJyy88eETMDitmsWmbmEnRls2SZXdFPuUDofwbVe5VXSV9vHiZ8QUIYNFUfIZQ07SUhmIC4ZqNBELg35o3ERAINU1bv2WP7K541SZBq2RbNmWGUPlAyF2qGUkfNV6mewFwh6hf0LfsSCsptcvuDWAsbVo2EtLOyrXbZHfFexxO55qNO91vp07t6JhaEbJ7I5/qgRAAAJxbcr2EyPBQ99spK69YvHKT7N4AxtKmRWM/P5v77axcu624RJUfXDZu3Zt7qtD9dlo3F5PGzY5ACAAAzsVisbRp2VhIU7/+vkZ2bwBjCQoMELJqtLyicvkfW2T3xkt+X75BSDs8QHia8oFQ+lI2VrO5Svp48TLjC4B72rdKEdLOqvXbCwqLZfcGMJZO7ZoLaWfB0nWyu+INuq6LCoRtWzaR3RtDUD4QAgBQPUqeS/+nLh1bCGmnsrLqpwWrZPcGMJbunVsLaWfFmm1FIk5iMLgtO/dlZOW6346/v98FgqK42REImbkwI+mjxstcL0AMxU75+oeObZsGBQYIaeqLGfM4oR74u64dWwh5jNBeVv7Dr8tl98bjZvy4SEg77Vo1CQ4OlN0bQyAQAgBQLSrPEAb4+3do01RIU+kZ2QsFLfcCfENoSLCotYvTZi90On35t6tT+UXzF68V0pSoiVkfoHoglD5z4ctfWc+QPl68zPgC4L6LLmwvqqnPp/8quzeAsVzSq5OQdg4fy/Tt8ydm/7qsvKJSSFMX9+gouzdGoXogBAAA1dFX0A2rpmnbdu0XtScE4Bv697lAVFNffTdfdm88xeFwfCtovWid2tGt2GL0/ykfCJm5MCPpo8bLdC8AbmtQt05Ko7qiWnvl3WkVlWJ+5gd8QHI9Yd+vVeu2r9+yR3aHPGL23OXH0k8Kaapvz04WlR8D+CflA6H8G1XuVV0lfbx4mfEFCMDdw8CLuopq6mh61tTvFsjuEGAggy/pLqqp196frvvcLlhl5RXvfT5bVGuD+gr7a+YDCIQAAKBaLh/YQ2BrH3zxY3pGtuw+AUZx+cCeon512rZr/8JlvrYqe9qshZkn84Q0lRAf06VDS9kdMhACIQAAqJbk+gntWgk7x7m4xP7Is+87nE7Z3YJrnD439fRnv2RvzlkvqXbHtmL28tU07Y0PvxW1+YoRnMov+ujrn0S1NnRAD6tV9RUff0cgBAAA1TX80t4CW9u8PfWDL36U3Se4pqysXHYJHmEvl9+vEZddJKqpw8cy3/popuwOCfPCW1/lFxQLacpisVwxWOTfMR+geiDUdckvHm5ymewh42XGFwBRhg3qGRoSLLDBD774ce2mXbK7BReUlJbJLsFn+zWkX/fI8FBRrX05Y96mbamy+yTAohUbf1m4WlRrXTq0aJycJLtPxqJ6INQ0jb0uTEj6DiW8TPcCIEZYaPCwQT0FNuhwOO4b/2bagWOye+b7rDYxd30nMnNkd+UfbIL6lWGAfgUHBV4pbpLQ6dTHvzDFbpc/8+mOgqKSZ177TGCD11/RT3afDIdACAAAXHDDiAFiN1wtLC697eGXM7JyZffMxwUFBghp58jxLNld+YdAYf3KlN0VTdO0USMG2KzC7s+PHM988qWPzbvjqNOpP/7cB9k5+aIajI+LFnjko88gEAIAUC0cO3FaSqO6fXt2FNtm5sm8Wx96+WTOKdmd82WiAuG2Xftld8WX+1Uvqfall3QT2ODc3/94/4sfZHerht6cMmPJqs0CG7z52kv9/f1kd8twCIQAAMA1d998hfA29x86fs3tTx86ekJ253yWqJm0dZuN9cynqEC4aVtqVZVDdm80TdPuHD1M7M9P7346e96iNbK75bI581d8/PXPAhuMDA+97opLZHfLiAiEAADANW1bNu7RpY3wZk9k5lx357Pbdx+Q3T/fFCwoOO07eDztoIGe+RQVCAuKSlat2y67N5qmac2a1L+kVyeBDeq6Pv6FKWs3GivJn9vq9TueeulTsW3eePUgsXti+QzlA6H0rS7MuqhbHunjxcuMLwCiPXL39Z44yOtUftGoe56bMWex7P75oNiYKFFNzfjRQAMUGx0prF9zFsnuzZ8euvNagU8SappWVl5x+yOviF1+6TlLV2++a9xrFZUiz1GMigy75frBsntmUKoHQtmb4es696oukj5evMz4kv2xBXxQ6+YNL+vfwxMtl5VXPP3Kp/c98VZBoZhjx3BaQnyMqKa+/3lJ5sk82R36/37ViRXV1NLVW3buPSS7Q5qmaSmN6g67tJfYNssrKu974s1ff/9DdufOY8GSdfc98VZ5hcg0qGna7aMuDw8Lkd05g1I9EAIAgJp56K5rRa3W+18Ll62/fPR4s0xomEJCbWGBsLyictLrn8vukPh+6br+9KufOhyGeJLwgduvDg4OFNtmVZXjkWff+3TaL4bdd/Tr73976Ol3KyurxDabGB876qoBsjtnXARCAABQE0l1Yu8dc6Xn2s/Iyr1r3GtjHnxp/6HjsvsqWEVl5eKVmx555r01G3d67U0Txc2kaZq2eOWmqd8t8Frx5+yXsECoadrOPQdfff9b2X3SNE1LiI+5+6bhwpt1OvVX35t+x6Ovnsovkt3FfygqLh074a3n3/zSE4F8/P2jgoMEp2tfQiAEAAA1NOb6ISmN6nr0LVat2z70xvGTXv/iRJb8c8PdVFlZtWLttvEvTLlw8F13P/b6LwtX28sqvPbu9evG22w2gQ2+NPnrXxau9lr9ZxMaEhwfFy2wwS++/VXs5pY1NmbkkOT6CZ5oefkfW4fdNH7D1j2yu/innXsPXXHzhN+WrvdE4907tx7Ut6vsLhoaB3Gw4YQJMWRwCR8YwGP8/f2eH3/7DXdNcjidnnsXh8MxbfbCGXMWX9q365iRl7Vu3lB2v12TnZO/bM2W5X9sXb1+R0mpXVYZQYEBTRvV3bPviKgGHU7nuEnvp2dk33HjME/sMFR9bVo0ysoW+Uzj6x98m5Wd9/jYGwL8/SX2K8Df/7nHbr1p7IueWOGZeTLvxnufHzao1yN3X1c7tpasPhYUFr/98fcz5iz20ErdoMCASePGyOqdWRAI2YLQjBgyuIQPDOBBHds0vfOmYR988aOn38jhcMz9/Y+5v//RpUOLYZf2GnBRl8jwUNm9P6uSUvumbanrt+z5Y8OOXamHDfLIVpuWjQUGQk3TnE79zSkzV6zdNvHhm1ukNJDVr7YtGy9asVFsm19//9u6zbuffuSWLh1ayOqXpmndOrW6YcSAb2b95onGnU79x3krFixdd+eNw8aMHOK5R4LPyOFwfPvjosmfzPLo9lEP3H61h2ZZfQmBEAAAuOW+MSNWrt2+Y4+Xzg9cv2XP+i17nn3t815d2w7pf2Hv7u0NkgwzsnJ3pR7atD11w5Y9u1IPG2Rvkr9r26Lxdz8tEd7sxq17r7j5if59LrjhygFdOrb0/mxh6+aNPNFs2oFjo+55rkeXNqOuGtine3s/P5ELbqtv3D3Xr1iz9Wh6lofat9vL3/74u2k/LLxueL9rh/X1wmxhYXHp7F+WTv9h0ZHjmR59o3atmtzMURPVoHoglD4/aIgfDE1F+pABAP7Fz8/21vNjR9zyZEFRidfetLKyasmqzUtWbbZaLc2bNOjSoUWXji0vaN88MiLMOwVUVTmOpmftP3R8z74jO/ce3LX3UE5egde6XzPdO7f2UMtOp/7b0vW/LV0fFxPVs2vbVs0aNk9p0CKlwTk2+td1vaKyKjBAwJrMTm2bBQUGlJV75IHM1et3rF6/IzI8tEfXtq2bN2zZNLlFSnKtqPBz/CPlFZVC+nVacHDg28/ff+2dzwjfe/PvsnPy3/101odf/jigzwXXX9m/c/vmYg9CPG3n3kMz5iz65bfV9rJyz/XltLDQ4Dcm3eeJXvge1QMhAADVZLHIfErK4Oonxb/x3Ng7HnnF6fT2r3ZOp7477fDutMNfzpxvsVgS68Q2aZjUtFG9lEZ1mzSslxAfE1Mrws23yM7Nz8o+lZWddyIzJyMr99DREweOnDiWftKAc4DnVi+pdrMm9VP3H/XcW2Tn5v84b8WP81ac/o/BwYFhocFhISGhIf/d47GwqLSgqKSgsPiJ+0fdcv0Q9980ODiwR5c2i1du8ly/CopK5i1aM2/RmtP/MSgwICw0+PTrr/9NcYn9dL9GXTXwqYduEvjurVs0euzekS++PdVzHTytqsoxb/HaeYvXRkWG9ezStnf3dj27touNjnSnzeIS+x8bdqxYu23Fmq3ePL7y+cdvq58U77W3MzUCIQAAEKB3t3YP3XntGx/OkFiDruvpGdnpGdnL/9j613/p52eLqRUZFxsVFx0VUyvC5mcLDw2xWi3BQYH+/n/eCFVVOUrtZZqmlZVXFBWXFhaVFBaVFhQVFxaV5J0qqqgUfEa2RP16d/ZoIPwXu73cbi/P1vI9/UaX9O7s0UD4L2XlFWXlFd6cEx59zaDN29PmL1nrnbfLLyg+/ciuxWJp0jAppWHdxslJp1/1kmqHBAed7R8sr6jMyMrdf+j4gcPpBw6n7z+cvnffkaoqb/90cv0V/Yb0v9DLb2peygdCXdfkPudtjKfMzUT6kMF0+MAA3nLn6GHpGdkz5iyWXcg/VFU5srLzxO5CaV4DL+ry/uc/yK5CvL49O/r7+3l0UaVcFovl5Yl3HU3P2pV6yJvvq+v6voPH9x38x1mgFoslIiwkNCQ4JCQoKNC/sspRUlpWVFRSXFpmhGnzzu2bT3z4ZtlVmAnLagEAgDDPjBvTr3dn2VXgrJqnNOjYtpnsKsSLjooYdLGPnzUXHBT44auPxsVGyS5E03W9oKjkRFbO/kPHd+49lLr/6PETJwuKSoyQBhPrxL730kOydgAyKQIhAAAQxma1vvnc2J5d28ouBGc1+ppBskvwiJuuvVR2CR5Xp3b0Z2+Ojzj7Vj2KqxUV/vnbT0RHufvYsGoIhAAAQKSgwIAPX320F5nQqAZedEFifKzsKsRr27Jxh9YpsqvwuOYpDT56/bHgoED3m/IxIcFBn775eKMGibILMR8CIQAA1cIuo9UXGOD/wauPXtKrk+xCcAY2m+2BO66WXYVHPHz3dbJL8IZO7Zq9//LDZMK/Cw4OnPLao21aNJZdiCkpHwj1P/cokfVCDcgdMl7me8n+xMJn6PzVdkVggP97Lz98w4gBsgvBGQy/tFe7Vk1kVyFe144tB/X18ScJT+vZte1nb40PDQl2vykfEBwc+NFr47p1aiW7ELNSPhD+ec653BdcIn28eJnxBQjADKGrbFbrM4/eMu7ekVYrl85YLBbLkw+O9slxefy+G4ICA2RX4Q2d2zf/7O3xkRFhsguRLDIi7IvJE0iD7iAQAgBQLcwQ1szto4Z++c6T7p8OD7Hat06566bhsqsQLykhTp0jBzq2aTr78xeS6yfILkSauom1Z348qWObprILMTcCIQAA1cIMYY1169Rq1ucv8niP0Yy97aquHVvKrkK8qy+/eNignrKr8JL6SfHfTnnWJ48SOa/2rVO+++Q5dpFxH4FQsrIKfm92TWk5VwwAzCepTuzMjyfdN2aEzcb5YEZhs1rfnDQ2sY4P7jg66bFbWzZNll2Fl8TUivjm/YkqnLrxd9df0e+bDybGRkfKLsQXEAglK7TLP8HTXPJLuGIAYEp+frb7b79q5seTmjSsK7sW/CkuNmrqe0/Fx0XLLkSwkOCgLyZPSGmkyifNz8/25IOj337+fhWOKAwJDnpl4t2THrs1wN9fdi0+QvlAKHsDxOO5FbIvgckcz62QPmq8zPcCRGDFqBBtWzb+eerL4+4dGRzMpvmGUD8pfup7T8bFRMkuRLBaUeFfvvOkUusJB/fr/ss3r3bv3Fp2IR7UsU3Tn79++YrBvWUX4lNUD4TStz7cdayMm9Xqc+ra3vQy6aPGy3QvAIbi52e7fdTQBd++MXRAD5/c6NJ0GtZPnPXZC62bN5RdiGBxMVEzP3muV9e2sgvxnoT4mC/fmfDMI7eE+9xUYXBw4GP3jZw25Zn6SfGya/E1qgdC6YrLnHvSy2RXYRo7j9pLyp2yqwAACJAQH/PGpPvmfPlSnwvby64FWkJ8zPQpz/reXiyR4aEfv/n4bTcMVWdTKIvFcsNVAxbMeGPogB6yaxHmkl6d5k1//bYbhtqshBfxuKbyLdpeJLsE0+BaAYCPaZ7S4JM3Hp/5yXP9endWarYwIT7miQdu7G6kw9OCAgNee+be9156yMceKbRZrY/dN/Lr9yc2rK/Q8tG4mKg3Jt034yPTb0DaIqXBZ2+P//DVR5N8cfcjgyAQyjd7bb7sEkzj+zX5sksAAIjXoXXKB688Mm/669cM6+vzzxY2bVTv1afvXjxr8i3XDTZgZwdc1GX+t6+PvmaQj+3Y0aVDi1++eXnsbVeFhgTLrsV7OrZtNuOjZz945REz7rmaXK/Oa8/c++OXL/Xq2k52LT7OT3YBshlgw4nVe4tTT5Q3SzTcvxKMZvfxsvX7SmRXAROS/R0HUE2NGiS+MP728WNH/fzbqplzFu/Zd0R2RSJFhIUMuKjL5QN7du3U0uDLF8NCg5966KbbRw39bNrcmT8tsZeVy65IjAB//7G3jhh99cCp3y2Y+t2CgiJVbir69e7cr3fnFWu3fTz1p/Vb9sgu5/xaNk2+Y/SwQRd3VWrVgETKB0ID0HXtjZ+zPr6rvuxCjO61n7JklwBAaQa/ifcZYaHBI6/sP/LK/mkHjv26aM38xWsOH8uUXVTNBQUGXNSjw9ABPfpc2N5cc27xcdETHhx9zy1Xzv199U8LVm3btV92RWJERoSNve2qMSOH/LZ0/ZwFK9dv3u10KvG7Ye9u7Xp3a7d335EZcxb//Nuq4hK77Ir+LcDff1DfrtcNv6Rz++aya1ELgdAQpi7LGzcsPiWBScKz2pteNn3lKdlVAAC8p2njek0b13vozmt2px1e/seW5Wu2bdu5z+E0wdZiVqulZbOGPS5oc+EFrTu2bRYYYKYc+C9RkWGjrho46qqBh49mLFm1ec2mnRu27C21m34/vNCQ4CuH9LlySJ+MrNwlKzf9sXHn+i17CgqLZdflcc1TGjw7bsxj941cuGz9r4vWrF6/o6pK8gnPVqulY9tmQ/pdOKRf96jIMNlXSEUWXe3FVC0e2J16whALIfq3Df9tYhPZVRhX/+f2L97BjjKoibox/ken+PKhTKL8snB16v6jQpoaOaJ/YrwPPv0/b9Ga35aud7ORLh1b3jCiv+yumFVBUcm6Tbs2bt27aXva7rTDDofkG9m/Cw8LadW8YZvmjdq1atKlQ0sfvq+tqnLs3Hswdf/R1APH9h86fvDIidxThdUciwB//4T4mLqJcc2a1G/WuP6FF7Q2zgY2TqeeeuDo7tRDaQePpx04euhIRnZefmVlVXX+WT8/W3xcdL3E2imN6jZrXL9rp5YN6taR3aFqKSgsXrxy04o1W1ev3+HlNbTBQYFdO7Xs0639Jb0716ltlI+BmgiERgmEmqZ9cHu9uwb44C2U+95bkH3/Z8dlVwGzIhACPsluL9+x9+DefUf27juyd/+RtAPHKyorvfbuQYEBDerVSa5XJ7leQrMm9Vs3b9Sgbryyi4qdTj33VEFOXsGp/MLKSkdpWZnD4QwJDgoK/HNqNCgoMCIsJDI8LDYm0lxXKfdUYW5eQe6pgsoqR0mpXXfq/v5+oSFBp/+/gQEB4eEhkeGhsTFRZj8OweF0bt99YPO21E3bU7fu3JeTV+CJdwkLDe7QOqVD26ad2jYz++S5LyEQGigQBvlblz2X0qWJrx0k6qa1aSUXP7uvvFLpDyrcQSAEVOB06pnZuUePZR1NzzqannUy51RW9qns3Pzs3PwarwMMCw0ODwuJj4uOjY6sUzsmNjoyIT6mTu3oBvXqJNSOMVewAVySeTJv36FjqfuPHjh84viJk8czsrOy81xaXGqxWOJiouom1k6qE9ukYVJKo3opjerWS4xnnxgDUj4Q3r879YSB1sHHhvstf75pi7pBsgsxin0Z5b2eSj1ZUK0FG8AZ1Y3xP/pRG9lVAJBG1/XC4tLi4tLiEntxib28okLTtKoqR8n/PwgXGR56+v8ICQ4KCgwICw0ODw+NCAsh8gF/cTideXmF+YXFBYXF+YXFlVVVxSV2p+O/z/RGRIRaLdaoyLCoiLDIiLDoWuHm2kVJZWwqYyw5RVX9Ju2b92STdskKHZJzNlsOlQ558QBpEADgDovFEhke+lfqA1ADNqs1LjYqLjZKdiEQz9zLnX1SxqnKi55O+3FdvuxCJJu9Nv+ip/dl5nvvgRAAAABANQRCIyoodYx47eDdHx3NLzHQ/mlec6rEceeUo1e/frDIrmL3AQAAAK9RfcmormmGfYZyyu85P6zPn3hVwq2XxAQHKBHd7RXOTxflPj8rI7uQZaIQxrDfcQAAAOlUD4SarmsG3lbnZH7l2E+PPv/9iZsvjh3ZK9qHHyzcdtg+bUXu1OV5WawRhXDG/YoDAABIpnwgNIOTBVWvzsl8dU5mQi3/Pq3CW9cPalInKCbcFh5s8zPn1r0Op15od+QUVh3Mqthx1L58V1HGKXIgAAAA4G0EQjPJOFU5Y1We7CoAAAAA+AglnkwDAAAAAPwvAiEAAAAAKIpACAAAAACKIhACAAAAgKIIhAAAAACgKAIhAAAAACiKQAgAAAAAiiIQAgAAAICiCIQAAAAAoCgCIQAAAAAoikAIAAAAAIoiEAIAAACAogiEAAAAAKAoAiEAAAAAKIpACAAAAACKIhACAAAAgKIIhAAAAACgKAIhAAAAAChK9UDoZ7PILgGAZ/nZZFcAAABgVKoHwtAg1a8A4PPCg0mEAAAAZ6Z6HAonEAK+LjyIQAgAAHBmqschpg4AnxcerPofOgAAgLNR/T4pKpRACPi4WmF+sksAAAAwKNUDYeM6gbJLAOBZTfiaAwAAnIXqgbBZYpDsEgB4VrMkvuYAAABnpnogbM6dIuDrmiUyQwgAAHBmqgfCJgmBHEUI+DCrRWvKQgAAAICzUD0QBgdYOzUKkV0FAE9pmxwSGcLeUQAAAGemeiDUNK1vm3DZJQDwlL6t+YIDAACcFYFQu5j7RcB38QUHAAA4BwKh1qN5WHAA1wHwQQF+ll4tw2RXAQAAYFwEIS0k0Hr5BZGyqwAg3qUdI3mAEAAA4BwIhJqmaTf2iZFdAgDxbuwTLbsEAAAAQyMQapqmDWwfUSfKX3YVAESKDLEN7sjkPwAAwLkQCDVN0/xsllHMJAC+ZVSfaB4PBgAAODfulv708ND4IH+uBuAj/G2WRy6Pl10FAACA0RGB/pRQy/+mi3mSEPARI3tFN6wdKLsKAAAAoyMQ/tfjV8T72SyyqwDgLqtFGzec6UEAAIDzIxD+V8PagXf0j5VdBQB33dI3tlW9YNlVAAAAmIBF13XZNRhIQamjxf27Mk5Vyi4EQA1Fh/ntfbdVXISf7EIAAABMgBnCf4gMsb00Kkl2FQBq7qVRSaRBAACAaiIQ/tvoPjEXtw6XXQWAmriwWdht/Vj4DQAAUF0Ewn+zWLTpDzXknHrAdKJCbdMebGhlZygAAIBqIxCeQZ0o/y/uS+a2EjARi0X7/N7k5NoBsgsBAAAwEwLhmQ3qEPH4FXVkVwGguh66LP6KrlGyqwAAADAZAuFZvTgyafRFHFUPmMDlF0S9ciPbQQEAALiMQHhWFov26T0NBraPkF0IgHPp1jT024ca+tlY5A0AAOAyAuG5+Nss3z/a6IImobILAXBm7ZKD5z2ZEhLInzIAAICa4C7qPMKDbUsmNR3QjnlCwHC6poQufrZprTCb7EIAAADMyqLruuwaTKCiSh/9zqGZq0/JLgTAn4Z2jpz5SKPgAH7VAgAAqDkCYXU5de2xqcff/CWLCwZIN3Zw7TdvrstzgwAAAG4iELrm5w35t7x3JK+4SnYhgKLCg22f3N3g2h61ZBcCAADgCwiELjuSXXHdmwfXppXILgRQTqfGITMebtSkTqDsQgAAAHwEgbAmnLr2zfLch788nlvEVCHgDaGB1olXJzxyeTzLRAEAAAQiENbcyYKqcVOPf708l0sIeI7Fol3bI/qNm+omRvvLrgUAAMDXEAjdtfOo/dU5Wd+uyqtycCUBkSwWbUinyKevTuAsUAAAAA8hEIqRdqLslR+zZq7OKyl3yq4FML2QQOtV3Ws9Njy+Vb1g2bUAAAD4MgKhSPYK59yNBVOX5y7YUsiEIVADnRqH3Ngn5sY+0dFhfrJrAQAA8H0EQo/IOFW5eEfR0h1FS3YWHj5ZIbscwNDqxgRc0ib8krbhl7SJ4EFBAAAAbyIQetzRnIo9x8v2ppelppftzyzPK64qKHEUlzmLyxzFZawvhSqC/K0RIdaIYFtkqC06zK9h7YDmSUEt6gY3TwpKrh0guzoAAABFEQgBAAAAQFFW2QUAAAAAAOQgEAIAAACAogiEAAAAAKAoAiEAAAAAKIpACAAAAACKIhACAAAAgKIIhAAAAACgKAIhAAAAACiKQAgAAAAAiiIQAgAAAICiCIQAAAAAoCgCIQAAAAAoikAIAAAAAIoiEAIAAACAogiEAAAAAKAoAiEAAAAAKIpACAAAAACKIhACAAAAgKIIhAAAAACgKAIhAAAAACiKQAgAAAAAiiIQAgAAAICiCIQAAAAAoCgCIQAAAAAoikAIAAAAAIoiEAIAAACAogiEAAAAAKAoAiEAAAAAKIpACAAAAACKIhACAAAAgKIIhAAAAACgKAIhAAAAACiKQAgAAAAAiiIQAgAAAICiCIQAAAAAoCgCIQAAAAAoikAIAAAAAIoiEAIAAACAogiEAAAAAKAoAiEAAAAAKIpACAAAAACKIhACAAAAgKIIhAAAAACgKAIhAAAAACiKQAgAAAAAiiIQAgAAAICiCIQAAAAAoCgCIQAAAAAoikAIAAAAAIoiEAIAAACAogiEAAAAAKAoAiEAAAAAKIpACAAAAACKIhACAAAAgKIIhAAAAACgKAIhAAAAACiKQAgAAAAAiiIQAgAAAICiCIQAAAAAoCgCIQAAAAAoikAIAAAAAIoiEAIAAACAogiEAAAAAKAoAiEAAAAAKIpACAAAAACKIhACAAAAgKIIhAAAAACgKAIhAAAAACiKQAgAAAAAiiIQAgAAAICiCIQAAAAAoCgCIQAAAAAoikAIAAAAAIoiEAIAAACAogiEAAAAAKAoAiEAAAAAKIpACAAAAACKIhACAAAAgKIIhAAAAACgKAIhAAAAACiKQAgAAAAAiiIQAgAAAICiCIQAAAAAoCgCIQAAAAAoikAIAAAAAIoiEAIAAACAogiEAAAAAKAoAiEAAAAAKIpACAAAAACKIhACAAAAgKIIhAAAAACgKAIhAAAAACiKQAgAAAAAiiIQAgAAAICiCIQAAAAAoCgCIQAAAAAoikAIAAAAAIoiEAIAAACAogiEAAAAAKAoAiEAAAAAKIpACAAAAACKIhACAAAAgKIIhAAAAACgKAIhAAAAACiKQAgAAAAAiiIQAgAAAICiCIQAAAAAoCgCIQAAAAAoikAIAAAAAIoiEAIAAACAogiEAAAAAKAoAiEAAAAAKIpACAAAAACKIhACAAAAgKIIhAAAAACgKAIhAAAAACiKQAgAAAAAiiIQAgAAAICiCIQAAAAAoCgCIQAAAAAoikAIAAAAAIoiEAIAAACAogiEAAAAAKAoAiEAAAAAKIpACAAAAACKIhACAAAAgKIIhAAAAACgKAIhAAAAACiKQAgAAAAAiiIQAgAAAICiCIQAAAAAoCgCIQAAAAAo6v8AfmhKi0hnXFEAAABudEVYdGNvbW1lbnQAVGhpcyBpbWFnZSBpcyBmcm9tIFtWZWN0b3JMb2dvWm9uZV0oaHR0cHM6Ly93d3cudmVjdG9ybG9nby56b25lL2xvZ29zL3RyZWxsby90cmVsbG8tYXIyMS5zdmcpLiAgRW5qb3khGLXuywAAACV0RVh0ZGF0ZTpjcmVhdGUAMjAyNC0wNC0wNFQwNDoyNjo1NSswMDowMOJ3NkQAAAAldEVYdGRhdGU6bW9kaWZ5ADIwMjQtMDQtMDRUMDQ6MjY6NTUrMDA6MDCTKo74AAAAAElFTkSuQmCC;" vertex="1" parent="1">
          <mxGeometry x="570" y="175.09" width="130" height="65" as="geometry" />
        </mxCell>
        <mxCell id="bwCUnxS7NbJIKGIXhCUE-5" value="" style="shape=image;verticalLabelPosition=bottom;labelBackgroundColor=default;verticalAlign=top;aspect=fixed;imageAspect=0;image=data:image/jpeg,/9j/4AAQSkZJRgABAQAAAQABAAD/2wCEAAkGBxAQEBAQEhAVFhUVFxgWGRUXGBAXFRcXFRYXFhUVGBUYHSogGBslHxUWITIhJikrLi4vFx8zODMsNyotLisBCgoKDg0OGxAQGyslHyYrMC0vLi0tNy8tKzctNS83LS0yLS0tLS0tLysvLTUtLS0tLS0tLS0rLS0vLS4tLTUtLf/AABEIAMIBAwMBIgACEQEDEQH/xAAcAAEAAQUBAQAAAAAAAAAAAAAABwEDBAUGAgj/xABLEAABAwIDBQQFBgkJCQAAAAABAAIDBBEFEiEGEzFBUQciYXEUMoGRoSNCUmKCsRUzcpKissHC0SQ0U2Nzg9Lh8AgWQ1R0k6Ozw//EABoBAQACAwEAAAAAAAAAAAAAAAACBAEDBQb/xAAvEQEAAgEDAgQEBAcAAAAAAAAAAQIRAwQSITFBUWGxBROB8CMykaEGIkJScdHx/9oADAMBAAIRAxEAPwCcUREBERAREQEREBERAREQERUJQVRcHtD2oUkD3QUsb62cfMgBcxpH0pAD+iHW52XBQ7ebQYrIWUTWxtvqYmMysBt680txfW+lieQRnCeUUQM2Ox6QB0mOPY7ox1QR72lg+CpLgm09N3oMTbOB815bmPhaZhH6QUedfNnhKYEURYd2qVlJK2DF6F0d9N7G1w9uQktkA5ljvYVKuH10VREyaGRr43i7XtNwR/rkpIshERAREQEREBERAREQEREBERAREQEREBERAREQEREBERBhYzisNHBLUzvyxxi7j8AAObiSABzJCibEsRqcVj9JrZH01A78VRxEiapbyMrx809OGunJzsbb/aOfGan8GUUQdFBJnfI42Y90V2kvPAQgk9S4gEcr6naejJhmkmxSeedsbsoiayOnbYE5eV28dWgIy6bZzB5K5pa1opMOBsIoO5JUlp72aUd7d3Fi7i7Xlqu8pIIoI2wwxtYxuga0ANHkB96s4VM11LTZGBjTDGQwaBrSxpDQOQAWi2p2pdTSMpKWD0iskbmEXzI2f0khvoPC48SNL1bWm04b4iKxl0xeTzXlaDZifFHGQV8UDdAWOhPPm1zcx8NQt+tUxiWyFiuo4p43RTRtex3FrhcHx8D48Qo6jmn2Zq2uaXyYdUO1Ybkxu52+uALg/PaCDqARJgXBbV7MYvWif+XxbtxOWlyWjDWuvGDJYkv0BvbjwIC2aVsT3Q1K5hLNJVMmjZLG4OY9oc1w1DmuFwQeliryjHsPxKUQ1WHThzZKSQENdxayW5y+IDmuN+Fni2llJytqwiIgIiICIiAiIgIiICIiAiIgIiICIiAiIgIiIC1m02JtpaOpnc8NyRvIJIHfynI0X5l1gBzJWZXVkcEUk0rwyONpc5x4BoFyV88bX7Ry4xK+eQujo4b7qPmTa2YjnIb/AGQco5k4m0RGZbNLStqW41etlTucNYxmhnke+Q8y2IiKNn5N2vdbqV4xhpdC9jfWfaMecjgwfrLxsrhWKVdNGKWmbu4843sjsrXEvLi1tyCbFxFwCPEHReZKqWGbdVUW6lp5YZXt4tLI5WPc5pFwRlF9CfvtnKOE3U8IjYxg4MaGjyaAB9ywqDB44Z6qpFzJUOaXONrhrGNY2MfVGUn2+C2KKhlaws10+6hlmLS4Rsc8huriGNLiAOZ0V1jw4BwNwQCCOBB1BC53aPbA0EgjdQ1Esbmh29iaHtuSQWEEgAiw4nmsTs4qZ3wzB8MkdO19qYSjLKIjc7sjm1mgB6aXNlLj/Lljl1w6llSwyPiDhnY1rnN1uGvLgw+3I73LxiVUIIZZyCWxNL3W45Wi7iOpsCbeC5nbCd9DUU+JtaXRAbiqaASd052aOUDqxxP59uZKydocUxG0f4PpYamGZlzI57bDN1aXNuwtINwevDS6K9iZesPtHtDE9p7tVQvBtwc6KRrmvvz7pt5KRV887SQ1+GjBg2YekwR1GUsuQGNMZERv+MAacvDUe9TBsFtdFitMJWgNlZZssd/UdbQjqx2pB8xxBVrT/Kr3ic5dMiIpoCIiAiIgIiICIiAiIgIiICIiAiIgIiICItdtDiraOlqKp4uIo3Pt9Igd1o8SbD2oIp7YdoHVdSzCYXWYwh85HN2jmsPg0EOt9Jzfori9pGBlG6OMWDcunkR+1e8BD3NlqpTmlne5xd1u4kn2uLj7ll1MIkY5h4OBH+ao6ur+JHlD0+y2XHaW/uvH7eH693abU7PxVDMHp45JI43FrGmNxAYxlNLNmaOGd2RozG9raWub4tVsHJXCP0qpkbJBvKcyBrS+ogDs0LnOPPK8g6HW6wdhdtYYIo6KuOR0GkUpBLctiGgkDukNcWg8C22t+PaYDtNDXSzsp2vdHCBee1onPJ/FtvqTbXh94vsmbR2cHjHae7cQxhrWtF7NAFzx0FtfFe0RaWwVV4leGtLnGzQCSeQA1JWoxuolmpHSUMjJJGujkYGPZlkEcjHujzg2s5rS3pqsxDEy29RA17XRvaHNcC1zSAQQRYgjmCFwmDvlwmviw3WSlqi91OSbvhLe8+M39Zgvx8b9VtJcWxeUWiwxsJP/ABKmeMsafyIrud8FqqOWngrInT1ZrsRdeNjI8ojhD9XAMb3Y2hupc4l1gTZTiMZRmWH2kyB2IUbObIJHnw3j2tH/AKz7lzWE4s/Ca6OtjvunnJMwfOYTd2nUesPFtuBWw2hrBUYnWyCxbHkp2n+zBMn6bnLBrKcSRuYeY9x5H3qHzOF4dnR2ka2zx45mY+/XD6Lp52yMZIxwc14DmuHAtcLgjwIKuKN+w7HDNQvpHnv0j8gHPdPuWe4h7fJoUkK+84IiICIiAiIgIiICIiAiIgIiICIiAiIgKNe3mvLMOip28Z5mtI+rGDJ+s2P3qSlDvbq/NV4RHyvK63m+AfsPvWJnEZSpXlaK+cuYbGGNZGODWge4IquOpVFyXvMRHSFiqpI5RZ7Qeh5jyPFdn2LVuajqaU2D4ZSbc8sg0J+0x49gXIySBoLnEADmdAsXZbaqOjxNs4JEMg3Ux4aE6S2+qQ0+Qd1VjRzMTDifF6Ujjfpy/ef+JsrpXsikexhe5rS4MFgXkC+UHqbWHiQqYdXR1EUc8TszJGhzT4HqORHAjkQVlOtoQbg6gjUEHUEHmuUr45MNlkqYY3SUshL54WC74nn1qiJvNp+ez7Q5rMR4OPnxbzG21Bja6ndaSMh4YbZJQL3icSLtzA6OHAgHUXBjOqpNna17pDI6hnud40/JFr/nAtc0sve98pCk/DMRhqY2zQStkYeDmm48jzB8DqsbEtnaKpdnmpYpH8M7mNzWHIu4lSrbHdia5R/hWzuF5pYW4yJfSIzAGB8Rd33scC0Am7rsAtbmtzUYbRbP0ctRC3NO4btj5CDI97vVaLAANFsxDQNG630W3qo8Jwlu+MUEBsbFrG713gwAZnez2qKtq8cqcSmFU2Mthh/FRmxNr3c8ges4kC9uFgBexK2Vi156ZwhM1r3XsLpzHE0OJLjdzidSXO1JJ5lZaxMOxBkzbjRw4t5j+I8VlqlfPKcvZbfh8uvy5zGOjZdltX6PjhivZtTE8W6uaBID/wCOT84qd1854LJkxnC39ZQ3867P/oV9GLo6U5pDyO+pw3F4jz9xERbFQREQEREBERAREQEREBERAREQEREBQ325ty1uEv5HeD3SQ/4lMii7t8oiaOlqWjWGexPRsjT+8yMe1YmMxhPTtxtFvKXDrW1+MMZ3Wd9/Cw1APiR9wWXU3fC/KdXMNva3RazZmOPdueG/KAkEnpxFug/gqe10I1J6vRfFviF9tWOEd/F6hwuSYh9S4+EY0A87cPZr4rKq4oN2Ysot0bbQ8jfqrMtQ53E6dBwVpdata1jEQ8hqal9S3K89W12NxeSmBgkxOWlbcbtzomVFLbW7XNPeiPA3BA4+3a7UY9Wb5lPHisL491v3VFMzdi2YtDXO3jul9COOvJcqQsCrha1tQALZ4X8OrHNd9wPuVfV0oiMwubTVi2pFb9vf0+q9GZ45XTUta10jtSYpA2R3m0Gz/LXyW/w/aOeZobPj8sB4OjNKc4txAkiGvvB8FFsEuR7XWBykGxvbTrYrt6CCur3P3MMjnlmV4aY/k2vIscxDQy+VwsSSOK0zWf8AK1nSvEzGa+nePv6y8VVBHK6Sp30xgHGech00ljbMGjVovwBJP3C1h1bEyUGne9zHXa4PsO8BcEW/1xV3aHCK6kaaaSHd5ybuyl7H5jcNZI248MtrrV4TRPheGPBDic1iHtNg0i9nAHW/wU9PlFs5Q150vlcaxHbMz459PT6fVtsQpA29RA7KW6ub0vxI8PDgtzRzF8bHkWLmg28wtHXgloYOL3BvvK6CNgaA0cAAB5DQLTvuOYx3dL+H+cxeZno84SzPjGFN/rmu/Ndm/cK+jVAfZzS+kY9EeVPE+Q9L5cg+M/wU+LZpRikKG/vy3N5jz9ugiItimIiICIiAiIgIiICIiAiIgIiICIiAtLtlgvp1BVUul5GHJfgJG2dGfY5rVukQfMez9QXRZHAh0Zylp0I6AjlbUfZWPQjc1j4/myAkfrD94LrO1LAjh2ICtY3+T1ZOa3Bs3F4+1bOOp3i5fHSGmCcfNeNerTr7tD71Xp+HrZ8JdjVtG62GP6qe337KzNs5w8SvCyMQbZ58QD+z9ix105eah5jdcvAHqZb/AGr2+5Wq2HM3QXI5dQQQ4X8QSsqlbpUHrk+F14UZjMdUotxtmFjZLZX0iRxsWMjNnPuHPLjrkaeDTaxva4uOq7Uxtwmop66BuWEFsVQzUgxucLSm/FzTrfifaVyWGYlVUZO6IfGSXGN3U8SDxB0/yK6WDaujq43wz3hL2lrmv9XUWNn8B7bKEVrjHi2WvebRMdvT/TrtqpqbdMp4p5JntxCJzzIXuLDKySpbG15ABYGjQC9guL23qmPfFAAC6M7xzubbizWA+PrHyb1XsbXD0KipZXZ5qKWWwBuJAyJ0NOQddCJ+P9W4rm5JD3pHuu4kuc7qTx9nIDoAE0+2GNX82VKNmeob0jaXfadoPhqtxPKGNc88Ggk+xaLDcQihjc97rveS7KNSANADyHPj1V7EW1VRTGdtJOKYG7pgxzm5RzBtaw43va41IXP1aW1dXPg9PtNxpbTaYzHOeuPWeyUOwjCHCCpr3jvVD8rfyIi7MR5vc4f3YUprSbGVNJJQUpo/xAjDGA+s3J3S1/1gQb+N1u1acGZzOZEREYEREBERAREQEREBERAREQEREBERAREQa7aHBYa6mlpZm3ZILXHrNI1a9p5OBsR5L5s2owqow50lBUC9rOikAOV7M3rN8LXuOLTpwsV9SLkO1bDIZ8Kq3SRhzoY3Sxu5sewXuD5CxHMLExEp01LUzjxjH6oTndmZE/6TAfgD+1Ys0L3tLWAEn6wbbofFXYnXgp/ybe6wXlW+6h2llbN7OYjVyzQQiLMGse8yOsA0lzWkFoJOrTy5LrqbsfxBw+UroIz0Yx8g97sis9j9TkxVzOUlNIPtMkjcPgXKcFotMxOFmsRMZwiSPsXdbv4o8n6sIb98hVms7EbgluJOuPpwh33SBTCvEvqnyP3KOZTiIfLtXstJDVVFMZheEsGcNcA7eMDwQL6aOtx6rY7JbDuxGlrpWzkTUxIbFYFryGZm3dfu3Ic3hyWy2/JbidQASM0cJ8+65v7q2vYZWiOtxGFzrB7GSAf2b3AkD++ClMRxiUImeUwzdlMFoabC6XEI6KKaaVrXPmqpY2QQk8XOc+4Y0E2GRhcdL9VI2z2Kw1UZAq6aodazhAWlgH0cudxtra549BwXM9nUuTDnwRuDd3UVEbSWZw0NnfYZcw5Ec101DPO0/K1DHt6CBzHfnbwj4KDY4rstk9DxDF8Iv3Y5N/C3ox+W7R4Br4PaSpPUYYOze7VVEjOEdH8oRye9zMrT45cp+ypPRgREQEREBERAREQEREBERAREQEREBERAREQFrto8N9Lo6qlDspmikjDjqAXsLQSPAlbFEHzDjWBYjhoDaqnO6boJW2dFqf6RvC54B9isWCqY/gdeh0K+pnsDgWkAg6EGxBB4ghcFj/ZHhlSS+JrqZx/ocojP904FoH5OVTi8whbTiUabE1e5xXDpCbAymI+O+jcxo/OLV9FKANsezubB4G4gys34hmidk3Rjy98ZHZt46/eyDgPW8LKeqWobLGyRpu17Q4HqHAEfArFpzOWa1xGF1eXjQ+SqiikgPtMgk/CY3cMkhfTx92NrnnuySgmzQTbULE7MtnKuuq5J4pJaeENdHJPGY89+47ctzA2J7rrgaWUkvOXF2jmaJ36FQz/GrHZM4Qz4zQ3/ABVWZgPqTt7o9gj+KzmcYOMZysYr2PwGEtpqqdsuYOLpZHyMfc3fvGNy6u45hY3VjD9hMWp7iB2GU9xYyxQzmW3W773PmVKaLA5rYfZBuGxykyumnndnmncLF5F7AC5s0XceJ1cfIdMqKqAiIgIiICIiAiIgIiICIiAiIgIiICIiAiIgIqIgqioiDWbUYUKyiqqXnLG5oPR1u472OAPsXO9j2KGowmna7R9Pmp3t5t3R7jSORyFi7VRjjfZdUelTVVBiT6YyvMjoxvGtzON3d+N40uSbFp4oJPVCopZgG10ejcUp3D6xY4+0vpifiqy7P7Wy6OxKlaPDL+ymQeO0KsqoMSoH0bY3Sztnp27y5Zd0kLxqHCx9q6Ds82UrKWesra2WN09VkBbFfK0RggEmwubECwGmXibrWYF2a1XpUNXiGIunMLhIyNucND2kFpuTYC4BsGi9tTbRSWjKqKiqjAioqoCIiAiIgIiICIiAiIgIiICIiAiIgIiICIiDk8T7RsKppHQz1D43t4tdT1o4Ei4O6sRodRoV0OF4jHUxCaLPkPAvjmiJ8ckjWut421UJ/wC0T/OaX/p3/rqWtqtpoMMpPSZrng1jG2zPeRcNF9OAJJ5AFBvVRRxiu31dS0NHiUlJCYahzfkmySb1jZGufG4yFtnEtbwyixI9mZtVt5LT0NPiVNTxzU8wb68j2SMc+9gWBhBAtY66Hw1Qd4sHGK2SCF0scDpi3XdsMbXEAEkjOQDw4LgarbzEzhzMRhw+IRBodI6SQ3PeykxxjUsGnecQTqQ21ien2R2lGJ4f6UGZHEPY9l8wa9mhsbagixHmgxtgduo8X9I3cD4xDu/Wc05t5ntbLwtk+K65Qf2BVIip8UlL2NDI4HZpDlY2zZzdx5N6qR9n8UxaojdLLRwQgg7trpJw95+YXt3d4mnjqMw5tCDE2S7RabEquakjila5jXOa52Wz2seGONgbtN3DQ/A6LtFF/Z/tYKnFaulOHU1PIGymWSKxe98MrYyHOyNzC7nG5VzEe0atp8Tbh0lBG4lzQDFK57nteLtyB7WgHl3iALHW2qCTEUY4l2i19DXwU9dRRMimy2Mcjnua1zsmbMQA4tPEWHgt32hbdtws08TYhJNOTlzuyRMaC1pfI6xNruHAcjqLah2aLlZcYxGGejjkggkhqH5DPC6X5M5HuAMbgbg5QA/NbkQLi/VICIiAiIgIiICIiAiIgIiICIiAiIgIiICjftc2hxOkkoI6E5d85zc2SN2eQFgjiJeC1oOZx5E2OosVJCs1lJHMx0csbJGO0LHta5pHQtIsUEGdrjXYjiVFRQ5ZKgQhkgj7zWPkdd1zyDR3jfgCF1fbvhMstDBLG0ubTyF0gGtmOYW7y3QG1+gcTwBUgYbg9LS3FPTQw347qOOO/nlAus1BEuyc2z9ThlOaqWEPjjYJWTTyNs9jcpcI3P4G1xlHOw6KnadLSswCGOGMwMdKwxQyd1+TO85gwkuAPr2OoDtQDoJIj2doWy75tFTiW994IYRJfrnDb3WZUUMMhBkiY8jQFzWuIHS5CCMI62I7IO+VZ/NnR+s318xGTj63hxVzsYxCBuD1GaaMZJJS67mjKCxti650B6qSPwZT5cu4iy3zZcjLXta9rcbaXVBhVOAQKeKx4jIyxsbi+muqD5r2KwJ9fQYhDFMd6wQStpw5oE+QS5mlvFxA1byBIvxBEq9kO3jKum9FqJmieAABz3AGWIDuuu7i9trO8geekgw4dAxwcyGNrhwc1jARfQ2IC8HCaYkk08Vz/Vx8+PJBCnZlWxDaSucZWWkNYGHM2zy6qY5oafnEgEi3Gyu7TV8P+9lM/esytfA1zszcoOQixN7A6j3qZ24VTAginiBBuCI47gjUEGyocIpv+Xi/7cf8EEN9ulVH+EcP77e4y7tW90GVpBd00BPsXT7fQ4biVZT0NRLunmHfU1Ux7C15e9zXwkEZXA7tjhrc62tz7+XDKdxLnQREniSxhJsLDUjwVJcKp3tLHU8TmFuUtLGFpaCSGlpFrXJNvEoIOwrDa7Bcao6GCq3zZXRudGzMGGF7yJS+HMQxzWhzs1+mvEKfVg4bg9LTXFPTQw347qOOO/nlAus5AREQEREBERAREQEREBERAREQEREBERAREQEREBUREFUREBERAREQEREBERAREQEREBERAREQEREH/9k=;" vertex="1" parent="1">
          <mxGeometry x="290" y="340" width="139" height="104.12" as="geometry" />
        </mxCell>
        <mxCell id="bwCUnxS7NbJIKGIXhCUE-6" value="" style="shape=image;verticalLabelPosition=bottom;labelBackgroundColor=default;verticalAlign=top;aspect=fixed;imageAspect=0;image=data:image/jpeg,/9j/4AAQSkZJRgABAQEASABIAAD/2wBDAAYEBQYFBAYGBQYHBwYIChAKCgkJChQODwwQFxQYGBcUFhYaHSUfGhsjHBYWICwgIyYnKSopGR8tMC0oMCUoKSj/2wBDAQcHBwoIChMKChMoGhYaKCgoKCgoKCgoKCgoKCgoKCgoKCgoKCgoKCgoKCgoKCgoKCgoKCgoKCgoKCgoKCgoKCj/wgARCAIoAuADASIAAhEBAxEB/8QAHAABAAICAwEAAAAAAAAAAAAAAAYHBAUBAgMI/8QAGgEBAAMBAQEAAAAAAAAAAAAAAAECAwQFBv/aAAwDAQACEAMQAAABtQAAAAAAAAAAAAAAAAAAAAAAAAAAAAAAAAAAAAAAAAAAAAAAAAAAAAAAAAAAAAAAAAAAAAAAAAAAAAAAAAAAAAAAAAAAAAAAAAAAAAAAAAAAAAAAAAAAAAAAAAAAAAAAAAAAAAAAAAAAAAAAAAAAAAAAAAAAAAAAAAAAAAAAAAAAAAAAAAAAAAAAAAAAAAAAAAAAAAAAAAAAAAAAAAAAAAAAAAAAAAAAAAAAAAAAAAAAAAAAAAAAAAAAAAAAAAAAAAAAAAAAAAAAAAAAAAAAAAAAAAAAAAAAAAAAAAAAAAAAAAAAAAAAAAAAAAAAAAAAAAAAAAAAAAAAAAAAAAAAAAAAAAAAAAAAAAAAAAAAAAAAAAAAAAAAAAAAAAAAAAAAAAAAAAAAAAAAAAAAAAAAAAAAAAAAAAAAAAAAAAAAAAAAAAAAAAAAAAAAAAAAAAAAAAAAAAAAAAAAAAAAAAAAAAAAAAAAAAAAAAAAAAAAAAAAAAAAAAAAAAAAAAAAAAAAAAAAAAAAAAAAAAAAAAAAAAAAAAAAAAAAAAAAAAAAAAAAAAAAAAAAAAAAAAAAAAAAAAAAAAAAAAAAAAAAAAAAAAAAAAAAAAAAAAAAAAAAAAAAAAAAAAAAAAAAAAAAAAAAAAAAAAAAAAAAAAAAAAADXQivbVtHTQXm0TL2g/Basu+fcyJv9ptzSdVp8KrbRd+9+fPoGJ7CJara0rMT3OpP3vH0I6d87AYOgisLtW6pDUFvxLx11Nlh6GFL1l2bA+S2JZ8+bSJvYUsAAAAAAAAAAAAAAAAAAAAAAAAAABTnW4+1ogu5kKGh1M0FCa656YvWR3T86/QVZxqF+i6ONLd1I2XKwBS3n8+XPSl6mz1lou3fQCf5WGrTS+A7a0tWaYnGVqb0nPGtZLYebts7avG3qEDjNxJBEgAAAAAAAAAAAAAAAAAAAAAAAAAADzPRF9ZMTtA84k/z3eVHWrxelF3mncVxY+jpNISeMe+tfoR075Xr2tZVF9KWjVv0HRsTu7foC/ocwac1FExKRRyzr1nvh7s7/O/SZQ7Wlmz35039ZuxA5ZSdgEgAAAAAAAAAAAAAAAAAAAAAAAAAADBNVU+N4aUJVPill748TSHa16ptHW86NvGs7njlS1Ca+cwfSl2b2v5TS1L7DSTy9bPqa2YRS1V3pRdp2rN6Auajk83xUF4wCtvCr7XI+dut+RO9avSWOWSCzKS9YfQrU7bOwJAAAAAAAAAAAAAAAAAAAAAAAAAQGfVtMV7l4m20rePpxzlYE+Xz1clNXqvKjbtlvhnaLU99DfP16yCWVnKURC3aiv5ObqdtxS3zrMoz7aUndZSiLFjWNpd1SwRIADVbUUHgzKG60n9l1XamdgiQAAAAAAAAAAAAAAAAAAAAAAAAEJm3ij567bHWa1uiR/OuzrN7RypMMzsKWczESs6sd6XaM7qgt+FTFU9+rWm0vaqbWzsFLVDE7NrHWntl6+dlncmd2r2mgRFZjRfOkfRT59zKr30NP4UsvFSW0TCa9e2VgSAAAAAAAAAAAAAAAAAAAAAAAAABg1vayYobzv1MUvNZmieMLOQquwtkkESx8gVZ0tZNdDviJBOvrm1kxVNgbYBEgRSH22mKHwPofiY+fNzdYgs37qyCQAAAAAAAAAAAAAAAAAAAAAAAAAAAAAAAAAAAAAAAAAADwwMNNsj/ABz6yFoMzSuzcc9WASAAAAAAAAAAAAAAAAAAAAAAAePsqjW9wY743oThHN56XJ7jpyAAAAAAAAAAAAA8o5JMfi6IlxNPTg6oRxOPMhfOZheT3SnY4Gf9X4Yb5gAAAAAAAAAAAAAAAAAAAAAAAMLNUmF+M2j3gep13EUZ3nPMN2nqcW+YmV38vIvAAAAAAAAAA6Q7tdq+TeRauP8AXzeySbTUbf1OGN6vI9fn/Wk/qfUeIFgAAAAAAAAAAAAAAAAAAAAAAAAAGvj8w44OmDcyTR+H6WN7+Dm222bHHZhMMmDduvnnCIe/TjKEd9ds9603a9du1PEtu03nWd6juPleVdIh4c+0rw4+5Ntjg9HH0mXvNstLIcvn3fNYuVoNKaOUaeVeb2cj2/OAAAAAAAAAAAAAAAAAAAAAAAAAAAAccoa7Uyfjj3g/E21/m9sZbfB4OnGc8YbBAAAAczHDLzejLT9pNn9/LHNtsHpcfHJ2YAcRuSubTx9jozCQAAAAAAAAAAAAAAAAAAAAAAAAAAAAAAAHnj5jO2r8tyx00XXfs7aDtvRpvbZtK4mR3bZ8cl6hIAAAAAAAAAAAAAAAAAAAAAAAAAAAAAAAAAAAAAAAAAAAAAAAAAAAAAAAAAAAAAAAAAAAAAAAAAAAAAAAAAAAAAAAAAAAAAAAAAAAAAAAAAAAAAAAAAAAAAAAAAAAAAAAAAAAAAAAAAAAAAAAAAAAAAAAAAAAAAAAAAAAAAAAAAAAAAAAAAAAAAAAAAAAAAAAAAAAAAAAAAAAAAAAAAAAAAAAAAAAAAAAAAAAAAAAAAAAAAAAAAAAAAAAAAAAAAAAAAAAAAAAAAAAAAAAAAAAAAAAAAAAAAAAAAAAAAAAAAAAAAAAAAAAAAAAAAAAAAAAAAAAAAAAAAAAAAAAAAAAAAAAAAAAAAAAAAAAAAAAAAAAAAAAAAAAAAAAAAAAAAAAAAD/xAAwEAABBAEDAwMCBQQDAAAAAAADAAECBAUGEBMREhQgIVAVFiIwMTVAIyQyYICgsP/aAAgBAQABBQL/AMi2zdr1kfUQIqeozuvuK4oaksKvqIE3AYZ4bXr4KLfcFFU8rVtk9F2/XpN9foqplqlovouWg1B/cFFVMvUtG2KWAYWdQgg89RWnX3BdQ9SHZV9Q1ZoJhmh8xqHJnHYd3d/TUslqFxd6F6utVh7qqrFcFiLs7b58vLlUGfEaEu6G+qTd95aZDy5JZK8OiC7bNcL6cbZJVufMahhL6tUwts6Bp0MVHDUIs+IoOrOn602vUy0jLBWnrZBZAHkUtsIbnxuxJdkCT5CbYMvNi975ee6tLA7KKy9t7l5YnFTvoOGojbwKiJiaU1Z06KSjhrg7XzHRuvp1BWaxjl7sq8+UCzAPHyS0kb+ltnjcOLQ6zzoLSZeodsobx8eos8pVRMCtbl21dsVBh47/AEM7dQ7Yl+uNWrAbacLxZTbVpegli6ndp5aaLx5PbVZu2otPg58mjw5AybtktPZODh+enOMInzlITy1GFNqMKHn6UlHIVTj2w/7Ys0DyMagE4TRfuitSF5Mp0d3ANhByAuC9UJw2221ObkyK0oDtBtqSi4bO1TLW6qrajFJVrtez83lsoOhC3bNbn68P+2J/0vh8e6sGXmxkn6NaJzWcMLmya1SLsvrEl58c/srZee0scDxqWxRxKPJYIoXdni+zeyp5e3WfG5MN6Py96xGrVOWZyrFYgl1g4akNvp9RTxNGaNp+o7P7OsP+2barB2WlpI34Mubgxq0mLrYWqxd1NaUL3Uswbgxyw4PIyXps0wWWs6dDJWcLcCpM8XQiTETGW2u0/ltWk6V1VFz2hxaENyv2j/XbD/tm2owc2MWnTcWV1WXtqLTAuPGrKh58etLF7L+rDdALSYPyb1AFyF2tKpZWki/1fltXf5rFS7cn6NQW2rY/bBP3YrYkWnAw3CYM3EXUx2Nd/VUxcNROrguG3ji8F/UheXJrDA8fHfk6peP1BaTb+9+W1UHvpJn6PickO6FdVfzFarG5aJbPtpWz3V99Sg4sipyeb4sXPkN9TC48kizkUmOD5N7fJ2XqUqmo5da2SqWF16738pXqQtHnZOtL1nFT+WMOJhZCmSjYTezxv3IsWycu2GxErctRUvGsrBuSOU31SHvo7aVF3Xd9WC619tJg7j752EiYvaBijX1C4iWrJN8PjJXSRZox+XuVRWxXNP2BvOjaG7VLEkDDXTPQwIQOrlaFuvDTtjmpUw0x72BROGenLHd9uWliKDUK+9+tG3VfTlrr9uWljKcaNX0XsHWsOfT9uCJRtCTwmygIs0DD3TKjp8Q3jFox/wCCEywgpXoMnvuvPkmvuoXByTe7fJG7mGK5OLiLAjfziTYcDW5z9dF/7f5O1V71+KEg3XZDLAjfzJxacWrCZMODLoy6MpDjJWxMIipN0r/KWARKiikKTeziuTih2hz/AJspNFi3YRVa1yzWRfqZmQ27YfKzg042KkobwMSCHeULA5/x3dmRLYool2bqU5STM7vTrcbqxLuNTh3n+YPVgRGBMXogWcFC7NlG9B1E4pLq35zyiylZFFTvMp3CyUpPLcNeZUAERMrM+MKoj7B/Mv7o1OMkUMx+ppOyawVk10qa/JNfXnxXnDXnDXnDXnxT3096Se4V05iOn9/SIBCINSEPRkp+9MPKT50tQc0SmSKdnZ/4UYvJDpzkhVRw9ThIawODDj8/KLSU6Y5KdGbKQCR/MZndRrlkoUZKFMUVGLR/014RdSrCdPSGvAivAXgOvAdeAvAimpCZNXEyaLN/16f/xAAsEQABAwMCBQMDBQAAAAAAAAABAAIDBBARIDESFEBBUSEyUCIjMEJDcYCQ/9oACAEDAQE/Af8AJLKzbNxfN86MrPW4uUEULGw0i2OvyihqCKF8/AYWLDSUEUL4tnrDoKFjYXOsdblZsLGwsdGVlZ6/CxpxfCxfCwsfHNie7YLlJfCdTSN3HVBCKOoGWehUkD49/wA8L42erhlc+OwQr/ITHB7eIKX3nqmuLTkKCrD/AKXqSkY/ZPo5G7eqLSN/yMppH9kyia33qfg4/t7Jn2oUTnrIqp8ajqWSIgO3TqSMp1B4KNDJ2XKS+Fy0vhcvJ4XKy+EKOQptAe5TaKMbpsTGbBS1LI1LUOk/hQM43gKtl/bHXsqZGd0yuafcE2eN2x1ZTqiNu5T64fpCkqZH7m8Upj2ROfgg5w2KFRIO65uXyubl8o1Eh7ouJ3/sL//EAC4RAAEDAgQEBQMFAAAAAAAAAAEAAgMEEQUQEjEhMkBBExUgQlIUMFAiI1GAkP/aAAgBAgEBPwH/ACSDVpVgtOQCItkAtOYaigLrSrBaet1K6ugbpyanZMyPoCJy1ddZWTU5BHIbIFOTUchxRardcArrUgU7LdHdHZN3TkxOyBstSurdYN/Q1PyarcU7I7JqPpCPW6VpydkMnZDZHPStC0LbrbrUr5Xz1HO6vndalq/HPqI4+Yo4jB/KZXQv2PVOFxZGomo3aZOIUNXHNyn79VFNLwYbBeUk7uRwg9nKSMxuLCqe/hNv1T2NkGlyqcPfH+qPZQ4hLFwPFRYnE/m4JsjXcp+2TZS10MfdS4o93CMKkMnh3l3Un79SbdygLC3WVFBHNx2KnopYdwmuc3ZMxCdndMxc+5qbisR3QxGA919dB8l9bB8ka+Ae5OxOEJ2Lj2tT8UmdtwT55JOYqChlm7cFT0UcHHuquXwoi5YZT8fFd181DFL2UmFPHIbp9LKzdqtb02JTKSZ+zVFhLjzlQ0UUWwznpxPYOQAaLD8E6JjtwjRQH2ry+n+K8up/ihRwDZqbG1uw/sL/AP/EAD4QAAEDAQUDCQYEBAcAAAAAAAEAAgMREBIhIjFBUVIEEyAjMlBxgaEzQmFykZIwNECxU2Bi0RQkQ4CgsLL/2gAIAQEABj8C/wCot6+VrF1Mb3+OCyQxDxqV2IfoVnhiPhUKkzHR/HVX4Xh7d4tbz7iL2gAqtZPtXNxPN/c4U6I599CdABVayfYubjeb50DhSvRvzvuhayfahFG5186VbaXyuDWjaVSBjpfjoFkjiaPMrSL7V1kEZ+U0VJQ+LxxCvRPa9u8d8nk8DrjQMXDUqpNT0r8Dy0+hV9uDhg5u6yOUe47Hzsjlbq11UCNOhLuZlFjJB7rgUHDaK9BsYOEbfU2X9kba2X34uPZbvV+Z1dzdg6UboyaE0cN/fMgDSagUwVS0RN3v/suuke8/DBfl2nxX5aNHmS6J31C5uYeBGhsZwSZHWTRcTVjZA7aBdNrnHQCqc86uNbYDtAuny6E8mxzjSwynWR3pY9/uNys8LL7jchG3evYh53uxX5eL7Vjydnlgv8vI5h3OxCjHN1F4ZgcO+a0x6UhpnjzizDVRv4mg2TN90m8POyaHhN4WzHa7LZPyj+G5osni4Te+ts8m5uFgaNTgFHEPdbRSnc028na3S4P5EkG9pt5N8gshnHyGxo2SAttgi3m8bHsOsoLrA3ZI2lscXG6v0sjrozPY9nEKItOoNLG8lmdde3BpO0d/3nkNG8qgeZD/AEBYQyLGGRZi9ni1O5ueM4b7eTfJZM3aBeHlZHJwuqgRobHN2RgNQDdTgmRjRoop49zioZeFwNtzZG2lks51eaDyt/xDB1cmvwdaAH32cL8VTlEbmfEYrqZmO8++7ozznRqvTPJ+Gwfgcm+S2aLhdZCTqBdKJKlk4nEqBuwG8fKxr/4jf2sgf/TZLKfecSsFDFwtxtLJAHNOoKL+S1lj4feCo4UPxtwQF/nWcL1lyy7WHviSZ2jQnSSmr3Gps5x55uHftcvY3jvcV+Wi+1Y8mZ5YI3OcZ4FGzk3yWxzDR4ofEWTw7jeCnftu0Fk0vC27ZHJwOsfHwO/dTu23aCyFnug3j0uuia5V5PI6M7jiFUMEjd7FRwIO42NfG4te3EFMlGB0cNx73hj4nVPlZFFxuog1oo0YDoOO4KtnJvktedsZviyMbH1aoouN1fpYH7ZHF1k8e9tj49j2eqhh4nXjZPOfkH4NJW47HDUJ8L8abd4sni2Uvd78m87OSk8Y6L216yTK23k/ha5p0IonxO1YaJkg1aaqMN7LGfuvioo+FoFs0fC8hQSbA7FObsjAbZC09ql4+f4TKa3MbJjuZ3uyQf6bvSwEYEJoJAnAzNtIDucl4WoyzHHYN1r+TntMN4eHQvjsyivnZVxqdFAzZeqehe/iNrY578XOxKhi4nY+HQlmaKubpVU5VEKcTF1cza7jgVhaavD5NjAU+WTtONjpnaynDw73dHIKtcKFGN+nuu3iyowKoOUy0+ZdbNI7xdYJZwWwf+kJI20ik3bDZDzIJPveHQEoGMbvS2STYxvr0IZeB1PrbLOfdF0dCcMFTStuSV7fBy/NTfcs88rvF1ofICOTjU8SAaKAd8c3O28P2RPJ3CVm7QrNyeT6LCCX7V7O4N70H8oPPP3bLHRS6H0VHys5riGquwspvO09B8b+y4UWSaIj41XtYfVFt689xq49B8LsL23csJYfVe1g9f7IRNNTqTvPRLmVieeHT6LqyyQfA0Kz8nk+ixY76LJG8+DVhFcG9+CDuVO508I0QDQAB/sRzOCwBKwZ6rsBYs9Vjl8e9HFnaouszBZT+vLnaKjMo6Y70vMwctocF1mKyn9bRwqF2AsGhaWYtCo3Q2N713O3qjgqhZ8wWtD8f1tXGiyZldIobANwsaNw72o4VVWZm25XLrG/RYOH6fFa1PwWUBqzGqoNVff2rHFDcMe+ajByxGG/oZXFZgCswIWDx+PiQu19FkbXxWGXwWYk27hvWGu+xxsqdXd95MpWYefSwJC7ZWwrFgWLF2HLRy0cuy5dhywYsGhageSxeVj0cBhvKq7Meg1nmseyO/sMp+Cy5gsRT9HlFVmyhaVPx6Tqigrqg1un8gZgCsMqymqxYfxMAuwVndTwWIr4rAU/k3EArsBbV2yvaei7fou36L2nou2VtK7AWA/49P8A/8QALhABAAECBAUDBAMBAAMAAAAAAREAIRAxQVFhcYGRoSBQscHR8PEwQOFgcKCw/9oACAEBAAE/If8A5Fpd02bvapY4jZpa28f2K/DPrRG28X3KKdnvi9DUTVnF41gCa/Zayu2RqeXpYdaomv3Sjw2cvQ9MLzsFpV4FfstaJumJxzqPLBTpR+LenXmwT5omv3X3rzEn3UmKNx8FAnDVn3lHxOsHZ0pk5M1u+oZrAaGyULKddZvthwHXJglUheVIzKJH0PezF0s/OCpYe0tFlQh6F2smBC6s+bY+vbBlpKW7pQvYeExk3MCjAgybGdaPeEMJoEzbShxY5tDh21ZqIT92tCR2pK2S5fwVrQ3yzuYSM6Rzye/zgTGoHPSmRTMWacqkRnqQtieakulJncYpwZ6+sxWC9fZ0hY8YQ+uk5LfepipoMyWw16uE4l0MbrYoXIGrKgiLXJUnDd71CL+aLWmrcjMBvR7wtIIax6rhQy8szthNxwLjs0YuXeSmojI6Huwke6NzzxgBgI9aKvsjuuf0oqe8xBw/TG6MKHM2Pmoq6i5zlistUqxXmrxRlgMhcd7v/CE7kDxURbbCZYF4+6+T60VObCTnmUZYRi3cOBlhAr5Xl8GE4Nx9ZjEecrl/qMLCTfdMvNFcQHuKUrCkcqaC1dpba5+/sgnNIClgxxDvQ89zQqXbckahfxrapo1VrHLjTnh4TCGyetbqKhXS7WjuIJMIafJM2gpSwCsl99pW2yjk3rjxnKb+JpCCZOESG26279MIyeBf6x5Sv/K+JkPfgc6gkvJ0FPCS7t73EADM+XF4U82b8QwatvhGPhMDKHWlaIEjk3PGE/pnHEtQZYCamdl85Wv3Ql32wh8t5bKzrdNI8yz8UgK2Cl0JHKau2zNiiGzDq1xPacAzoLcz+G9MWFmCHFKlI7lOBjqT2cyos4iV3OJue8Qo3QbuhVw7RhwT2HY4caPWbyWv1qvrFfCm5rG6eaEDZjDxmMDs3fho+MJGOR1rPxUBsT8xsVEWqWywDrd+DCFS/jcJTznOX4aiVjuTbCQiegSj0wTjaX71O0YUuBak+KUkOYQmCJggaUaUvIGfu6htobkthw7Kj+DAaHoBfJXxSydzOHhMY5JN0LPhcJIYFfk+KhRvKOH4KalQjojI+MN7lTmX+mEyOy4GfiaiR+AKKylt8r9P4UB7dF1KbmWXsHBCdcCccvd5cCMBZIi70ZegICFLnm9MCpVtHziLcqRzrNQPbWSy+1pQpCnl9qhsM1iiL/xMAJfKmf0jlNqnNgJyNqhBk5zzayqH0Lrbv4mBCJ8sFdDD593UnLc5rYM7kSO1X4KF8m5U0gJWCiRxWae7pU+F2DI7GJNfIH+/PomQgPSs/TCSqAk7FiuG7yC/otkgDrLUWR2vShSJONWTk7Bd8FBBGIUyWZJoE0/DZoU5twdGgCVJwqamrWUzJftSN562QaFaUYMTOTl7vLIQOFGWueC1WlNJUMkYqEPsp5d7ApBuTZ5eHGhNtOLCZYSyBgGW+aMbphp5rOM/jZnN/nojsuj5fpjAySa4ufiPQpwbRrDhF689QUCQVBYM4la1NLwf7A+9GEFAGh7wvDmjqtxrQJRMP0aihetpqHPPRzriPGdRQDJWPTXrQAQAFFNJ56rcp0ZDxBy3qHaWbfmPoEuZShI0ixPxW73fsp02YSB5ehVUCw1aNBUk3UfSiW4HOi6Mrf0gN5s5lG1/LgNZceJMpWAvF0pC/EaSJU1P2qEO3yPvaPO0AGXvcf3YqP8Axxl84VavFVKs9aftKmfFR4G0IBGR9zVzBZUZ+oqVG8Nf77QQKcUfPSyyqrWejUOz2xKZl0k9zaKcWqaNfiQqHDHcqdG/3X040puSTjWWPpRtu1cAouGdKvkikw5vv7qLLYypai2TJpMgia1Z4eSosOFoM/3IsBxpCArsVyb8MzgIlMiG9qhXQPdm0RWaOxqY56Rs3p8urTXts2oRyf62eA51KhwVLSRvm0zKrjUCVWhTbAsbYc34rqhe8yIcYpLtmXoyJ9a+zLX3oa8Y1ihMkf5stXNrPC91DzV0VYUUJyzxcXpDjirOzrWdFbrxbC22t096AISSpd+kpfR2ZepLsDWU9e9Az7VfQhodXo0avgwr9JhDo+Cv9FpeQrKuQpn/AOtJVy8/Srl0POjlQRljKFyuq6DWePCgg98QSGpBHFppDgZ1EmXH+m3DLhV+j3GrjzV1R6GnRs4tqOiB/wAAPAnErXq4VkD418XL0iNyP40YR5FZZBxtSskbUgJHxUBBDh/xvmcKzcOVqXlHrTodmnjYiI41DVWs46jWX9cmshD/ANen/9oADAMBAAIAAwAAABDzzzzzzzzzzzzzzzzzzzzzzzzzzzzzzzzzzzzzzzzzzzzzzzzzzzzzzzzzzzzzzzzzzzzzzzzzzzzzzzzzzzzzzzzzzzzzzzzzzzzzzzzzzzzzzzzzzzzzzzzzzzzzzzzzzzzzzzzzzzzzzzzzzzzzzzzzzzzzzzzzzzzzzzzzzzzzzzzzzzzzzzzzzzzzzzzzzzzzzzzzzzzzzzzzzzzzzzzzzzzzzzzzzzzzzzzzzzzzzzzzzzzzzzzzzzzzzzzzzzzzzzzzzzzzzzzzzzzzzzzzzzzzzzzzzzzzzzzzzzzzzzzzzzzzzzzzzzzzzzzzzzzzzzzzzzzzzzzzzzzzzzzzzzzzzzzzzzzzzzzzzzzzzzzzzzzzzzzzzzzzzzzzzzzzzzzzzzzzzzzzzzzzzzzzzzzzzzzzzzzzzzzzzzzzzzzzzzzzzzzzzzzzzzzzzzzzzzzzzzzzzzzzzzzzzzzzzzzzzzzzzzzzzzzzzzzzzzzzzzzzzzzzzzzzzzzzzzzzzzzzzzzzzzzzzzzzzzzzzzzzzzzzzzzzzzzzzzzzzzzzzzzzzzzzzzzzzzzzzzzzzzzzzzzzzzzzzzzzzzzzzzzzzzzzzzzzzzzzzzzzzzzzzzzzTzzzzzzzzzzzzzzzzzzzzzzzzzzzz/xZb0/7zljzxfyre63TzzzzzzzzzzzzzzzzzzzzzzzzzzzD23ZPprxSJ6ja8J7/AOc888888888888888888888888888855p6/Wc7gX6LQYYr0c888888888888888888888888884PBYmksSEGYftC87zYB9888888888888888888888888884SdcY88ib+4/O1888s4W888888888888888888888888887GgMzj0exB+/X8/IbMQ3888888888888888888888888888cDK518s/8AfHCfLDH5z/PPPPPPPPPPPPPPPPPPPPPPPPPPPPPPPPPPPPPPPPPPOMusPvPPPPPPPPPPPPPPPPPPPPPPPK5+fPPPPPPPPPPPPPOEmKfvPPPPPPPPPPPPPPPPPPPPPPPPLQ9fNfPPPPPPPPPPdIVTt/PPPPPPPPPPPPPPPPPPPPPPPPPLHJzCJ9ff/MdcqxczDYPPPPPPPPPPPPPPPPPPPPPPPPPPPPPPj9NQAwwQxTlcNPK9fPPPPPPPPPPPPPPPPPPPPPPPPPPPPPPPLLjCxzHvvPPPPPPPPPPPPPPPPPPPPPPPPPPPPPPPPPPPPPPPPPPPPPPPPPPPPPPPPPPPPPPPPPPPPPPPPPPPPPPPPPPPPPPPPPPPPPPPPPPPPPPPPPPPPPPPPPPPPPPPPPPPPPPPPPPPPPPPPPPPPPPPPPPPPPPPPPPPPPPPPPPPPPPPPPPPPPPPPPPPPPPPPPPPPPPPPPPPPPPPPPPPPPPPPPPPPPPPPPPPPPPPPPPPPPPPPPPPPPPPPPPPPPPPPPPPPPPPPPPPPPPPPPPPPPPPPPPPPPPPPPPPPPPPPPPPPPPPPPPPPPPPPPPPPPPPPPPPPPPPPPPPPPPPPPPPPPPPPPPPPPPPPPPPPPPPPPPPPPPPPPPPPPPPPPPPPPPPPPPPPPPPPPPP/8QAKhEBAAICAQIDBwUAAAAAAAAAAQARITEQQFEgQWEwUHGBodHhgJCxwfH/2gAIAQMBAT8Q/aSYVLYd0uLUV8LRDkwNxaistDrW0olEFRw+A1NIxhgjmCVKddcpM+CWQ4cseDxMniqhIj1ywXFE5OGDiG4MR5j8oeEuM1CDq9IQ8Mcy8VBGGGbQ14UzNOrcyswhmmYPAxLmnG0C+GX5csCusS5WB4rmsrhDAHKWVlYFe7djMG/KBX1SqRnyKEYxx39veWn0lGPqwb/tgrQxCp3eqBPSQLQ/RmSwfSZzBG6NezC9TQUPWZ53/EIRBAL5ERW9ZiHJCsNPZhlCyZ+q+ED78JsMQhDzz18EnfARM/PDCKIgVXb2Jj3HZw6JXzft1+JLHrMJV8JqSCOvCg2zUsHi74zA0Hpyiu7EVu/cW9CaJwD8SKf5myc25f1C/wD/xAArEQEAAgIABAQGAgMAAAAAAAABABEhMRBAQVEgYXHhMFCBobHRgPGQkfD/2gAIAQIBAT8Q/wASVxcBGTfUSsQUvjLGJ4gmYQaI8UOE9nOjqopgiVIc3H0gxw0uXcwYZlURyzAirLYI54TLkM1IqZkcDUXLDm4LY6OCpidYijndymJJWG64xpBpFUKoOIOsfTgmkDWYBiWJXN5w4PB04PpG06wamUCiO3wXUVk35sabhkj2w74INEyODp4K3g7jA4ES6lod0UEW2+cEal4tl1Fu/ALfARqLd8RkHFxV38txxkH7YlX+3EGyzmUYNXPQpvvC+p2d/Hqj9TvL1/b95Q6np7zdyQgNqOachYx1z/cTLlPP9yuMnnqE2D8MBbMK3exmK433Ykf0oEEFcOnOXwPMIrdh3IpbR8pjMzzgcB9GaQk7X9SC9M8vP7ZNMr9J+6M6RjcLMgU7mGAL7mdwtHqx7F6fvnkvDMs0e5M7+JN/RWx4TECb2/H5mQr8jMy1j3cwK1wOQ0N13hgKD5Fod+k2Jn/RYB7ma1mvj6fyF//EAC4QAQACAQIFAwQCAgIDAAAAAAEAESExQVFhcYGREKGxIFDB0TDwQPFg4XCgsP/aAAgBAQABPxD/AOPi/e1jNGF3W9Da+IurmlSebfYnfqE9mKs5DbE/OBuJLj3YfVuoKev6GaKmqDo8GX6MemlWGrRoHOcjlm1EAE1slPS7+l8dhIM1QDBzfSzWG4JhbZwvK7+kfqybgQCsFWowFgKAsLQeNW9oRYIHLFCHt2jydLPgTgUb3BQ9oMKzc1IYAvdT92EJP/u2R3JpVyCPbT7w4ilFcTMVsArJlzFIFa7Hirl9AeD4mfU7jTPfZJPc2hNNWJ5fNqPD0clmyOFXyEb5kSIYW6gLOiXBaBA3HI+rK0Yju1PlaBex4jaDlGtBfa4igsBwS/ovWZ4cajZxAPLNoiI39tpXuoIpJianA8g3doOIFWIXDQ4Z1YPGZ20ibnzkEdM9JgtasumnxdAg31w/eTeqhBroC3R04Sj66MlONM9mpv4VT7NsJcwRfeIEXMJ8xOUDhSea26MqAGwS2tT5NSEvVELGMvMfJ6F/by4C/cEJUjIOyYYLZxJuqoNourtXqntdEgr8RvFXvVWCxRclm5Fy/iubMvYfUkVQFtx7+0uq+ETZmKq8DNqPKLokaLdOMuVLHRFPYLfSVGqUZsbX8rDTd7J71KSDggMFRVSHhm1VIWd8CDOMjCIqvJjavvICiFDFh1gfQyuhM2uF96x1qEGDMZbGR8hNM8HYZkTRtp2NIdG4mJRFYbijXuD1RvFpd3T7XAABisQgmlGiPX0vygrWXi7PhH3fmHpUwtxyveEEYu6xcMejHEAPKQwgxriGfeJp43W8yC6pcbBg8gxN0Wd1ZtD1rH3/AFWQd1Cg6HiPKMtrV4K/Ho+gf6z2ePR3e0VPlGWRevoqecRgV7mEPRG3Fw9sjJnXfrMXifOqfqfMPSxJhPKv5eEcEBqlceLwt3e3oBut34oRqjzaikfiaIfAMOtYs4pdVuVUs+/aPuz6hZqleFLuo8XFKP4/tJWAcRwMutiHu+IEVlu9ltRmt1fmbnrXKs1WvCdQTvFdPHMRUi0nAL9rj/0bG4lnzHSZpAHJH5CMgPLVVo90lfCXxqAX3leldeSnz7TP1HPxFO9HeMyIWJuRiXtRh4zeEdptNHJu96u5hKuKVXZjHM4Ayc7I+mjTJaA4Gh5l2HaV7tah5gNTyh6qn2l59H7uzGEE0A4v24DVqucyd9SaLhonzzYFYNJog8DzNdGarrM2gZ9eicsFJxmFoT/ZyIg4cjhOJFSWmNqv4BEKpy6BcV0sldRoewS4SwLaj8vd6AuAVaxdh1pGVSr1mX7/ALn2qikgLV0CXYYQ8Sr2qVhLqDm6e8MrB4VbLXlZXpn9moCMiC05DhW3pnkx4NVSDwRj6ASNsSkioALU64ftDlNBakVcT3DvU1+7gCkpa2+41GOIJ57HAMAcvQ4pWgtkzXT+hApLMsXawPEAKhDOo3/IEI+khRUcB+ZWrYluNNR9GnphQXQ6F9fQa3wq9h8lu8YqBHl/IwJpoYO011i+bPY9DSkIvAa+QiYl0skL0C/k8ot/K4mi+WBRTqYld1DpZr13QJpL1+iojfpWOeyn3iLKyH2OJ7w1jN2rrzF8rSKOYwgFEr0o/GybkKIJP0TponJ+70dmcQfkMNZcDQ+8Bcvi4e5YVAFBK9KjiZHfAU2Wu8m5j06enaTRFoC9oNnOrxafJTvCpimHUr8WxrlgWQDa/GHv6BQWG1yHvF2Z13mvgq5EIakTByaPdYpfuSp5Zfh5/gqJ7YgW9k3dHEHIsrKGyBtZtHSJnt8Gz4fu5sZweW0NYmYFq6GRcxAt/QKhfXNCu2fNQMBsQUkEJu19REPQKyzGoKfmWyLNdW1D3Ke8U5Aych/EEPSVxed8EqA7Sg3XAeUhC0MFb0v3v0ZhFFI7kBLUlVdivCQriOc63zHwgK4vypFpdaRKUMHUzB6WHb+LFo5DxSe0TEHg1m1un7u1QNqaDZ7IeZWYuEQ+qGxhJ3FQr75rj0NzBqrQQlGsdlttCAisJcoHD3Zhye0dGCVsi769dLeEPR0i9NBf9iiCVtBBcRLwAdgCC8Wgu6+D1YWr1qobF3weYkDVA6jZLTa8SooiFabBf5CEIKDAcPU2mbTZIF1tmALp1EQ5/iZmL9bE4NEKgbRVj3lB1JQL24zWMI5fNMDmwbzYltkN7BNLOIgeuE0wLu2+Pu5NWl3R8zJPGGtYR0s0TZ6kS4WydrIeIkNhxRYh0uCULwQeIYKwEaO4QcnTcce7bjDeABUECOFgIdZeI5sEjJmtsBkXcJas+ueoFDPFOTTO/pgnZqxbXw9WPnYM4B+T5g+hVaVLTP3U8oeoscE7QC0dCZc7OSUQpaaO5Nu/T9xBwIc8ULBSUvaZsuVbV1ZQ1ZfAQpVh1/nQdYOxB9AFAHAPvD7y5VcIMjOCmjLhnyCdI4bm4TyYhFC4fpgBV9a87L9kusOwW/6cHKChAAAoDhFi4QaDROIxbpsS7KmUcVtdZfd5ZD4pntobfRfsczWnc5msLD1oKNrBF94MlI3RZHNkuCqAcA+g3qdci3RvTWNyAF3wmTpevLEjjBHjJiKqWVbWxQByCGnql66SyYjlrxVgelS5gsaBzweFjzWm58xOUHhvxMqeqvwUstIxic61diC0Rht/P4MHG4WQ1eBwDYlfealJXXzAlR+g+ivSvpqVK+pJRUeZ8sBW/mV/42YblebL2l0t4lD3iVUNv9EdXD1/qUFNbv8A0RYE7jHkhhgWI2P3MULBNXn9yjboKFD9w0w3vh2/z6QztZsRCms6xU1IK2sBWE7RP9iVs4eE0IuGJY67B0GGn3IWMpzQ/o6POWmlTOyoVSmK6fEAnXbc7Qb/AMw4mqUtj8Qt94G9gMFofZP9UR4LcZFwtoBLdcoTITJfJh90r5QoD2eJLB7cUHJh7RMGkjh1Dgd94zaG1TAFjZ/mKA3Kqos496HfeHQ0FdDkhNYgL7sY3VU6ukA1R4Ah90SDCXZlieof6rJnJWmGHtGTVtSnvLBU59+0q6C3be8EwPR/xbgti8UEVTLZv30lvsgv6E6j0XDGChqMGvWAW89b5xwXKr0WM3gxGah5StPeV93QdZ0AL16m8Q3O3Ov139NpWb3idm8MjwyvAjfUyiEt8UhpRXAJeGe243FDVP4rJcWtYApJrQR9Ezb9EGTYigQhDPBnyxakb3RxQaTjBCV32ehvD2jVlr9QV0lQ6adTgg0Ze7KdBVmZNh+e/wB6cCTUS7l0r81lv02i4Z4W16sSBWmsuznOPibdDanyI2WA2a3DanqE/ADNm+j+0E1Psfv0olovY/cr5TW6PzDouv8ArpLy22tWf0kutxdouBQ9qloU4q/mLiqA5TaEs3gqxtig/cSMFuMO0AAKD0ZqjYZ4PzKJ2qJhbQQAAcvvjoBHUZfqnQ8R9esK8GcnaimX6v8APyfcblejtnJ22j+fd+MQAUFHCHrunR+1RgDtKCJo584affknLuVkyh452eGWaXtZaNuh3H4StMuCfwuNYZLl4XwRlPUW7KeY+O5At8scQ7ew8aQKe7CpUqVD6K9c/wDAUHUgNCcCYPlON/hNY4dobpOoZwPF/c5H+us5D+usDftn9wxmuIBGBMjXS8fyIFRfAKlHAh/xSpUP/WR//9k=;" vertex="1" parent="1">
          <mxGeometry x="276.5" y="488" width="109.33" height="82" as="geometry" />
        </mxCell>
        <mxCell id="bwCUnxS7NbJIKGIXhCUE-7" value="" style="endArrow=classic;html=1;rounded=0;" edge="1" parent="1">
          <mxGeometry width="50" height="50" relative="1" as="geometry">
            <mxPoint x="200" y="215.09" as="sourcePoint" />
            <mxPoint x="260" y="215.09" as="targetPoint" />
          </mxGeometry>
        </mxCell>
        <mxCell id="bwCUnxS7NbJIKGIXhCUE-8" value="" style="shape=image;verticalLabelPosition=bottom;labelBackgroundColor=default;verticalAlign=top;aspect=fixed;imageAspect=0;image=data:image/jpeg,/9j/4AAQSkZJRgABAQEAYABgAAD/2wBDAAIBAQIBAQICAgICAgICAwUDAwMDAwYEBAMFBwYHBwcGBwcICQsJCAgKCAcHCg0KCgsMDAwMBwkODw0MDgsMDAz/2wBDAQICAgMDAwYDAwYMCAcIDAwMDAwMDAwMDAwMDAwMDAwMDAwMDAwMDAwMDAwMDAwMDAwMDAwMDAwMDAwMDAwMDAz/wAARCAMABBIDASIAAhEBAxEB/8QAHwAAAQUBAQEBAQEAAAAAAAAAAAECAwQFBgcICQoL/8QAtRAAAgEDAwIEAwUFBAQAAAF9AQIDAAQRBRIhMUEGE1FhByJxFDKBkaEII0KxwRVS0fAkM2JyggkKFhcYGRolJicoKSo0NTY3ODk6Q0RFRkdISUpTVFVWV1hZWmNkZWZnaGlqc3R1dnd4eXqDhIWGh4iJipKTlJWWl5iZmqKjpKWmp6ipqrKztLW2t7i5usLDxMXGx8jJytLT1NXW19jZ2uHi4+Tl5ufo6erx8vP09fb3+Pn6/8QAHwEAAwEBAQEBAQEBAQAAAAAAAAECAwQFBgcICQoL/8QAtREAAgECBAQDBAcFBAQAAQJ3AAECAxEEBSExBhJBUQdhcRMiMoEIFEKRobHBCSMzUvAVYnLRChYkNOEl8RcYGRomJygpKjU2Nzg5OkNERUZHSElKU1RVVldYWVpjZGVmZ2hpanN0dXZ3eHl6goOEhYaHiImKkpOUlZaXmJmaoqOkpaanqKmqsrO0tba3uLm6wsPExcbHyMnK0tPU1dbX2Nna4uPk5ebn6Onq8vP09fb3+Pn6/9oADAMBAAIRAxEAPwD9/KKKKACiiigAooooAKKKKACiiigAooooAKKKKACiiigAooooAKKKKACiiigAooooAKKKKACiiigAooooAKKKKACiiigAooooAKKKKACiiigAooooAKKKKACiiigAooooAKKKKACiiigAooooAKKKKACiiigAooooAKKKKACiiigAooooAKKKKACiiigAooooAKKKKACiiigAooooAKKKKACiiigAooooAKKKKACiiigAooooAKKKKACiiigAooooAKKKKACiiigAooooAKKKKACiiigAooooAKKKKACiiigAooooAKKKKACiiigAooooAKKKKACiiigAooooAKKKKACiiigAooooAKKKKACiiigAooooAKKKKACiiigAooooAKKKKACiiigAooooAKKKKACiiigAooooAKKKKACiiigAooooAKKKKACiiigAooooAKKKKACiiigAooooAKKKKACiiigAooooAKKKKACiiigAooooAKKKKACiiigAooooAKKKKACiiigAooooAKKKKACiiigAooooAKKKKACiiigAooooAKKKKACiiigAooooAKKKKACiiigAooooAKKKKACiiigAooooAKKKKACiiigAooooAKKKKACiiigAooooAKKKKACiiigAooooAKKKKACiiigAooooAKKKKACiiigAooooAKKKKACiiigAooooAKKKKACiiigAooooAKKKKACiiigAooooAKKKKACiiigAooooAKKKKACiiigAooooAKKKKACiiigAooooAKKKKACiiigAooooAKKKKACiiigAooooAKKKKACiiigAooooAKKKKACiiigAooooAKKKKACiiigAooooAKKKKACiiigAooooAKKKKACiiigAooooAKKKKACiiigAooooAKKKKACiiigAooooAKKKKACiiigAooooAKKKKACiiigAooooAKKKKACiiigAooooAKKKKACiiigAooooAKKKKACiiigAooooAKKKKACiiigAooooAKKKKACiiigAooooAKKKKACiiigAooooAKKKKACiiigAooooAKKKKACiiigAooooAKKKKACiiigAooooAKKKKACiiigAooooAKKKKACiiigAooooAKKKKACiiigAooooAKKKKACiiigAooooAKKKKACiiigAooooAKKKKACiiigAooooAKKKKACiiigAooooAKKKKACiikZ8cUALRUZPc1yfxw+Nnh79nj4Waz4x8U3y2OjaJAZpm4Lyt0SKMfxSOxCqvckdOtaUqc6k1Tpq7bskt230M61aFKEqtRpRirtvZJbtmn4n+KHh3wV4j0bSNX1vTdN1PxDI0Wm21xOscl667QVQHqcug92dR1YA7tfgr4p/a18Q/tnftYa74x15mhik097fTNPVy0WmWizR7IV9TyWZsDczMcAEAfW/7Ln/AAUo8V/BL7LpHiTz/FnhmMrGFmkzfWKZ58qQ/fAB4jk4+VVVoxmv0vG+GWMp4SFWjNSq2vKG2vaL2dttd90+h+T5f4t4CtjZ0a8HGle0Z76d5LdJ7q17aJrdn6Z0Vx/wX+PXhX9oDwwNV8L6tDqESBftEH3LmzZs4WWM/MhyrYPRtpKkjmuwr81r0KlGo6VaLjJbpqzXyP1bD4ilXpxrUZKUZapp3T9GgooorI2CiiigAooooAKKKKACiiigAooooAKKKKACiiigAooooAKKKKACiiigAooooAKKKKACiiigAooooAKKKKACiiigAooooAKKKKACiiigAooooAKKKKACiiigAooooAKKKKACiiigAooooAKKKKACiiigAooooAKKKKACiiigAooooAKKKKACiiigAooooAKKKKACiiigAooooAKKKKACiiigAooooAKKKKACiiigAooooAKKKKACiiigAooooAKKKKACiiigAooooAKKKKACiiigAooooAKKKKACiiigAooooAKKKKACiiigAooooAKKKKACiiigBGOB70xjgU5zzj0qGRu9AEV/qEOm2c1zczRwQW6GSWWRgiRqBksxPAAAySelfh9/wVi/4KJTftkfFIaB4eupU+HXhedhYKMqNVuACrXjj0wSsYPIUk8F2A+g/wDgtv8A8FHin234LeCb/k/J4rv4H/8AJBWH5y49k/56LX5eF/xr9w8O+E/YRWa4yPvSXuJ9E/ter6dlr10/nvxR419vN5NgZe5F/vGurX2fRde706a+nfsvHPj+87/8S9//AEZFXvFeB/ssvn4g3g/6hz/+jYq98r9TqPU/H6Xwmx4E+IGt/DDxPbaz4f1O80nU7Rg0c9vIVbGQdrDoyHHKsCrDggjivuv9lv8A4Kp6Z4s+y6J8R44dG1JtkUWsQKRZXLHIzMvWE/dywymSxPlqK/Pyivn884cwOa0+XEx95bSWkl8+q8ndH0/D/FWYZPU5sJP3XvF6xfy6PzVn8j9w7DUINVsILq1niuba5jWWGaJw8cqMMqysOCCCCCOCDUtfkl+zX+2f40/Zlv0i0u8/tHQJJA1xo94xe3YZJJjPWFzuJ3JwTgsr7QK/RD9mn9tPwZ+0zYxw6bd/2Z4hSMNPo94wW4B2ksYj0mQbW+ZeQMFlTIFfhvEXBeOyu9VL2lL+ZdP8S6euq8+h/QnDHHuX5ulSb9nW/lb3/wAL6+mj8ranrtFFFfHH3IUUUUAFFFFABRRRQAUUUUAFFFFABRRRQAUUUUAFFFFABRRRQAUUUUAFFFFABRRRQAUUUUAFFFFABRRRQAUUUUAFFFFABRRRQAUUUUAFFFFABRRRQAUUUUAFFFFABRRRQAUUUUAFFFFABRRRQAUUUUAFFFFABRRRQAUUUUAFFFFABRRRQAUUUUAFFFFABRRRQAUUUUAFFFFABRRRQAUUUUAFFFFABRRRQAUUUUAFFFFABRRRQAUUUUAFFFFABRRRQAUUUUAFFFFABRRRQAUUUUAFFFFABRRRQAUUUUAFFFFABRRRQAUUUUAFFFFABRRRQBG56nrXyD/wVj/4KHw/sbfCv+wvD9zE/wARPFMDJp6ghjpUByrXjj1ByIweGcE8hGB9p/bJ/ax8P/sa/A7UvGGvOJpYx5Gm2AcLLqd2wOyFfQcEs2DtVWODgA/z8/Hf42+If2iPirrPjLxReG91nW5zNKwyI4V6JEg/hjRQFUdgB1PNfovAXCf9o1/rmKj+5g9v5pdvRdfu72/L/EjjX+ysP9Rwkv39Rbr7EX19XtHtv0V+U1HUJ9TvZrm5mluLi4dpZZZGLvK7HJZieSSTkk9TVVn9TSyN+lQu+OT1r+gm7bH8ypXPUP2U2z8Q70f9Q5//AEbFX0DXz1+ydJu+I96M5xpsn/o2KvoWsZO7OiKsrBRRRSKCpbG+n0y9hubaaW3ubZ1lilico8TqchlI5BBAII6VFRQ9dGNNp3R9h/st/wDBVHVfCAtdE+IyT65piBIo9XhAN9bKBjMq9Jx93LcScMT5hIFfdngH4h6J8UvC9trXh7VLTV9Mu1DRz277gCQDtYdUcAjKMAynggHivxQrr/gz8d/FXwC8Trq3hfVrjT5mK+fDnfb3ijOFljPyuMM2M8rklSDzX5xxF4eYXGXr4C1Op2+y/l9n5aeXU/UuGPE7GYHlw+Y3q0+/21838Xo9fPofszRXzR+y5/wUs8K/Gr7JpHibyPCnieQLGPNkxYX0m3kxyN/qySDiOQ/xKoeQmvpevxbMsrxWArOhi4OMvwfmns16H73lWcYPMqCxGCqKcfLdeTW6fkwooorzz0gooooAKKKKACiiigAooooAKKKKACiiigAooooAKKKKACiiigAooooAKKKKACiiigAooooAKKKKACiiigAooooAKKKKACiiigAooooAKKKKACiiigAooooAKKKKACiiigAooooAKKKKACiiigAooooAKKKKACiiigAooooAKKKKACiiigAooooAKKKKACiiigAooooAKKKKACiiigAooooAKKKKACiiigAooooAKKKKACiiigAooooAKKKKACiiigAooooAKKKKACiiigAooooAKKKKACiiigAooooAKKKKACiiigArJ8e+O9I+GHgvVPEWv38GmaNo1s93eXUxwkMaDJPqT2AGSSQACSBWtX42f8FnP+CkB/aD8ZzfDLwZf7/BHh24xqV1A/ya5eIegI+9BEw+Xsz5bkBDX0XDPD1bOMYsPT0itZS7L/N7JfomfL8XcUUMjwEsVU1m9IR/ml/kt2+3m0eDf8FD/wBuXV/25PjhPrMpns/C2kF7XQNNc/8AHtATzK4HHnSYDMecYVckKDXz9KetS1BMeK/p/CYOjhMPHDYePLGKsl/XXu+rP5Dx2Pr43ETxWJlzTm7t/wBdFsl0WhBI1VZ5OSKsTNgGqNxJgE5p1JDpRuep/sivn4lXw/6hkn/o2Kvouvm79j58/E6/Hf8AsuT/ANGw19I1nF3RrNWYUUUVRIUUUUAFFFFABX0J+y7/AMFEvF/7P/2XStTeTxR4VhCxizuZT9osowu0CCU5KqML+7YFcLhdmS1fPdFcOYZbhsdRdDFQUovv08090/NHoZZmuLy+usRg6jhJduvk1s15PQ/Y74FftI+EP2jPD32/wxqiXMkSqbqylHl3lkSAdskZOepxuXKEg4Y4Nd1X4keE/F2q+A/EVrq+i6heaXqdkxaC6tZTFLGSCpwR2KkgjoQSDkE19w/su/8ABVu31Q22i/E2NLO4OETXbWI+TJhes8SglGLD78Y25cfIigtX4xxF4d4nC3r5depD+X7S/wDkvlr5Pc/eeGPFDC4vlw+Z2pVNub7D9f5fnp5rY+1qKraPrNp4h0u3vrC7tr6yu4xLBcW8qyxTIRkMrKSGBHQg4qzX5rJNOzP1ZSTV1sFFFFIYUUUUAFFFFABRRRQAUUUUAFFFFABRRRQAUUUUAFFFFABRRRQAUUUUAFFFFABRRRQAUUUUAFFFFABRRRQAUUUUAFFFFABRRRQAUUUUAFFFFABRRRQAUUUUAFFFFABRRRQAUUUUAFFFFABRRRQAUUUUAFFFFABRRRQAUUUUAFFFFABRRRQAUUUUAFFFFABRRRQAUUUUAFFFFABRRRQAUUUUAFFFFABRRRQAUUUUAFFFFABRRRQAUUUUAFFFFABRRRQAUUUUAFFFFABRRRQAUUUUAFFFFABRRRQAUUV87f8ABSP9vLTP2GfglJfxtb3njPXA9toGnuch5APmuJAOfKjyCf7xKrkbsjrwOCrYzEQw2HjecnZL+ui3b6I4sxzGhgcNPF4qXLCCu3/XV7JdXoeB/wDBan/gpB/wpbwrcfCfwXf7fF2u2/8AxOryB/n0e0cf6oEfdmlU/VYzngupH4+Vo+L/ABdqfj7xTqOua1fXGpavq1w93eXU7bpLiV2LM7H1JJrOr+peGuH6OT4NYanrJ6yl3f8Aktku3nc/j7iziavnmPliqukVpGP8sf8AN7t9X5WCq83Spz0NQTH9K9qR89EqXBIU1n3TY4q9cn5azrw9fauOqz0KKPT/ANjh93xSvx/1C5P/AEdDX0vXzL+xm2firqH/AGCpP/R0NfTVTSfumlbSQUUUVoZBRRRQAUUUUAFFFFABRRRQB6d+zr+1v4z/AGZtV36DfifS5pDJc6Td5ks7hiu0ttBBR+F+ZCCdig7lG0/oh+zF+3Z4N/aXjisYJjoXiZgd2kXsg3ykKGYwPwJVHzdAHwjEoBgn8oadHI0UiurMrqcgg4IPrXyXEPB2BzVOpJclT+Zf+3Lr+fmfa8M8dZjk7VOL9pS/kb/9Je8fxXkfuNRX50/swf8ABUrxB8ORBpHj1LvxToy5CX6kHU7YbQACWIE65H8ZD/OSXbAWvvf4afFPw98YvC0eteGdXtNZ02RtnmwMcxvgEo6nDI4DKSrAMAw45Ffhue8M47Kp2xEbxe0lrF/5Pydj+heHuLcuzmF8LO01vB6SXy6rzV13szfooor54+mCiiigAooooAKKKKACiiigAooooAKKKKACiiigAooooAKKKKACiiigAooooAKKKKACiiigAooooAKKKKACiiigAooooAKKKKACiiigAooooAKKKKACiiigAooooAKKKKACiiigAooooAKKKKACiiigAooooAKKKKACiiigAooooAKKKKACiiigAooooAKKKKACiiigAooooAKKKKACiiigAooooAKKKKACiiigAooooAKKKKACiiigAooooAKKKKACiiigAooooAKKKKACiiigAooqDVdVttC0u5vr64htLOyiae4nmcRxwxqCzOzHgKACSTwAKaTbsgbSV2cj+0L8ffDn7Mfwi1jxp4qu/sulaPFuKrgy3Uh4SGNT96R2wAOnckAEj+fb9rX9qTxH+2D8bdU8aeJJSJbs+VZWaMWh021Uny4I/ZQSScDczMx5Y17F/wAFUv8AgoXdftsfF06fo088Pw88MStHpMByn2+TlWvZFPO5hkID91OwLPn5Tr+jOAuEllmH+t4lfvpr/wABXb1fX7umv8t+JHGzzbE/UsJL9xTf/gcv5vRbR+/roUUUV+hn5eIehqvN1qwehqvN1rGRtAp3P3azL09TWlddBWZeHIb2rhrHpUD039jA5+Kuof8AYKk/9HQ19OV8xfsX/wDJVdQ/7BUn/o6Gvp2po/CXiPiCiiitjAKKKKACiiigAooooAKKKKACiiigArpfhb8YPE3wU8TLrHhfWLvSL8KUZoiGSZf7siMCjr3wwIBAPUA1zVFZ1aUKsHTqRUovdNXT9UzWjXqUZqrSk4yWqadmn5NH6Qfsx/8ABUPwz8UVh0rxsLXwjrrZAui+3S7nABzvY5hY/N8shK4UfOSwUfVFfhvX0B+yF+3t4l/Z41mw0rVLq51rwSZNk1jKd8lijFQZLdj8y7cZ8rOxstwrNvH5RxJ4cQaliMq0e7g9n/hfT0enmj9m4W8VJxccNnCutlUW6/xLr6rXye5+pFFQ6dqMGr6fBd2k8V1a3UazQzROHjlRhlWVhwQQQQRwQamr8baadmfuqaaugooopAFFFFABRRRQAUUUUAFFFFABRRRQAUUUUAFFFFABRRRQAUUUUAFFFFABRRRQAUUUUAFFFFABRRRQAUUUUAFFFFABRRRQAUUUUAFFFFABRRRQAUUUUAFFFFABRRRQAUUUUAFFFFABRRRQAUUUUAFFFFABRRRQAUUUUAFFFFABRRRQAUUUUAFFFFABRRRQAUUUUAFFFFABRRRQAUUUUAFFFFABRRRQAUUUUAFFFFABRRRQAUUUUAFFFFABRRRQAUUUUAFFFFABRRRQAV+VP/Bbz/gpB/b99efBbwTf5srRwviq/gfi4lU5+wqw/hU4MmOrAJxtcH6L/wCCu/8AwUZT9kT4Znwn4WvEPxF8U27CBkbLaLatlWuj6SE5WMHuC3RMN+Ik88l1O8srvJLIxZ3YksxJySSepJr9g8OOEfayWbYyPur4E+r/AJvRdPPXor/h/inxt7GMslwMvef8Rron9leb+15adXZtFFFfuB/PYUUUUAIehqvN1qwehqvN1rGRtApXXQVl3fRq1LroKy7vo1cNfY9Kh0PTP2Lif+Frah/2CpP/AEdDX09XzD+xb/yVbUP+wVJ/6Ohr6eqaHwl4j4gooorYwCiiigAooooAKKKKACiiigAooooAKKKKACiiigD9Y/8Agn14hvPE/wCx14Iub6Y3E8VtNaKxAGIoLmWGJeP7scaL+HrXsteG/wDBNv8A5Ms8F/8Ab9/6X3Fe5V/K3EEVHNMTGKslUn/6Uz+xuG5uWUYWUndunD/0lBRRRXkHtBRRRQAUUUUAFFFFABRRRQAUUUUAFFFFABRRRQAUUUUAFFFFABRRRQAUUUUAFFFFABRRRQAUUUUAFFFFABRRRQAUUUUAFFFFABRRRQAUUUUAFFFFABRRRQAUUUUAFFFFABRRRQAUUUUAFFFFABRRRQAUUUUAFFFFABRRRQAUUUUAFFFFABRRRQAUUUUAFFFFABRRRQAUUUUAFFFFABRRRQAUUUUAFFFFABRRRQAUUUUAFFFFABRRRQAUUUUAFFFFABRRRQAV4/8Atv8A7YmgfsT/AAMv/FmsFLrUJM22j6bv2yaldlSVT1CD7zt/CoPUlQfRPiZ8SdF+D3gDV/FHiO/h0zRNDtmuru5lPEaKOgHVmJwAo5ZiAASQK/AL9vr9tfW/24vjndeI77zrPQbDda6FpjNlbC2z1IHBlkwGdu5wAdqqB9twVwrLOMVzVVajD4n37RXm+vZedj4Hj/jKGR4Pkou9eppFdu8n5Lp3fkmea/GH4u6/8efiZrPi7xRfyajrmu3BuLmZuAD0VFH8KKoCqo4VVA7VzVFFf0vTpxpwVOCskrJLZJdD+TatWdSbqVHeTd23u292woooqzMKKKKAEPQ1Xm61YPQ1Xm61jI2gUrroKy7vo1al10FZd30auGvselQ6Hpn7Fv8AyVbUP+wVJ/6Ohr6er5h/Yt/5KtqH/YKk/wDR0NfT1TQ+AvEfEFFFFbGAUUUUAFFFFABRRRQAUUUUAFFFFABRRRQAUUUUAfqt/wAE2/8AkyzwX/2/f+l9xXuVeG/8E2/+TLPBf/b9/wCl9xXuVfyvxF/yNcT/ANfJ/wDpTP7E4Y/5E+E/69U//SEFFFFeOe4FFFFABRRRQAUUUUAFFFFABRRRQAUUUUAFFFFABRRRQAUUUUAFFFFABRRRQAUUUUAFFFFABRRRQAUUUUAFFFFABRRRQAUUUUAFFFFABRRRQAUUUUAFFFFABRRRQAUUUUAFFFFABRRRQAUUUUAFFFFABRRRQAUUUUAFFFFABRRRQAUUUUAFFFFABRRRQAUUUUAFFFFABRRRQAUUUUAFFFFABRRRQAUUUUAFFFFABRRRQAUUUUAFFFFABRRRQAUUUUAFIzBFLMQAoySeAKWvzl/4Laf8FIP+Fc6Dd/B3wTf41/VoNviS9gf5tOtnGfsqkdJZVPzf3Yzjq+V9fJMmr5pjI4TDrV7vol1b9PxenU8XiHPsNlGCnjcS9Fsusn0S83+Cu9kfOf8AwWN/4KOn9p/x+/gDwhfFvAHhi5PnXEL/ACa7eLkGXI+9DGchOzHL85Tb8O0UV/U+U5VQy7CwwmGVox+9vq35v+tD+O87znE5pjJ43FO8pfcl0S8l/wAF6hRRRXpHkhRRRQAUUUUAIehqvN1qwehqvN1rGRtApXXQVl3fRq1LroKy7vo1cNfY9Kh0PTP2Lf8Akq2of9gqT/0dDX09XzD+xb/yVbUP+wVJ/wCjoa+nqmh8BeI+IKKKK2MAooooAKKKKACiiigAooooAKKKKACiiigAooooA/Vb/gm3/wAmWeC/+37/ANL7ivcq8N/4Jt/8mWeC/wDt+/8AS+4r3Kv5X4i/5GuJ/wCvk/8A0pn9icMf8ifCf9eqf/pCCiiivHPcCiiigAooooAKKKKACiiigAooooAKKKKACiiigAooooAKKKKACiiigAooooAKKKKACiiigAooooAKKKKACiiigAooooAKKKKACiiigAooooAKKKKACiiigAooooAKKKKACiiigAooooAKKKKACiiigAooooAKKKKACiiigAooooAKKKKACiiigAooooAKKKKACiiigAooooAKKKKACiiigAooooAKKKKACiiigAooooAKKKKACiiigAooooAKKK4H9pv9o/w5+yj8GdX8beKLjy7DTExFAhAmv52z5cEQPV3P4AAscKpI1oUalapGlSV5Sdklu2zHEYinQpSrVpKMYptt7JLdnkn/AAU6/b/sf2HfgwxsJILrx54iR4NCs2AcQ44a7kX/AJ5x54B++2F6biv4O+I/EV/4v8QX2rapeXGoanqc73V1czuXluJXYs7sx5LEkkn3rs/2n/2kvEn7WPxn1fxr4nuPMvtSfbBboxMOn26k+XbxA9EQH6klmOSxJ8/r+neD+GKeT4PllrVnrJ/ovJfi7s/kfjni+pnuN543VGF1BeXWT83+CsvNlFFFfXHxIUUUUAFFFFABRRRQAh6Gq83WrB6Gq83WsZG0ClddBWXd9GrUuugrLu+jVw19j0qHQ9M/Yt/5KtqH/YKk/wDR0NfT1fMP7Fv/ACVbUP8AsFSf+joa+nqmh8BeI+IKKKK2MAooooAKKKKACiiigAooooAKKKKACiiigAooooA/Vb/gm3/yZZ4L/wC37/0vuK9yrw3/AIJt/wDJlngv/t+/9L7ivcq/lfiL/ka4n/r5P/0pn9icMf8AInwn/Xqn/wCkIKKKK8c9wKKKKACiiigAooooAKKKKACiiigAooooAKKKKACiiigAooooAKKKKACiiigAooooAKKKKACiiigAooooAKKKKACiiigAooooAKKKKACiiigAooooAKKKKACiiigAooooAKKKKACiiigAooooAKKKKACiiigAooooAKKKKACiiigAooooAKKKKACiiigAooooAKKKKACiiigAooooAKKKKACiiigAooooAKKKKACiiigAooooAKKKKACiiigCp4g8QWXhTQr3VNTu4LDTtOge5urmdwkVvEilmdmPAUAEkn0r8Hf+Cnv/AAUAvv24fjMw0+S4tvAfhx3g0OzbKmfnDXci/wDPSTAwD9xMDruLe/8A/BbD/gpIfiPrl58HfBF+G8P6XMF8R30D8ajco2fsqkdYo2ALH+KRcdEy35y1+9eHfCP1Wms0xcf3kl7qf2U+vq/wXq7fzh4o8b/XKryjAy/dxfvtfakunpF/e/RNlFFFfqx+NBRRRQAUUUUAFFFFABRRRQAh6Gq83WrB6Gq83WsZG0ClddBWXd9GrUuugrLu+jVw19j0qHQ9M/Yt/wCSrah/2CpP/R0NfT1fMP7Fv/JVtQ/7BUn/AKOhr6eqaHwF4j4gooorYwCiiigAooooAKKKKACiiigAooooAKKKKACiiigD9Vv+Cbf/ACZZ4L/7fv8A0vuK9yrw3/gm3/yZZ4L/AO37/wBL7ivcq/lfiL/ka4n/AK+T/wDSmf2Jwx/yJ8J/16p/+kIKKKK8c9wKKKKACiiigAooooAKKKKACiiigAooooAKKKKACiiigAooooAKKKKACiiigAooooAKKKKACiiigAooooAKKKKACiiigAooooAKKKKACiiigAooooAKKKKACiiigAooooAKKKKACiiigAooooAKKKKACiiigAooooAKKKKACiiigAooooAKKKKACiiigAooooAKKKKACiiigAooooAKKKKACiiigAooooAKKKKACiiigAooooAKKKKACvh3/gsb/wAFHx+zF4BfwB4Pv9vxA8S2/wC/uIW+fQrNsgyZH3ZpBkIOqjL8fJu9y/b7/bY0X9h34GXXiO98m916/wB1roWmM2GvrnbnLAciJMhnb0wM7mXP4B/Ev4ka38YPH2reJ/EeoT6prmt3DXV5cynLSOfQdAoGAFGAoAAAAAr9N8PuEfr9ZZhi4/uoPRP7Ul+i693p3PyXxN43/s6g8twUv301q19iL/KT6dlrpoYbMWYkkknkk9TRRRX9Bn8yhRRRQAUUUUAFFFFABRRRQAUUUUAIehqvN1qwehqvN1rGRtApXXQVl3fRq1LroKy7vo1cNfY9Kh0PTP2Lf+Srah/2CpP/AEdDX09XzD+xb/yVbUP+wVJ/6Ohr6eqaHwF4j4gooorYwCiiigAooooAKKKKACiiigAooooAKKKKACiiigD9Vv8Agm3/AMmWeC/+37/0vuK9yrw3/gm3/wAmWeC/+37/ANL7ivcq/lfiL/ka4n/r5P8A9KZ/YnDH/Inwn/Xqn/6Qgooorxz3AooooAKKKKACiiigAooooAKKKKACiiigAooooAKKKKACiiigAooooAKKKKACiiigAooooAKKKKACiiigAooooAKKKKACiiigAooooAKKKKACiiigAooooAKKKKACiiigAooooAKKKKACiiigAooooAKKKKACiiigAooooAKKKKACiiigAooooAKKKKACiiigAooooAKKKKACiiigAooooAKKKKACiiigAooooAKKKKACiiigArmvjF8XtA+A3wz1nxd4nvk0/RNDtzcXMrcsccKiD+J2YhVUclmA710VxcR2lvJNNIkUUSl3dyFVFAySSegA71+In/BXb/goxJ+158TT4U8L3j/8K68LXB+zshIXWroAq10w7oMssYP8JLdXwv0/CnDdXOcYqK0px1nLsuy83svv6HyPGfFdHIsC68taktIR7vu/Jbv5Ldo8U/bc/bC1/wDbX+Od/wCLdYL2timbbSNND7o9MtQTtjHq5+87fxMT0AAHkFFFf1FhcLSw1GNChHljFWSXRH8hYzGVsVXnicRLmnJ3bfVsKKKK3OYKKKKACiiigAooooAKKKKACiiigBD0NV5utWD0NV5utYyNoFK66Csu76NWpddBWXd9Grhr7HpUOh6Z+xb/AMlW1D/sFSf+joa+nq+Yf2Lf+Srah/2CpP8A0dDX09U0PgLxHxBRRRWxgFFFFABRRRQAUUUUAFFFFABRRRQAUUUUAFFFFAH6rf8ABNv/AJMs8F/9v3/pfcV7lXhv/BNv/kyzwX/2/f8ApfcV7lX8r8Rf8jXE/wDXyf8A6Uz+xOGP+RPhP+vVP/0hBRRRXjnuBRRRQAUUUUAFFFFABRRRQAUUUUAFFFFABRRRQAUUUUAFFFFABRRRQAUUUUAFFFFABRRRQAUUUUAFFFFABRRRQAUUUUAFFFFABRRRQAUUUUAFFFFABRRRQAUUUUAFFFFABRRRQAUUUUAFFFFABRRRQAUUUUAFFFFABRRRQAUUUUAFFFFABRRRQAUUUUAFFFFABRRRQAUUUUAFFFFABRRRQAUUUUAFFFFABRRRQAUUUUAFFFfKX/BVX/goXbfsUfCH+ztFnhm+IfiiF49Jh4f+z4/uteSKeynIQHhnHQhXx3Zbl1fHYmGEwyvKTsv1b8luzz81zTD5dhZ4zFStCCu/0S7tvRLufPP/AAW7/wCCkH9h2V78FvBGoH7bdJs8VX0D/wCojYZ+wqw/iYHMuOi4Tnc4H5VVY1bVrrXtUub6+uJ7y9vZWnuJ5nLyTSMSzOzHksSSSTySar1/U3D2RUMpwccLR1e8n1k+r/yXRH8ecT8R4jOsdLGV9FtGPSMei/Vvqwooor3D54KKKKACiiigAooooAKKKKACiiigAooooAQ9DVebrVg9DVebrWMjaBSuugrLu+jVqXXQVl3fRq4a+x6VDoemfsW/8lW1D/sFSf8Ao6Gvp6vmH9i0H/hauoHnjSpP/R0NfT1TQ+AvEfEFFFFbGAUUUUAFFFFABRRRQAUUUUAFFFFABRRRQAUUUUAfqt/wTb/5Ms8F/wDb9/6X3Fe5V4b/AME2/wDkyzwX/wBv3/pfcV7lX8r8Rf8AI1xP/Xyf/pTP7E4Y/wCRPhP+vVP/ANIQUUUV457gUUUUAFFFFABRRRQAUUUUAFFFFABRRRQAUUUUAFFFFABRRRQAUUUUAFFFFABRRRQAUUUUAFFFFABRRRQAUUUUAFFFFABRRRQAUUUUAFFFFABRRRQAUUUUAFFFFABRRRQAUUUUAFFFFABRRRQAUUUUAFFFFABRRRQAUUUUAFFFFABRRRQAUUUUAFFFFABRRRQAUUUUAFFFFABRRRQAUUUUAFFFFABRRRQAUUUUAFFFZvjHxhpnw+8Kajrmt31vpuk6Tbvd3l1O22OCJFLMxPoAKqMXJqMVdsU5qKcpOyRw37W/7Uvh39j34Iar408RSB0tF8qxslcLNqV0wPlwJnuSCScHaoZjwK/n2/aE+PfiP9pn4u6z408U3ZutW1mYuVXIitYxwkMYP3Y0XCge2SSSSfVP+CkX7eGqftzfG6XUEa4tPB2hs9toGnucFIifmnkHTzZcAn+6Aq5O3J+d6/pHgXhNZVhvb11++mtf7q/l/wA/PTofyp4icaSznFfV8M/9npvT+8+sn+UfLXq0FFFFfen5uFFFFABRRRQAUUUUAFFFFABRRRQAUUUUAFFFFACHoarzdasHoarzdaxkbQKV10Fdl+zf+y34s/aw+IK+H/C9nv8AKxJfX0wK2unRE43yMBxnBwoyzEHA4OOz/Y4/Yl8WftqfEddI0SNrDRbIq+r61NEWttNjJ6YyPMlYZ2RggseSVUMy/sT8G/2c/Cn7LnwwtvCvhHT/ALHYW3zzTSEPc38xADTzOAN8jY9AAAFUKoVR+d8ZcYUssi8PQtKs+nSPm/Psvm9N/wBS4G4HrZtJYnEXjQXXrJ9o+Xd/Ja3t8k/Eb9kzwx+yJ+zNpmg6BF9ovLnVoZNT1SVALnU5hBP8zY+6i5ISMHCgnqzMzeO19Zft7f8AJL9P/wCwvH/6Jmr5NrXgHE1a+Ve2rScpSlJtsy8ScLSw2cewoRUYxhFJLpoFFFFfanwAUUUUAFFFFABRRRQAUUUUAFFFFABRRRQAUUUUAfqt/wAE2/8AkyzwX/2/f+l9xXuVeG/8E2/+TLPBf/b9/wCl9xXuVfyvxF/yNcT/ANfJ/wDpTP7E4Y/5E+E/69U//SEFFFFeOe4FFFFABRRRQAUUUUAFFFFABRRRQAUUUUAFFFFABRRRQAUUUUAFFFFABRRRQAUUUUAFFFFABRRRQAUUUUAFFFFABRRRQAUUUUAFFFFABRRRQAUUUUAFFFFABRRRQAUUUUAFFFFABRRRQAUUUUAFFFFABRRRQAUUUUAFFFFABRRRQAUUUUAFFFFABQTgE+lFFAEUtyYwfavkb/gqt8RPj98M/h5pXif4L6pFb6do/nN4htoNNt7y/wDLIUxzos8cgaJMPvCAOuVb5l3FPrmeDeprD1vSjKjEZNd+W41YTEwxEqcaijvGSumttU/wfR6nn5tgJY3CTw0akqbktJQbUk9001+K6q6Pw6/4fP8A7S3/AEUn/wAt/Sv/AJGp9v8A8FpP2lIbiN3+IqTKjBjG/h/TArgHocW4OD7EH3FfSn/BT3/glGmvxX/xA+GOl+XrEe6fV9AtU+XUV6tPbIOk45LRDiUcqBINsv5jV/RWQU+Hs3w31jDYandaSi4QvF9np9z6+t0v5c4lq8T5Ji/q2KxdWz1jJVJ2ku61+9br0ab+8Lf/AIOGvjZBbxo3hz4YzMihTI+m3oZyB1OLsDJ68AD2FT2n/BxD8ZUu4muPCvwylgVwZEjsb5HZc8gMbsgEjuQceh6V8EUV6D4MyR/8w0fx/wAzzFx7xAv+Yuf4f5H6hxf8HJTiJQ/waDOANxXxbtBPcgfYzj8zU+n/APByRby38K3fwdmhtmcCWSLxSJZEXPJVTaKGIHYsM+or8taK4n4ecPv/AJh//J5//JHoLxP4lX/MT/5JT/8AkD9lR/wcP/BbAz4X+KOf+wdYf/JlWdI/4OEfgjqWpwW82h/EmwimcK9zcaZaNFAD/Ewjumcgf7Kk+xr8YaK4n4ZZJb4Zf+Bf8A714t8QJ35of+A/8E/eb/h8/wDs1f8ARSf/AC39V/8Akarehf8ABYX9m/xFrFtY2/xMtI57pxGjXWk6hawqT3aWWBUQe7MB71+B1FcL8KMptpVqffH/AOQPQXjPnV9aVK3pP/5M/o3/AOG4fgr/ANFf+F3/AIVVh/8AHa9H0TXLLxNo1pqWm3lrqGn6hClza3VtKs0NzE6hkkR1JVlZSCGBIIIIr+YGum+Evxn8WfAfxfHr3g3xFq/hrV4wENxYXLQtNGHSTypAOJIiyITG4KNtGQa8vFeElPk/2fEPm/vR0f3PT7n6HsYTxsqc9sVhVy/3Zar5NWfpdep/TFRX51fsA/8ABdDR/iR9j8K/GaSy8O683lwWviKJPK06/OAubkZxbyE4YuMQncxPlBQD+itflGcZJjMrr+wxkOV9H0a7p9fzXWx+y5HxDgc3w/1jAz5l1Wzi+zXT8n0bCvx7/wCC0/8AwUg/4XZ4quPhR4K1Av4R0K4xrV5A/wAmsXkbf6pSPvQxMPo7jPIRGP0d/wAFnv8AgpAf2ffBs3wx8GX5Txv4htv+JldwPh9Es3HQEfdnlH3e6oS3BZDX421+o+HHCN+XN8ZH/r2n/wClf/I/f2Z+Q+KnG1ubJMDL/r41/wCkL/277u6Ciiiv2k/AwooooAKKKKACiiigAooooAKKKKACiiigAooooAKKKKAEPQ19E/8ABPn/AIJyeJf25fGb3DG40TwFpEwTVdaKcyNgN9mtgeHnIIJPKxqwZskoknY/8E2v+CWGvftoalF4l8Qfa9A+G1pMVkvAu241hlOGhtsjG0EFWlIKqcgbmDBf2Z8EfDnQ/hF4F03w14a0y10bQtGhFvZ2duu2OFBz35ZiSWZmJZmYsSSST+X8a8dQwClgsC71tm91D/OXl069j9d4B8O6mZOOPzFONDdLZz/yj57vp3OM+GfwV8M/s+/Dyx8K+EtKt9I0bTlwkUYy0jEDdJIx5eRsZLMSTVLxJ9x67bW+9cT4k+49fgdWrOpN1Kjbb1berbP6TpUoUoKnTSUUrJLRJLokfL/7e3/JL9P/AOwvH/6Jmr5Nr6y/b2/5Jfp//YXj/wDRM1fJtf0B4cf8iaP+KR/NPin/AMj2X+GP5BRRRX3h+chRRRQAUUUUAFFFFABRRRQAUUUUAFFFFABRRRQB+q3/AATb/wCTLPBf/b9/6X3Fe5V4b/wTb/5Ms8F/9v3/AKX3Fe5V/K/EX/I1xP8A18n/AOlM/sThj/kT4T/r1T/9IQUUUV457gUUUUAFFFFABRRRQAUUUUAFFFFABRRRQAUUUUAFFFFABRRRQAUUUUAFFFFABRRRQAUUUUAFFFFABRRRQAUUUUAFFFFABRRRQAUUUUAFFFFABRRRQAUUUUAFFFFABRRRQAUUUUAFFFFABRRRQAUUUUAFFFFABRRRQAUUUUAFFFFABRRRQAUUUUAFFFFABUVxbiRTUtFAHO63oS3EbZGc18A/8FIP+CT1n8bTqHjLwFBbaZ41O6e6ssiK21xup5OFjnbs5wrsfnxkyD9HJoBIprF1nRFuEYEZzXp5TnGKy3ELE4SVpL7muzXVf8OrM8nO8kwea4V4TGw5ovbun3T6Nf8AAd1ofzO6vpF34f1a60/ULW5sb+xme3uba4jaKa3kRirI6sAVZWBBBGQQRVev2O/4KPf8EvNL/afhn8UeHBb6N4+t4gpmI22+sIowsc+OjgAKso5AAVtyhNn5EePPAes/DDxhqGgeINOutJ1nS5fJurW4TbJE2AR7EEEMGGQykEEgg1/S3DPFWFzmhzUny1F8UXuvNd12f32Z/J/FvB+MyLEclZc1OT92a2fk+0u6+661Miiiivpz5EKKKKACiiigAooooAK+n/2Mf+CsPxO/Y38OzeH7SeDxP4UWCcWelamSV02d0+SSGQfOqLIFZoc7GBkwEdzIPmAc0E/pXHj8uw2NpOhi4KcX0f5rs/Nanfl2aYvL6yxGDqOE11T/AAfRryehq+OvHOr/ABM8Zan4g16/uNU1nWbh7u8upmy80jnJY+nsBwBgDAFZVFFdcYqMVGKskcU5ynJyk7t6t9wooopkhRRRQAUUUUAFFFFABRRRQAUUUUAFFFFABRRRQAV9y/8ABLj/AIJI6j+1DqNl45+INrd6X8N4GE1taktDceJCDwqEYZLfj5pBgsPlQgkunb/8Eof+CPzfE9NN+JvxZ054/DTbbnQ/D1whV9Y7rc3KnkW3QpGeZvvNiLAm/Wi3to7K1jhhjSKKFAiIihVRQMAADgADtX5Fxt4gKhzZflkrz2lNfZ8o+fd9Omu37bwB4avEcmZZtG0N4wf2uzl/d7Lr103oaToVl4X0S00zTbO10/TtPhS2tbW2iWGC2iRQqRoigKqqoAAAAAGKr3/Q1pT9DWbf9DX4a227s/oZJJWRzWt964nxJ9x67bW+9cT4k+49IZ8v/t7f8kv0/wD7C8f/AKJmr5Nr6y/b2/5Jfp//AGF4/wD0TNXybX9CeHH/ACJo/wCKR/Mvin/yPZf4Y/kFFFFfeH5yFFFFABRRRQAUUUUAFFFFABRRRQAUUUUAFFFFAH6rf8E2/wDkyzwX/wBv3/pfcV7lXhv/AATb/wCTLPBf/b9/6X3Fe5V/K/EX/I1xP/Xyf/pTP7E4Y/5E+E/69U//AEhBRRRXjnuBRRRQAUUUUAFFFFABRRRQAUUUUAFFFFABRRRQAUUUUAFFFFABRRRQAUUUUAFFFFABRRRQAUUUUAFFFFABRRRQAUUUUAFFFFABRRRQAUUUUAFFFFABRRRQAUUUUAFFFFABRRRQAUUUUAFFFFABRRRQAUUUUAFFFFABRRRQAUUUUAFFFFABRRRQAUUUUAFFFFABUc0O9TUlFAGHq+kCdGBHWvkz/god/wAE69F/bA8IC4gMGkeNtJiK6XqpQ7ZFyW+zXGOWhJJIIy0bMWXILpJ9mSw7waydV0kTqeM5rswGYYjBV44nDS5Zx2f9bp9V1OHMstw2Pw08Ji4KUJbp/muzW6a1TP5tPi18IvEXwN8dXvhvxTplxpWr2DYeKUZDr2dGHDoccMpINc3X7x/ts/sMeF/2uvAEumaxCLPV7VWbS9YhiDXOmynv1G+JiAHjJAYdCrBXX8Uvj/8As9+Kv2ZviPeeF/FuntZ31sS0MyZa2v4skLNC5A3xtj0BByrBWDKP6Q4R4yoZzS5J2jWjvHv5x8u63XXo3/K3G3AuJyKr7SF50JP3Zdv7suz7PZ9NbpcTRRRX2h8EFFFFABRRS9PqaAEPHFFFFABRRRQAUUUUAFFFFABRRRQAUUUUAFFFFABRRRQAUUVPpWlXWvapbWNjbXF7e3sqwW9vBGZJZ5GIVURRksxJAAAyScUN2V2NJt2RAAWIAySa/VL/AIJcf8EZF0iLTfiL8ZdLD3rbbnSfCt3HkWw6rNeoer9xAfu8eZ82UTr/APglb/wR+i+BNxp3xH+KFpBeeM49txpGjPiSHQW6iaXs9yP4QMrEeRl9pj/QevxHjfxAdTmwGVy93aU118ovt3fXppq/6A8P/DVU+XMs4h728ab6ecl37R6dddEUHoaKD0Nfjp+5lafoazb/AKGtKfoazb/oaAOa1vvXE+JPuPXba33rifEn3HoA+X/29v8Akl+n/wDYXj/9EzV8m19Zft7f8kv0/wD7C8f/AKJmr5Nr+hPDj/kTR/xSP5l8U/8Akey/wx/IKKKK+8PzkKKKKACiiigAooooAKKKKACiiigAooooAKKKKAP1W/4Jt/8AJlngv/t+/wDS+4r3KvDf+Cbf/Jlngv8A7fv/AEvuK9yr+V+Iv+Rrif8Ar5P/ANKZ/YnDH/Inwn/Xqn/6Qgooorxz3AooooAKKKKACiiigAooooAKKKKACiiigAooooAKKKKACiiigAooooAKKKKACiiigAooooAKKKKACiiigAooooAKKKKACiiigAooooAKKKKACiiigAooooAKKKKACiiigAooooAKKKKACiiigAooooAKKKKACiiigAooooAKKKKACiiigAooooAKKKKACiiigAooooAKZLFvB9afRQBkanpYmU5HNeHftY/sheFf2pPAE2g+J7HzVXc9peQ4W60+UjHmROQcHpkHKsBggivoWWLeDWbqOmiZCMVth8TVoVY1qMnGUXdNbowxWGo4mlKhXipQkrNPVNH88P7Xf7Ifij9jv4mvoOvxm6sLvdLpOrRRlbfVIQRlhnOyRcqHjJJQkcsrI7eVV/Qv+0j+zR4a/aJ+Ht74a8U6amoadcneh+7NaygELNE/VJFycEdQSDlWIP4vftwfsG+J/wBjHxcv2sSar4T1GYx6brCR4RmwW8iYD/VzBQTjo4UlSdrBf6H4N45pZpBYXFtRrr5KfmvPuvmtNF/MPHfh7WyicsZg05Yd/Nwv0fddpfJ62b8JoooHv2r9DPzAAOMmignNFABRRRQAUUUUAFFFFABRRRQAUUUUAFFFFABRRRQAUUV0Hwq+FXiL43fEDS/CvhTSrrW9f1mYQWlpbgbnOMliThURQCzOxCqoLMQATU1KkYRc5uyWrb2S7sunTnUmqdNNtuyS1bb2SXczvCvhXU/HHiSx0fRrC71TVdTmW3tLS1iaWa4kY4VFUckk9hX7Tf8ABLf/AIJR6b+yFo9t4z8aQ2urfE+9iygystv4bjZcGGEjIacgkSTDjBKIdu95et/4Jx/8EwfDX7DnhiLVNQNp4h+I1/Di/wBXCExWQYfNb2gYArGOhcgPJ1IUEIv1NX4Fxtx7LHc2By9tUtnLZz8vKP4vrpof0lwB4cRy/lzHM0nW3jHdQ833l+Eel3qiiiivy4/XwoPQ0UHoaAK0/Q1m3/Q1pT9DWbf9DQBzWt964nxJ9x67bW+9cT4k+49AHy/+3t/yS/T/APsLx/8Aomavk2vrL9vb/kl+n/8AYXj/APRM1fJtf0J4cf8AImj/AIpH8y+Kf/I9l/hj+QUUUV94fnIUUUUAFFFFABRRRQAUUUUAFFFFABRRRQAUUUUAfqt/wTb/AOTLPBf/AG/f+l9xXuVeG/8ABNv/AJMs8F/9v3/pfcV7lX8r8Rf8jXE/9fJ/+lM/sThj/kT4T/r1T/8ASEFFFFeOe4FFFFABRRRQAUUUUAFFFFABRRRQAUUUUAFFFFABRRRQAUUUUAFFFFABRRRQAUUUUAFFFFABRRRQAUUUUAFFFFABRRRQAUUUUAFFFFABRRRQAUUUUAFFFFABRRRQAUUUUAFFFFABRRRQAUUUUAFFFFABRRRQAUUUUAFFFFABRRRQAUUUUAFFFFABRRRQAUUUUAFFFFABRRRQAU2SPeDTqKAMzUNOEykYrzn4yfBjRPi34J1Pw94i0y31bRtWhMN1azA7ZFyCCCMFWVgGVlIZWUMpBANervHvBrPv9PEinNXCpKElODs1qmt0+6IqU41IOE0mmrNPVNPdNdj8H/29v+CcXiH9j3XJdU083WueBLmXbb6iUBmsSx+WK52gAN0AkACuccKTtr5pJ7elfZv/AAWN/b+X9oXx7L8PvBt9u8E+HLj/AEu7gf5davEONwYfehjPC9mYF+RsI+J7DUPOxHKcSjv0Df8A16/qjhbFY+rl9OWZq1Rr0bXTmXSXf/M/jrjHCZbSzOrHKG3ST9Un15X1iul/xVmW6KKK+lPkwooooAKKKKACiiigAooooAKKKKACiiigAoor0v8AZW/ZN8Z/th/E+38L+DtPNxMdr3t7NlLPTIScGWZwDtXrgDLMRhQTxWOIxFKhTlWrSUYxV23okjfDYariKsaFCLlOTsktW2Zf7PH7Ovi39qX4o2PhDwZpcmp6te5d2OVgsoQQHnmfpHEuRlj1JVQGZlU/uV/wT+/4J1eE/wBhHwRItkU1rxlqsSpq2uyx7ZJRkN5EI58uAMAdoOXIBYnChel/Yp/Ym8IfsO/ClPDvhuH7VqN5sl1nWZowt1q84BwzYzsjXLCOIEqgJ5Zmd39ir+d+M+OauaSeFwrcaC+Tn5vy7L5vXRf1BwJ4e0cnhHGYxKWIfzUL9F3feXyWl2yiiivz0/TQooooAKD0NFB6GgCtP0NZt/0NaU/Q1m3/AENAHNa33rifEn3Hrttb71xPiT7j0AfL/wC3t/yS/T/+wvH/AOiZq+Ta+sv29v8Akl+n/wDYXj/9EzV8m1/Qnhx/yJo/4pH8y+Kf/I9l/hj+QUUUV94fnIUUUUAFFFFABRRRQAUUUUAFFFFABRRRQAUUUUAfqt/wTb/5Ms8F/wDb9/6X3Fe5V4b/AME2/wDkyzwX/wBv3/pfcV7lX8r8Rf8AI1xP/Xyf/pTP7E4Y/wCRPhP+vVP/ANIQUUUV457gUUUUAFFFFABRRRQAUUUUAFFFFABRRRQAUUUUAFFFFABRRRQAUUUUAFFFFABRRRQAUUUUAFFFFABRRRQAUUUUAFFFFABRRRQAUUUUAFFFFABRRRQAUUUUAFFFFABRRRQAUUUUAFFFFABRRRQAUUUUAFFFFABRRRQAUUUUAFFFFABRRRQAUUUUAFFFFABRRRQAUUUUAFFFFABRRRQAV+eP/Ba//go8PhL4aufhH4Lv9vinWoANevIH+bSrR14gUjpNKp57rGfV1K+//wDBSz9vfTv2Gvgo91btBd+NtfV7fQLB8MA4HzXMg/55RZBI/iYqvGSV/BXxV4q1Lxx4m1DWdYvbjUdV1W4e6u7qdy8txK7Fmdj3JJJr9U8O+EfrdRZni4/u4v3U/tSXX0X4v0Z+O+KHG31Kk8pwUv3s177X2Yvp/ikvuWvVMzZYvMGe9ULq0yc960qZLFvHvX7tOFz+c6dRplSw1E7xFMfm6K3972PvV6s66tNwIPJpbPUjCwjmJx0Dnt9f8amFRr3ZFzpqXvQ+40KKKK6DmCiiigAooooAKKKKACiiigAooooAK/SX/gj5/wAFQvAHwL8Kaf8AC3xhoWmeD0vLwmLxRbfLb3csh4OoFiWRgcKJsmNVKArEiFz+bVFeRnmSYfNcK8Jib2eqadmn0fZ+juj3OH+IMVk+MWNwluZaNNXTXVd1fummf1AaTq1rr2l219Y3Nve2V7Es9vcQSCSKeNgGV0ZchlIIIIOCDmrFfgd+wx/wVH+If7Et9Fp9vO3inwS3yyeHtQuH8q2BkLs9o/P2dyWfOAUYuxZGbay/s1+yf+2n8P8A9s/wW+seCdXM01rgX2l3YWHUdOYjIEsQJ+U9nUsjEMAxKsB/O3E3BmOyiTnJc9LpNf8Aty6P8H0Z/UPCfHmX53FU4vkrdYN/+kv7S/FdUer0UUV8efbhRRRQAUHoaKD0NAFafoazb/oa0p+hrNv+hoA5rW+9cT4k+49dtrfeuJ8SfcegD5f/AG9v+SX6f/2F4/8A0TNXybX1l+3t/wAkv0//ALC8f/omavk2v6E8OP8AkTR/xSP5l8U/+R7L/DH8gooor7w/OQooooAKKKKACiiigAooooAKKKKACiiigAooooA/Vb/gm3/yZZ4L/wC37/0vuK9yrw3/AIJt/wDJlngv/t+/9L7ivcq/lfiL/ka4n/r5P/0pn9icMf8AInwn/Xqn/wCkIKKKK8c9wKKKKACiiigAooooAKKKKACiiigAooooAKKKKACiiigAooooAKKKKACiiigAooooAKKKKACiiigAooooAKKKKACiiigAooooAKKKKACiiigAooooAKKKKACiiigAooooAKKKKACiiigAooooAKKKKACiiigAooooAKKKKACiiigAooooAKKKKACiiigAooooAKKKKACiiigArh/2jf2g/Dn7Lvwe1nxr4puvs+maTFlY1I868mPEcEQP3pHbgDoOScAEjr9a1q08N6Pd6jqF1BZWFhC9xc3E7hIoI0Uszsx4ChQSSeABX4Tf8FS/+Cg15+238YjaaTNPB8PvDMrxaNbnKfbH+695Ip/ifHyg/cTAwCz5+s4R4ZqZzjFB6Uo6zfl2Xm/w1fQ+M434upZFgXUVnVndQj5935Lr3dl1PH/2rf2nfEf7Xfxs1bxr4lm/0m+by7W0RiYdOtlJ8u3jz/CoPJ/iYsx5Y15zRRX9P4ehToUo0aMeWMVZJdEj+RcTiauIqyr15OUpNtt7tsKKKK1ZgMkj3j3qldWucg1oU2SPeOetZThc1hUaM+zvmsyI5SSg4B7r/wDWrRDbgCDkHoapXVrkEVDaXT6e2x8tEfzX6VnGbhpLY1nBTXNHc1KKRHEihgdwPQilrpucrCiiigAooooAKKKKACiiigAooooAK6D4V/FbxH8EfH2m+KPCmr3mh6/pEomtbu2YBkPdWByrowyrIwKupKsCCQefoqakIzi4TV09GnqmvMunVnTmqlNtNaprRprqmfsJ+wB/wXE8O/F2Cx8K/FySy8J+J0iWKLXi3l6Zq8m7H7wYxayFSpJY+UxDkNHlI6/QSv5d6+wf+Cfn/BXzxp+x89j4a8Qifxj8OxPGHtJpC9/o8IBVvsUjMFCgbW8l/kJjwpiLu5/H+KvDSM+bFZRo93Do/wDC+no9OzWx+48H+LMocuDzvVbKot1/jS3/AMS17p6s/ceiuA/Zx/af8E/tXfD228S+CdbttVtJEU3FvuC3mnSHI8q4izuifKtjPDAblLKQx7+vxavQqUajpVYuMlo01Zr5H71h8RSr041qMlKMldNO6a8mFB6Gig9DWRsVp+hrNv8Aoa0p+hrNv+hoA5rW+9cT4k+49dtrfeuJ8SfcegD5f/b2/wCSX6f/ANheP/0TNXybX1l+3t/yS/T/APsLx/8Aomavk2v6E8OP+RNH/FI/mXxT/wCR7L/DH8gooor7w/OQooooAKKKKACiiigAooooAKKKKACiiigAooooA/Vb/gm3/wAmWeC/+37/ANL7ivcq8N/4Jt/8mWeC/wDt+/8AS+4r3Kv5X4i/5GuJ/wCvk/8A0pn9icMf8ifCf9eqf/pCCiiivHPcCiiigAooooAKKKKACiiigAooooAKKKKACiiigAooooAKKKKACiiigAooooAKKKKACiiigAooooAKKKKACiiigAooooAKKKKACiiigAooooAKKKKACiiigAooooAKKKKACiiigAooooAKKKKACiiigAooooAKKKKACiiigAooooAKKKKACiiigAooooAKKKKACiiigAoor4t/4K/f8FG1/ZM+G58G+FbwD4ieKbY7JY2+bRLRsqbg+kjYZYx2IZ/4QG9HKsrr5jioYTDK8pP5JdW/JHl5znGGyzBzxuKdoxXzb6Jebei/yPnP/gtz/wAFIP8AhLNTvPgx4Jv86ZYS7PFF9A/F3MpyLJSP4EYZk9XAXgKwb81adNM9xK8kjtJJISzMxyWJ6knuabX9T5FktDKsHHCUFtu+sn1b/rRWR/HfEWf4nOMdPG4l6vRLpGPRL0/F3fUKKKK9g8MKKKKACiiigBrpvHNVLm26g1dprpvGDWU4msZ2MuC4fTpO7Rnqv9R71qRSrNGHVtynoRVW4tuDnmqqSPp8hZeVPVex/wDr1nGbho9jeUVUV1ua1FR29wt1EHQ5B/MH0qSum99UcjTTswooooEFFFFABRRRQAUUUUAFFFFABRRRQB2HwO+P3jH9m3x5B4l8E6/f+H9YhXy2lt2BS4jyGMUsbZSWMlVJRwVyoOMgEfsN/wAE/v8Agsp4Q/asex8MeMxZeCviDdTR2ttb7nOn63IynH2eRs+U5YbRDK2SXjCNIxIX8SaK+Y4j4TwOcU/365ai2mt16915P5NPU+u4X40zDI6t8PLmpt6wfwv0/lfmvmmtD+oig9DX4u/8E/v+C1Xir9m6Gw8K/ENb7xp4GtYhb20ysrarpCg5UI7EefEASojkYFRtCuqoIz+vPwe+NnhP9oHwJb+JfBmvaf4i0W6+Vbm1fPlvtDGORTho5AGUlHCsuRkCv574i4Vx2T1LYiN4PaS2f+T8n8rrU/pvhjjLL88pc2Glaovig/iX+a8187PQ6Cfoazb/AKGtKfoazb/oa+aPqzmtb71xPiT7j122t964nxJ9x6APl/8Ab2/5Jfp//YXj/wDRM1fJtfWX7e3/ACS/T/8AsLx/+iZq+Ta/oTw4/wCRNH/FI/mXxT/5Hsv8MfyCiiivvD85CiiigAooooAKKKKACiiigAooooAKKKKACiiigD9Vv+Cbf/Jlngv/ALfv/S+4r3KvDf8Agm3/AMmWeC/+37/0vuK9yr+V+Iv+Rrif+vk//Smf2Jwx/wAifCf9eqf/AKQgooorxz3AooooAKKKKACiiigAooooAKKKKACiiigAooooAKKKKACiiigAooooAKKKKACiiigAooooAKKKKACiiigAooooAKKKKACiiigAooooAKKKKACiiigAooooAKKKKACiiigAooooAKKKKACiiigAooooAKKKKACiiigAooooAKKKKACiiigAooooAKKKKACiiigAoorn/ir8UtD+Cnw61jxX4lv4tN0PQ7Zrq7uH/hUdFA6szHCqo5ZmAHJFXCEpyUIK7eiS6tkVKkacHUm7JK7b2SW7Z51+3P8AtlaF+xJ8C77xVqpju9VnzbaLpm/a+pXRHyr6iNfvO3ZR/eKg/wA/3xa+K2vfHD4kax4s8TX8upa5rtw1zdTv0JPRVH8KKAFVRwqqAOBXo/7d37aGu/tvfHO88T6kZbTR7XdbaJphfKadag8A44Mj/edu7cD5VUDxav6W4J4UjlGF56qvWn8T7L+VenXu/JI/k/xA4znneM9nRdqFN+6u76yfr07LzbCiiivtz8+CiiigAooooAKKKKACiiigBGXcMGqtxb8H3q3SMu4YNZziaRnYyV8yxlLoevUdjWlaXa3ce5TyOo7irGh+FNQ8Ya/ZaVpVldalqeozLbWtrbRNLNcSOcKiKoJZiTgAV+pn7J//AARF8NeDPgpqLfFK2Oq+MvE9oI5EtrjCeGkJV1SB1yr3AZVLyfMnHlqGj3tN83nnEmEyaEZ4p35npFat92l2XX7tz6vh/hXG59UlDCRS5VrJ6RXZN66vpbXrsj8sKK9p/bO/Yh8U/sb+Nvsupq2peHr6QjTNYijKw3I67HHPlygdUJ5wSCRzXi1e9gsbQxdGOIw0lKEtmv637rdHzmPwGIwVeWFxUHCcdGn/AFquzWjWqCiiiuo4wooooAKKKKACiiigAooooAKKKKACvSv2YP2uPHn7IPjyPXvBGtz2DNLG97p8jM+n6sqbgI7iEECRcO4B4dN7FGVua81orHEYelXpyo1oqUZaNNXTN8Niq2Hqxr0JOMo6pp2a+Z+6f7Bv/BWDwP8Atm2VnoeoPF4T+IZi/e6RcyAQagy9Ws5Cf3mRhvKbEi/NgOqGQ/TV/wBDX8yaStC6ujMrodyspwQR3FfoL+wt/wAFxtb8BvY+FfjI914i0Rnit4PEqjdf6ZGE2ZuEVc3SghGL/wCu/wBYT5zMqj8S4p8Np0r4nKfeju4dV/hfX0eva+x+/wDB/ivCty4TOnyy2VTo/wDEuj81p3SSufqFrfeuJ8Sfcet/w54/0X4p+D7HxB4d1Sy1rRdUj821vLSUSRTLkg4I7hgVIPKsCCAQRWB4k+49fkk4yjJxkrNbo/bITjOKnB3T1TWzR8v/ALe3/JL9P/7C8f8A6Jmr5Nr6y/b2/wCSX6f/ANheP/0TNXybX9BeHH/Imj/ikfzP4p/8j2X+GP5BRRRX3h+chRRRQAUUUUAFFFFABRRRQAUUUUAFFFFABRRRQB+q3/BNv/kyzwX/ANv3/pfcV7lXhv8AwTb/AOTLPBf/AG/f+l9xXuVfyvxF/wAjXE/9fJ/+lM/sThj/AJE+E/69U/8A0hBRRRXjnuBRRRQAUUUUAFFFFABRRRQAUUUUAFFFFABRRRQAUUUUAFFFFABRRRQAUUUUAFFFFABRRRQAUUUUAFFFFABRRRQAUUUUAFFFFABRRRQAUUUUAFFFFABRRRQAUUUUAFFFFABRRRQAUUUUAFFFFABRRRQAUUUUAFFFFABRRRQAUUUUAFFFFABRRRQAUUUUAFFFFACSSrDGzuwVUGWYnAA9TX4of8FhP+CjjftV/EVvBHhO9J+Hvhe5OZon+XXLtcqZzjrEnKxjocl+dyhfoz/gtv8A8FIf+EJ0i8+DPgnUP+JxqMWzxPfQPzZQOM/Y1I/5aSKcv/dQheS52/k3X7d4ccI8kVm2Mjq/gT6L+b1f2fLXqj+fvFTjf2kpZLgZe6v4jXV/yLyX2vPTo7lFFFfsR+GBRRRQAUUUUAFFFFABRRRQAUUUUAFb/wALfhb4h+NfxA0rwr4V0q61vX9amEFnZ24G+RsEkkkhVRVBZnYhUVWZiFBI1PgF+z94s/ab+Jtj4R8G6VNq2sXvzkL8sVrECA00z9I41yMse5AGWIB/cj/gnj/wTl8MfsH+BXMTQ63441eILq+uNHtJXIb7NADzHACAT/FIyhm6IqfIcWcX4bJqNtJVZL3Y/rLsvxey6tfccGcE4rPa99YUYv3p/wDtse8vwW76J8v/AME7f+CWHhv9ijQYNa1Y2niP4kXUOLrVNhaDTdy4aG0DAFVwSpkIDuM8Ip2D6X1LTBIDxya3iMiq89vuBzX82ZjmWJx1eWJxUnKT/qy7Jdkf1ZleV4XLsNHCYOCjCPT9W+rfVs8j+MnwW0L4veC9Q8PeJNLttX0bUo/LuLacHaw7EEYZWBwVZSGUgEEEA1+Mv7eX/BPXxD+xx4okvbc3OteBr6Yiw1QoDJbZPEFyFGFkHQOAFkxkBTlF/eLUdN3qeM5rh/iL8N9N8deHL7SdXsbbUtM1CJobm1uIxJFMh6hgete7wtxZicmrXh71OXxR/Vdn+ez6W+d4x4MwmfYe0/dqx+GfbyfeP5brrf8AnLor60/4KLf8E0dT/ZY1SfxR4Viu9V+H91J8+cyT6C5PEcp6tCScJL2PyPhtrSfJdf0plea4bMcNHFYSXNF/en1TXRr/AIOx/KOcZPi8rxUsHjIcsl9zXRp9U+/yeqaCiiivRPLCiiigAooooAKKKKACiiigAooooAQ9DVebrVg9DVebrWMjaB6d+y1+2v4+/Y68UNfeE9T3afdEm+0e83S6ffdBuaMEbXGBiRCrgDGSpZT+qn7LX/BQ/wABftlaKYdLuG0PxTCim50HUJUFyW2bna3IP+kRKQ43KAwCguiblB/FC66CqtjrV74b1a31DTru6sNQsZlntrm2laKa3kU5V0dSCrAgEEHIIr4XijhDB5onUtyVekl1/wAS6/mu/Q/RuEeN8dlDVK/PR6xb2/wvp+T7dT9kv29v+SX6f/2F4/8A0TNXybXNfCH9v7xV+0j4Gh8C+L4IdR1LRmGoxa2pEc1zGmY/LmjA2s/74fOu3ITkFiWPS1rwbldfL8u+rYi11KW2qa6P/h9THjrOMPmeZ/W8NflcY7qzTtqn6eV0FFFFfVnxoUUUUAFFFFABRRRQAUUUUAFFFFABRRRQAUUUUAfqt/wTb/5Ms8F/9v3/AKX3Fe5V4b/wTb/5Ms8F/wDb9/6X3Fe5V/K/EX/I1xP/AF8n/wClM/sThj/kT4T/AK9U/wD0hBRRRXjnuBRRRQAUUUUAFFFFABRRRQAUUUUAFFFFABRRRQAUUUUAFFFFABRRRQAUUUUAFFFFABRRRQAUUUUAFFFFABRRRQAUUUUAFFFFABRRRQAUUUUAFFFFABRRRQAUUUUAFFFFABRRRQAUUUUAFFFFABRRRQAUUUUAFFFFABRRRQAUUUUAFFFFABRRRQAUUUUAFfMH/BUb9v8Atf2IPgvs0ySKfx74nSSDQ7dgHW2AAD3cgPG2PcNoP33IGCAxH0/Xz1+31/wTm8Jft8eGtOTV7690DxHoSyLpmr2kayGNZMbo5o2x5sWQG2hlYEHDAMwb2MhngY4+lLMr+yT1tr6XXa9r21seJxJDMZ5bVhlVvbNWjd29bPZO17X0va5+A2u67e+KNbvNT1K6uL7UNQne5ubmdy8s8rsWZ2Y8lixJJPUmqtfol44/4N0PiFYXzL4b+IHg3VrYdJNThudPkP8AwGNJwP8AvqvNvHH/AAQj/aB8JzlLDTPDHidQM79M1mONT7f6SITn8MV/SOH4xyOokqeJivV8v52sfypiuBuIaTbqYWb9Fzf+kt3Pjaivobxp/wAEof2h/ANskt98L9cuFk6DTp7bUmH1W2kkI/EV514o/ZK+KvgjTHvta+GfxA0myjO1ri88PXkEKn/faMD9a9ejm+BrW9jWhK/aSf5M8TEZLmFC6r0Jxt3hJfmjz6in3FvJaTNHKjxyIcMrqVZfqDTK9C55rCiiigQUUUUAFFFFABXov7L37LPjH9rz4qWfhLwdp5urybD3V1LlbTTYc4aedwDtQfQsxwqhmIB6P9iH9hzxf+3N8VU0Dw8hsdIsikuta5NEXtdJhJPJGR5krYIjiBBcgklUV3T92f2Xv2VPBn7IPwxtvC3gzTfstsmHu7uUh7zU5sYM08gA3OfQAKo4VVXAr4PjHjajlEHh6FpV2tukfOX6Ld9bLf8AR+BuAK+dzWJxF4YdPV9ZW3Uf1lstld3thfsTfsReEP2G/hSnh7w5F9s1S92y6zrU8QW61ecA4ZsZ2RLlhHECQgJOWdnd/ZKKK/nPF4utia0q+Ik5Tk7tvr/X4H9SYPB0MJQjhsNFRhFWSWy/rq929XqFBGRRRXOdJBPBkGszUNOEgPHJraIyMGoJrfcDQBwHizwhb61p1zaXVvDdWt1G0U0MqB45UYYZWU8FSCQQeCDX5Pf8FIv+CWV18F/7Q8dfD20mu/Cce641LS0BebRl6tLH3e3HVupjHJygYp+x1/p+8E9a5vW9DEobjmvoOHuI8Xk+I9th3eL+KL2kv0fZ9PS6fzXE/C2DzzCuhiVaS+GS3i/1XdbPydmv5tKK/RD/AIKQf8Enn0qS/wDHXwt00mH5p9T8O20f3O7S2iDt3MI6fwDGEH531/S+R59hM2wyxGFl6p7xfZr8ns+h/J3EXDmNybFPC4yPpJbSXdP81uuoUUUV7J4IUUUUAFFFFABRRRQAUUUUAIehqvN1qwehqvN1rGRtApXXQVl3fRq1LroKy7vo1cNfY9Kh0PTP2Lf+Srah/wBgqT/0dDX09XzD+xb/AMlW1D/sFSf+joa+nqmh8BeI+IKKKK2MAooooAKKKKACiiigAooooAKKKKACiiigAooooA/Vb/gm3/yZZ4L/AO37/wBL7ivcq8N/4Jt/8mWeC/8At+/9L7ivcq/lfiL/AJGuJ/6+T/8ASmf2Jwx/yJ8J/wBeqf8A6Qgooorxz3AooooAKKKKACiiigAooooAKKKKACiiigAooooAKKKKACiiigAooooAKKKKACiiigAooooAKKKKACiiigAooooAKKKKACiiigAooooAKKKKACiiigAooooAKKKKACiiigAooooAKKKKACiiigAooooAKKKKACiiigAooooAKKKKACiiigAooooAKKKKACiiigAooooAKKKKAIdQ0+DVrKW2uoIbm3nUpJFKgdJFPUEHgj2Ned6n+xl8H9auGmvPhT8NrqZ+skvhmydz+JjzXpVFb0sTWpfwpuPo2vyMK+FoVre2gpW7pP8AM+bfEX/BIX9nLxRfPc3Pwy0+OSRixFpqV9Zxgk9khmVQPYDArz3xx/wQQ+Aviy/eawTxn4YjbGINM1cSRr9DcxzN+bV9qUV61HifN6TvDEz+cm19zbR4uI4SySsrVMJT+UIp/ekmfnR4+/4NzPAuoiP/AIRf4ieLdHIU7/7VtLfUtx7EeWLfA9ufrXnnjL/g3A16x0rf4f8AitpOqX27/VajoclhFj18xJpjn22V+rVFerR8QM+pWSr3S7xi/wAbX/E8XEeGnDlW7eGs32lNfgpW/A/Gp/8Ag3h+NSk48T/DBhn/AKCN8D/6R12Hwb/4N0vFl54kV/iF498PafpEMkbNF4eSa8ubtN37yMPPHEsLFeFfbKATkoQMH9ZaK66viVnk4OKnFX6qKv8Ajc4qPhTw9Cam6cpW6OTt87Wf4nFfs/fs9+E/2YPhhY+EfBmlRaXpFll2A+aa7lIG+aZzzJI2Blj2CqMKqgdrRRXw1atOrN1KrcpN3berb8z9DoUadGnGlSioxirJJWSS6JBRRRWZqFFFFABQRkYNFFAEM0Oc1nX1iJAeM1rkZGDUM0Oc0AcZrOhiUHjmvzz/AOClf/BKpPiPcah4++HNnHb+JX3T6po8QCRaserTQjotwerL0kPzcOWMn6X3tj5gPGa5/V9G8wN8pz9K9bJs6xWV4lYrCSs1uujXZrqvy3Wp42fZDg83wrwmMjdPZ9Yvun0f57O6P5sr2yn028mtrmKWC4t3McsUiFHjYHBVgeQQRgg9Kir9cf8AgpB/wS/sv2irO68W+DobbTPH1uu6WLIit9eUD7kh6JNj7kh4P3X4KvH+TfiPw5qHg/XrzStVs7rTtS0+VoLm2uIzHLA6nBVlPIINf0tw1xPhc5w/tKLtNfFF7p/qn0f5PQ/k/izhLGZFifZV1zQfwzW0l+jXVfddWZSooor6Q+UCiiigAooooAKKKKAEPQ1Xm61YPQ1Xm61jI2gUrroKy7vo1al10FZd30auGvselQ6Hpn7Fv/JVtQ/7BUn/AKOhr6er5h/Yt/5KtqH/AGCpP/R0NfT1TQ+AvEfEFFFFbGAUUUUAFFFFABRRRQAUUUUAFFFFABRRRQAUUUUAfqt/wTb/AOTLPBf/AG/f+l9xXuVeG/8ABNv/AJMs8F/9v3/pfcV7lX8r8Rf8jXE/9fJ/+lM/sThj/kT4T/r1T/8ASEFFFFeOe4FFFFABRRRQAUUUUAFFFFABRRRQAUUUUAFFFFABRRRQAUUUUAFFFFABRRRQAUUUUAFFFFABRRRQAUUUUAFFFFABRRRQAUUUUAFFFFABRRRQAUUUUAFFFFABRRRQAUUUUAFFFFABRRRQAUUUUAFFFFABRRRQAUUUUAFFFFABRRRQAUUUUAFFFFABRRRQAUUUUAFFFFABRRRQAUUUUAFFFFABRRRQAUUUUAFFFFABRRRQAUUUUAFFFFABQRkYNFFAEUsOQaoXlnvBrU68GopYs0Acjq+jiQNkc18jf8FBv+Cbui/tZaJJqum/ZtF8d2UWLXUCpEV6AOIbjaMlewcAsnowyp+2Lyz3g1h6po/mKciu7LsyxGBxEcThZcso9f0fdPqjz80yvC5jhpYTGQUoS6fqn0a6NH84PxE+HWufCbxpqPh3xJpt1pGtaVKYbm1nUBkPUEEZDKwIZWUlWUhgSCDWLX7g/t0/sC+HP2vfB5S6VNM8UafGRpmsRx5ki6nypB/HESSdp5UklSCTn8a/jf8AA7xL+zv8RL3wv4r0+TT9Us/mX+KK6iJIWaJ+jxtg4I7gggMCB/SXCfGGHzmly/DWivej+se6/FbPo3/KnGnBGKyKtzK86En7sv8A22XZ/g911S5KiiivsD4YKKKKACiiigBD0NV5utWD0NV5utYyNoFK66Csu76NWrc9M1l33AIrhrnpUHsel/sXDHxW1D30qT/0dDX09XzF+xf/AMlV1D/sFSf+joa+namh8JeI+IKKKK2MAooooAKKKKACiiigAooooAKKKKACiiigAooooA/Vb/gm3/yZZ4L/AO37/wBL7ivcq8N/4Jt/8mWeC/8At+/9L7ivcq/lfiL/AJGuJ/6+T/8ASmf2Jwx/yJ8J/wBeqf8A6Qgooorxz3AooooAKKKKACiiigAooooAKKKKACiiigAooooAKKKKACiiigAooooAKKKKACiiigAooooAKKKKACiiigAooooAKKKKACiiigAooooAKKKKACiiigAooooAKKKKACiiigAooooAKKKKACiiigAooooAKKKKACiiigAooooAKKKKACiiigAooooAKKKKACiiigAooooAKKKKACiiigAooooAKKKKACiiigAooooAKKKKACiiigAooooAKKKKACjrwaKKAIpYs1TurTepGK0evBqOSLP40ActqulbwQRXgv7Yn7GXhf8Aa0+Hz6N4gt/JvbTdJpmqQoDc6ZKQMsp/iRsKHjPDBR0ZVZfpa7tN4OaxdR0rerZFdGFxdbDVY16EnGUXdNbr+vxObGYOhi6MsPiYqUJKzT2f9dOz1R/PN+0z+zB4q/ZT+Is3h7xPaFd2Xsr6IE22oxA48yNj9RlTypOCOmfO6/f79pn9mDwv+0r8O7vw14q0/wC1Wc3zwzxkJc2MuCFmhcg7XXPoQRkMGUlT+MP7Yf7F/ir9jrx4dO1lDf6LeOx0zWIYysF8g7EZPlygfejJOOoLLhj/AEVwdxvRzaCw+ItGuunSXnHz7r5rTb+XuOvD+vks3isLeeHb36w8peXaXydna/j9FFFffH5qFFFFAAeQR61Xn7VYqvN0rGRrEpXIO2sy9GS1atzyDWbeKefeuKsejQZ6T+xgP+Lq6h/2CpP/AEdDX05XzL+xouPirqB9dKk/9HQ19NVNH4TSu/eCiiitTEKKKKACiiigAooooAKKKKACiiigAooooAKKKKAP1W/4Jt/8mWeC/wDt+/8AS+4r3KvDf+Cbf/Jlngv/ALfv/S+4r3Kv5X4i/wCRrif+vk//AEpn9icMf8ifCf8AXqn/AOkIKKKK8c9wKKKKACiiigAooooAKKKKACiiigAooooAKKKKACiiigAooooAKKKKACiiigAooooAKKKKACiiigAooooAKKKKACiiigAooooAKKKKACiiigAooooAKKKKACiiigAooooAKKKKACiiigAooooAKKKKACiiigAooooAKKKKACiiigAooooAKKKKACiiigAooooAKKKKACiiigAooooAKKKKACiiigAooooAKKKKACiiigAooooAKKKKACiiigAooooAKOvBoooAjkiyKp3FruBHrWhUcsWRQBzWp6ZuByM15t8b/gXoHxt8C3/hzxNpkOqaTqC7ZIpBgqezow5R1PIYYINex3NrvBzyayNQ03epGM1pTqzpzVSm2mtU1o0/IzrUoVYOnUinFqzT1TT6NH4Pft1/sA+Iv2NvFhuF8/WfBWoyldO1YJ80ROSLe4A4SUDoR8sgGVwQyJ8/V/RT8S/hjpXxE8Lahomt6fbappWpxGG5tZ03xzKexHqDggjkEAjBGa/H3/goV/wTc1f9k/VZ/Efh9LrV/AF1KAJyC82jsxwsU+OqEkBZehJCthiu/wDfuCuPYY9RwWPaVbZPZT/yl5bPp2P5r4+8OJ5a5ZhlqcqG7ju4f5x89117nyxRRRX6cfkYVBMODU9RTDrWUtjSLKc44NZ90vGeuK0pQap3Eecg965aqO6jI9F/Y5Tb8Ur8/wDULk/9HQ19LV83fsfpt+J9/nqNLk/9Gw19I1nT0RtUd2FFFFWZhRRRQAUUUUAFFFFABRRRQAUUUUAFFFFABRRRQB+q3/BNv/kyzwX/ANv3/pfcV7lXhv8AwTb/AOTLPBf/AG/f+l9xXuVfyvxF/wAjXE/9fJ/+lM/sThj/AJE+E/69U/8A0hBRRRXjnuBRRRQAUUUUAFFFFABRRRQAUUUUAFFFFABRRRQAUUUUAFFFFABRRRQAUUUUAFFFFABRRRQAUUUUAFFFFABRRRQAUUUUAFFFFABRRRQAUUUUAFFFFABRRRQAUUUUAFFFFABRRRQAUUUUAFFFFABRRRQAUUUUAFFFFABRRRQAUUUUAFFFFABRRRQAUUUUAFFFFABRRRQAUUUUAFFFFABRRRQAUUUUAFFFFABRRRQAUUUUAFFFFABRRRQAUUUUAFFFFABRRRQAUUUUAMkjzVS5ts596vUySPIoA57UtN3A8ZzXKeLfB9rr+lXVle2sF5Z3kTQTwTxiSKeNgQyMpyGUgkEHgg4r0K4t9wINZd7p2/IpptO6E0mrM/Gv/go5/wAEu7z4CTX3jXwHbXF94MJM17YLmSbRB1LDqXgH945KD72QN1fFlf0j6xoC3KOjqrKwwQRkEelfmB/wUm/4JOv4UbUPHvwt05m00brjVfD1uhJtO7TWqj/ln3MQ+5/B8vyp+38E+ICq8uAzSXvbRm+vlLz7Pr111f8APvH/AIaOjzZlk8bx3lBdPOK7d49Ommi/PemSjP40+kYZBr9cZ+IxZUlXrVaePdz61dlXP41BIvX3rGSOiEj0T9kdNvxLvj/1DJP/AEbFX0XXz3+yfHt+I96fXTX/APRsVfQlY2sdPNfUKKKKACiiigAooooAKKKKACiiigAooooAKKKKACiium+Fnwd8TfGrxJHpXhnSL3VbpmUSNFGTFbBjgPK/3Y1/2mIFZ1a0KUHUqNKK3b0SNaNGpWmqVKLlJ7JK7foj9MP+Cbf/ACZZ4L/7fv8A0vuK9yrlfgf8K7T4I/CTQPClkVeLRbRYXlUMonlOWllwSSu+RnfGSBuwOAK6qv5UzfEwxGOr4in8M5ykvRybR/ZGS4Wphsuw+Gq/FCEIv1UUn+KCiiivOPTCiiigAooooAKKKKACiiigAooooAKKKKACiiigAooooAKKKKACiiigAooooAKKKKACiiigAooooAKKKKACiiigAooooAKKKKACiiigAooooAKKKKACiiigAooooAKKKKACiiigAooooAKKKKACiiigAooooAKKKKACiiigAooooAKKKKACiiigAooooAKKKKACiiigAooooAKKKKACiiigAooooAKKKKACiiigAooooAKKKKACiiigAooooAKKKKACiiigAooooAKKKKAGSR5FV57bcKt01kyKAMa7sN2e+ayb/Rw2eK6mSHOe+aqzWe7IoA/ND/gph/wSOHjf+0PiD8LrFYdd+a41bQIVCx6l3aa2A4Wfu0fSTquHyJPy7ubaWyuZIZo5IpoWKOjqVZGBwQQeQQe1f0zXGmBsgivhv/gpl/wSZtP2jra98a+ALe2074gRKZbqzysNv4gwOhJwsdx6OcKx4cjO9f1zgrj90eXAZnK8NozfTyl5dn066bfiXH/hqq/NmWURtPeUF9ru4r+buuvTXf8AHaRP1qJ4+vrWr4h8PX/hPXLzS9VsrvTtS0+Zre6tbmJopreRThkdGAKsCCCCMg1QaP8AGv266kuaJ/P7vFtNWseh/sqLt+Il7/2Dn/8ARsVfQFeB/stLt+IN51/5B7/+jYq98rCe5003eIUUUVBoFFFFABRRRQAUUVreEfAeu/EC/e00HRtW1u6jXe0NhaSXMir6lUBIHvUzqRhFym7JdWXCEpyUIK7fRasyaK+gvh//AMEyPi1452vcaTYeHbeSMSJLqt6qbs/wlIvMkVvZkFe5+AP+COWlW+2TxV4y1G8LxjMGlWqW3lP3/eyeZvX/AIApr5rHcZ5PhbqddSfaPvfldfe0fV5fwLnmMs6eHcV3l7v/AKVZv5JnwVWx4P8Ah/r/AMQryW20DRNY1y4hXfJFp9nJdOi+pCAkD3Nfqf4A/YI+E3w7w9v4O07UpzGI3l1UtqHmY/i2Slo1Y+qqteuWNhBpdnFbW0MVvbwKEjiiQIkajoABwAPQV8fjvFOhG6wlBy85NL8Ff80fc5f4PYiVnjcQo+UU5fi+W33M/MHwD/wTB+LXjbL3WmaZ4chaMSJJqt8o8zP8OyESOreodV/Ovc/AX/BHLRrXL+KPGWqX++IYh0u1jtPKk7/vJPN3r2HyKe/tX2hRXx2O8Q85xGkJqmv7q/V3f3NH3GX+GWRYaznB1H3k/wBI8q+9M8i8BfsH/Cb4ebmtfBel300kaxySaoG1Dfj+ILMWRWJ6lFX8uK9atbWOxto4IY0hhhUJHGihVRQMAADgADjAp9FfI4rHYnEy5sRUlN/3m3+Z9rg8vwuEjyYWlGC/upL8kFFFFcp2BRRRQAUUUUAFFFFABRRRQAUUUUAFFFFABRRRQAUUUUAFFFFABRRRQAUUUUAFFFFABRRRQAUUUUAFFFFABRRRQAUUUUAFFFFABRRRQAUUUUAFFFFABRRRQAUUUUAFFFFABRRRQAUUUUAFFFFABRRRQAUUUUAFFFFABRRRQAUUUUAFFFFABRRRQAUUUUAFFFFABRRRQAUUUUAFFFFABRRRQAUUUUAFFFFABRRRQAUUUUAFFFFABRRRQAUUUUAFFFFABRRRQAUUUUAFFFFABRRRQAUUUUAIVzTHiz1qSigCs8H41DJaA5PerxTNNMf40AfHv/BSX/glxon7Zugy+INCFronxIsYdsF6V2QasqjCwXOB1AACycsvAOVAA/Fb4ifDvXPhL431Lw34l0y70bXNHmMF3Z3KbZIWwCPYqQQwYEqykEEgg1/TUYN3bmvnL/goL/wTh8L/ALdHgcNKINF8b6XCV0nXEjywHJ+zzgcyQEknHVCSy9XV/wBL4M47nl7jgsc3Kj0e7h/nHy6dOx+T8e+HUMzUsflyUa+7Wyn/AJS89n17r8UP2Xv+R/vP+we//oyKveK828KfAjxT+zb+0VrnhHxhpc2lazp1i+5G5jnjMse2WJ+jxtjhhx1HBBA9c8K+DNZ8damLLRNJ1PWb0jd5FjavcS49dqAnFfucsRSlBVoyTi1e99Ld79j+eKeHrRm6EoNTTs1Z3v2tvczKK98+Hf8AwTU+LXj/AMmSXRLbw9azpvWfV7pYcezRpvlU+zIK9z+Hn/BHKyi8mXxZ4yu7jdH+9tdJtVh2P/szS7tw+sQNfN47jHJ8LdVK6b7R978rpfNo+sy/gbPMZZ08PJLvL3V6+9Zv5JnwhWr4S8D634+1E2ehaPqutXirvMFhaSXMgX12oCce9fqb8PP+Cfvwl+HPlSQ+ErTVrqOPy2n1Z2vvN/2jHITEG91QV69pOkWug6dDZ2Nrb2VpbrsiggjWOOJfRVUAAewr4/HeKeHjdYSi5ecml+Cvf70fcZf4P4mVnjcRGPlFOX4vlt9zPy++Hv8AwTN+LXjzy5J9Gs/DttNH5iTateLH/wABMce+VW9mQV7n8Pv+COWnQeXL4r8ZX11uj+e20m1W38t/aWTfuX/tmpr7Wor47HeImcYi6hJU1/dX6u7+6x9xl/hhkeGs6kJVH/ef6RsvvueN/D79gL4S/DrY8HhCx1S5WPy3m1Zmv/N/2jHITEG91QV67pumW2i2ENpZ28Fpa267IoYYxHHGvoqjgD2FT0V8li8wxOKlzYmpKb823+Z9tg8twmEjy4WlGC/upL8gooorjO0KKKKACiiigAooooAKKKKACiiigAooooAKKKKACiiigAooooAKKKKACiiigAooooAKKKKACiiigAooooAKKKKACiiigAooooAKKKKACiiigAooooAKKKKACiiigAooooAKKKKACiiigAooooAKKKKACiiigAooooAKKKKACiiigAooooAKKKKACiiigAooooAKKKKACiiigAooooAKKKKACiiigAooooAKKKKACiiigAooooAKKKKACiiigAooooAKKKKACiiigAooooAKKKKACiiigAooooAKKKKACiiigAooooAKKKKACiiigAooooA5Xx/8DvB3xV1jTNQ8S+GdF1290cSLaS31okzQq4AdPmByhwCVOVyqnGVBHQaLodl4b0yGy06ztbCztxtigtoliijHoqqAAPpVqitZV6koKnKTcVsruy9EYxw9KM3VjFKT3dld+r3YUUUVkbBRRRQAUUUUAFFFFABRRRQAUUUUAFFFFABRRRQAUUUUAFFFFABRRRQAUUUUAFFFFABRRRQAUUUUAFFFFABRRRQAUUUUAFFFFABRRRQAUUUUAFFFFABRRRQAUUUUAFFFFABRRRQAUUUUAFFFFABRRRQAUUUUAFFFFABRRRQAUUUUAFFFFABRRRQAUUUUAFFFFABRRRQAUUUUAFFFFABRRRQAUUUUAFFFFABRRRQAUUUUAFFFFABRRRQAUUUUAFFFFABRRRQAUUUUAFFFFABRRRQAUUUUAFFFFABRRRQAUUUUAFFFFABRRRQAUUUUAFFFFABRRRQAUUUUAFFFFABRRRQAUUUUAFFFFABRRRQAUUUUAFFFFABRRRQAUUUUAFFFFABRRRQAUUUUAFFFFABRRRQAUUUUAFFFFABRRRQAUUUUAFFFFABRRRQAUUUUAFFFFABRRRQAUUUUAFFFFABRRRQAUUUUAFFFFABRRRQAUUUUAFFFFABRRRQAUUUUAFFFFABRRRQAUUUUAFFFFABRRRQAUUUUAFFFFABRRRQAUUUUAFFFFABRRRQAUUUUAFFFFABRRRQAUUUUAFFFFABRRRQAUUUUAFFFFABRRRQAUUUUAFFFFABRRRQAUU2aYW8LyPnbGpY4BY4A9Byfwrwm4/4KZ/BG0nkil8atHLExR1bRtQBUg4II8jrmuzCZdi8Vf6rSlO2/LFu3rZM4cbmmDwdvrdaNO+3NJRvbe12r2PeKKz/CfivT/HPhmw1nSbpL3TNUgS5tZ0BCyxsMqwBAIyD0IBrQrlnFxbjJWaOyM4yipRd09mFFYfxI+JWifCLwZe+IfEd+um6Rp4DT3DRvJsywUYVAWYkkDABNeZeEf+Ch3wf8d+J7DRtJ8XPe6nqc629tAmkX4MsjHAGTCAPqSAO9dmHy3GV6bq0KUpRW7UW0uurSstDixObYHD1VRxFaEJy2UpJN30Vk3d66HtNFeZ/GX9sT4c/s/eI4NI8X+I/7J1G4gFzHF9gurjdGSQGzFGwHIPBOa3/g38dfCv7QHhqbWPCOq/2vp0E5tnm+zTW+2QAErtlRW6Ec4xUzy7FworEzpSVN7ScXyv52sOGaYOdd4WFaLqLeKkuZesb3/A62iiiuM7gooooAKKKKACiiigAooooAKKKKACiivM/jL+2J8Of2fvEcGkeL/Ef9k6jcQC5ji+wXVxujJIDZijYDkHgnNdGGwtfET9nh4Ocu0U2/uRzYvG4fC0/a4mpGEe8mkvvdkemUVyXwb+OvhX9oDw1NrHhHVf7X06Cc2zzfZprfbIACV2yordCOcYrraitRqUZunVi4yW6as16pmlDEUq1NVaMlKL2aaafo1owooorI1CivHPjJ+3v8Lfgdqk2nax4ljudVtyRJZafE13LGR1Vio2I3szA15nbf8FjvhVPfGF9O8awx5x572EBj+uFnLf8Ajte3h+G81r0/a0sPNxfWz19L7/I+fxXFeT4ao6VbEwUluuZaettvmfV9FeafBT9sD4dftBXBtvDHiW1u9QA3GxnR7a6wBk4SQAuB3K5A9a9LrzMTha2HqOliIOMl0aaf3M9jC4yhiqarYaanF9YtNfegooqNr2FLtLdpoxPIpdIywDsoIBIHUgEjJ9xWB0N2JKKKKQBRRRQAUUUUAFFFFABRXi/jH/goX8H/AAB4q1DRNX8X/ZNU0udra6h/sq9k8qRTgruWEqcHuCRXqvgzxhp3xB8J6drmkXP2zS9Wt0urSfy2j82NxlW2sAwyD0IBrsxGXYuhCNSvSlGMtm4tJ9dG1rocOGzTB4mpKlh60ZyjuoyTa6apO617mnRXkHxG/b1+E/wl8a3/AId8Q+K/7P1nTGVLm3/sy8l8ssocDckTKflYHgnrXonw5+I+jfFrwZY+IfD97/aGkaipe3uPJki8wBipO11VhyD1Ap18uxdGlGtWpSjCWzcWk7q6s2rO619AoZpg69WWHoVoynG94qSbVnZ3Sd1Z6O/U26KKK4juCiiigAooooAKKKKACiiigAooooAKKKKACiiigAooooAKKKKACiiigAooooAKKKKACiiigAooooAKKKKACiiigAooooAKKKKACiiigAooooAKKKKACiiigAooooAKKKKACiiigAooooAKKKKACiiigAooooAKKKKACiiigAooooAKKKKACiiigAooooAKKKKACiiigAooooAKKKKACiiigAooooAKKKKACiiigAr8ev8Agor8Iz8E/wBqrxDawxGLTtZcatZ4UhdkuSwH0k3j8q/YWviL/gtb8Gjr3wo0Hxxawlrnw7cmyu3XOfs833SfYSAD/gdfd+HmafVM2jSk/dqrl+e8fx0+Z+deJ+U/XMllWgrypPmXptL8Nfkdf/wSG+Mn/Cwv2bpdAuJjJe+EbtrYBiMmCT54z9AS6/8AAa+rq/Jf/gkR8bh8Ov2qIdFuZhHY+MbVrBgehnX95EfzDL/wOv1orn49yz6nm9RxVo1PfXz3/G51eHGb/XsjpKTvKn7j+W3/AJK0fEH/AAWl+Mn9h+AfDXgq3lxNrNw2o3Sj/nlFwgP1ds/8Arxz/gj/APCI+P8A9oW78S3MRey8I2hkjYrlftMuUTB9Qu8/lXlP/BSP42/8Lh/a38TTwzebYaJINItNrZXbDkMR9ZC5r9A/+CU3wXPwo/ZQ0y/uYjHqXi2Q6tPkYby2G2Ef98AH/gRr7bHS/sXhKFBaVKqt856v7o6fcfn+Xr+3uNZ4h606LuvSGkfvl733nJf8FAP+CfvjX9qr4tafr3h3U/DFnZ2mnLZumo3M8cpcO7ZAjhcYww759q9O/YB/Zl8QfsrfCG+0DxFeaRe3t1qL3ivp0skkQQoigEyIhzlT2x718+f8FRv21/iV+zl8ctK0bwd4l/sfTrnSUuZIf7PtbjdIZHBbdLEzDgDgHFeyf8EvP2gfFv7RnwH1LWvGOrf2xqVvq0ltHN9lht9sYjQhdsSKvUnnGea+ZzGlm64cpTrTg8P7tkr827tfS34n1uWVskfFVaFCFRYn3uZu3Jsr21v6aH0nRXx9/wAFHP8AgpJcfsy6pH4O8HxWtx4snhE93dXCeZFpkbfcAXo8hHODkAYyDnFfGNn8dP2mPjpC2raTqnxZ1i2ZyDNoMN3Hb57gfZVCD6Vx5TwLjMZho4yrONKEtnJ6vzt2fS7/AAO3O/EXA4DFSwNKnOtUjuorReV+662Ttte5+x9Ffjx4X/4KDfHj9nfxWlnrOua9NNalTcaX4mtmld19G80CZcjuGBr9Nv2Q/wBqTSf2tfhBbeJtOj+x3cbm21GxLh2s7gAErnupBDKcDINcmf8AB+NyqmsRNqdN/aj+F/Xo9V5nbw3x1gM4qyw1NSp1VryyWrtvaz6dVo/I9Ror5f8A+Cqf7RnjH9mz4OeHdW8Gax/Y1/f6yLSeX7LBcb4vIlfbiVHA+ZQcgA8da8x/4JYftn/Ej9pH4xa9pXjPxH/bNjZaV9phi/s+1t9knmou7MUaE8E8E4rChwti6uVyzaMo+zjfS75tHba1vxOnE8Y4KjnEcllGXtJWs0ly6q+/Nf8AA+7qKK/Jj41f8FOfjZ4R+Mni3SbDxr9nsNL1m8tLaL+yLB/LijndEXLQEnCgDJJJ9ajh/hrFZxOcMNKKcEm+Ztb9rJmnE/FmEyOnTqYuMpKbaXKk9u92j9Z6K5j4J+I7zxf8HfC2q6jN9ov9S0q2ubiXYqeZI8SszYUADJJ4AAr4+/4KJf8ABUTVPgz43ufAvw+NomrWCganq0saz/ZZCM+VEjZUuARuZgQM4AzzXPlmQ4vMMY8FhknJXu+iSdm2+3yv5HVnHEeCyzArH4ptRdrJK7baukl3+dvM+6KK/G6x+Lf7TXxes11rS9R+Meq2UxO250dL9bVvXH2cCPj26Va+H/8AwUn+NnwN8Vi21TXtS1UWUu270vxBCZXOOqszgTI2PRh9DX2EvDTGOLVGvTlNbxu/8vzSPhY+LWBUouvh6kIS2k0vv3/Js/YevzG/4LO3Bi/aS0UZ66HH/wCjZK/QH9nD47ab+0l8G9G8YaXG8EGqRnzIHYM1tKpKyRkjrhgee4wa/PD/AILYXHk/tMaGM9dCj/8ARslYeH1CpRz72NVWlFSTXZrc6vE3E06/Dft6LvGUoNPunqmfRn/BGaXzf2aNXPX/AInkv/oqOvruvjv/AIIpy+b+zDrB6/8AE9l/9FR19iV4PGH/ACOsT/iPouB3/wAIOF/wL9Qr5Y/4Kq/tQ6j8Bfg9Y6NoV09nrfi2R4ftEbbZLe2QDzGU9mJZVz2BPfFfU9fBn/BcT4eX9/4R8F+K4I5JLLSJp7C6KjiEzbGRj7ExkfUj1quDaFCtnNCniVeN3o9m0m0vvsTx3icTh8ixFXCtqSS1W6TaUn91/Tc+W/2S/wBkHxR+2F4mvoNIubSw0/TNrX+o3ZZliL5wqqOXc4JxwPUjv9K6j/wRCvotOd7T4lW092Fykc2hNFGx9C4nYge+0/SvmP8AYo/bu1n9jfxJqD2+nQa5oms7PttjJKYX3LnbJG4B2sASOQQR6da/QD4Uf8Fc/g78R0hi1DVNQ8J30pC+Vqtqwj3e0sW9Avu5X6Cv1DizHcT4bFOeXxvRVrcsVJ7a3TTe/aysfkXBmB4RxeDUMylau735pSit9OVpqL0tvd3PzW+J3gLxP+zT8WbrRNUMuma/oU6yJNbSkejJLG4wcEYIPB+hyK/Vz9gL9o64/aY/Z30/WNRdX1vTpW07UWXA8yVACJMDpuUq2PUmpPHH7MHwX/bE1KDxbqOn6V4wlMC2seo2GsTiNo1JIXNvMqnBY9eea7H4H/s6eDf2cNEvdN8GaOdGs9QnFzcR/a57nzJAoXdmV3I4AGAQK+O4p4rwea5fCjWpSjiIWu7JK/2lvez3tbex9zwhwdjsnzKpXo1oyws72V25W3i7cvLdbXT2bPOP+CiH7VWs/sn/AAbsdV0GzsrnU9Yvxp8Ut1lktcxO/mbB94/JgAnHOTnofmz/AIJPfFjxD8Yv2pPFmseJdXvdZ1KfRDumuH3bR56fKo6Io7KoAHpXgP7fP7U/jj4pfFfxJ4Q17XPt/h7w7r1wdPtPsdvF9nKF41+dEV2wrEfMx6+teZfBL9pLxh+zp4gutV8G6x/Y9/ewfZppfssFxvj3BtuJUcDkDkDNfZZVwa4ZDPDpQ9vVXxa7NppN2utN0lv3Pg8548jPiSniZOf1ejL4NN0mm0r2euzbvbtsfu3RXgH/AATk+N/if49/ssQeJfFep/2rrL311Cbj7PFBlEI2jbEqrx9K/P8A8T/8FTvjpp3iTUbeHxzsiguZI0X+xtPO1Q5AHMGelfm+XcFY7G4qvhKU4KVF2lduz3Wlovt1SP1XNeP8vwGEw+NrQm411eKSjdKyet5JdejZ+v8ARVTw/dSX2g2M8rbpZreN3OAMkqCTx718nf8ABV/9qTxz+zPong2bwXrn9iyatPcpdH7Hb3PmhFQqP3yPjGT0xXhZXldXH4yOCotKUr2bvbRN9E307H0Wc5zRy3Azx9dNwja6Vr6tLq0uvc+vKK+Lf+CTv7W/j/8Aaa17xvB411/+2o9Ht7N7QfYba28oyNMGP7mNM5Cr1z0r6b/aH+Peh/s1/CnUvFmvyN9lsV2xQJ/rLuZuEiT3Y9+gGT2rbMsjxODx7y2VpVNF7t2m5JNWuk+vYwyriLCY7LVmsLwpWk/esmlFtNuza6dzt6K/Hj4xf8FNPi98c/FDx6Zruo+G7K5l2Wem6EzQSLk4VfMT967nj+LBPQDpXVfDX9tj9of9lW9stR8aad411PwxLIElh8T6fcIJgf8AnncypvD46fMR6qa+sn4bZhCkpSqQVR7Qvq/JO1r/AIeZ8XT8V8snWcY0qjpredtF5tXul+PkeYftlXZX9qr4gDPTW7n/ANDNfq/+xc279kv4cnrnw/Z/+ilr8bf2gfidafFb42eKPEthHPDZ65qMt5DHNgSIrtnDYJGR7V+x37Erb/2Q/hs3r4ds/wD0UtfQeIsJU8owkJqzTSfqonzPhfVjUzzG1IO6abT8nPQ+Xf2s/wDgl38Qvjv+0N4m8W6PrHg6203WZo5II7y7uUnULDGh3BIGUHKnox4xX1b+yX8ItT+BH7P3h3wprM9jc6lpETpNJZu7wMWkZhtLqrHhh1UV8Iftyf8ABQ34u/Bz9qvxh4a8O+Lv7O0bSriFLW3/ALLspvKDW8TkbpIWY/MxPJPWvtz9hv4na38Y/wBlrwp4k8RXv9o6zqcEj3Nx5McPmESuoO2NVUcADgCvnuJKWcRyXDSxk4Oj7vKo35l7jte6S231ep9RwrXyOWfYqOAhUVdc/O5W5X765rWbfxbaLQ9Zorw39tz9uLQv2OPB0Ek8K6t4l1QN/Z2mLIE3AdZZD1WMHjIGSeB3I/OvxF+3v8ff2k/E8lnoms+IxPKC8WmeFbWSJ4177fJBmIHqzGvKyPgvHZlS+spqnT/mk7X72X6uy8z2OIuPsuymv9UalUq/yxV7X2u+77K78j9hqK/HOz/bK/aH/Zq1y3TW9b8bWMsn7xbPxTbSzC4XPIxcrvx2ypB9xX37+wh/wUM0f9r/AE+XSr23i0Xxnp8Xm3FkrFobuMcGWEnnAJ5U5K5HJHNXnfBOOy+h9aTjUp9XHW3m1281fzM8g8QcuzPEfU5RlSq9IzVr+Sffydn2ufR9FFFfGn3YUUUUAFFFFABRRRQAUUUUAFFFFABRRRQAUUUUAFFFFABRRRQAUUUUAFFFFABRRRQAUUUUAFFFFABRRRQAUUUUAFFFFABRRRQAUUUUAFFFFABRRRQAUUUUAFFFFABRRRQAUUUUAFFFFABRRRQAUUUUAFFFFABRRRQAUUUUAFFFFABRRRQAUUUUAFFFFABRRRQAUUUUAFFFFABRRRQAUUUUAFFFFABXIfH74WW/xs+C/ibwrcjKa3YS26HukhXKMPcOFP4V19Fa0a06VSNWDs4tNeq1Mq9GFanKlUV4yTTXk9Gfz76Trmp/B/4mW9yN9trHhnUg5XJUxzQy8r/30uDX7WfEz9prT9B/Y1v/AInWkqPbzaANQtMEfNLJGBGg9/MYD8K/MT/gr18FT8Gv2v8AU7+CNk03xjCurwHACiQ/LMo/4Gu7/gdcx4n/AG1J9f8A2AdC+ExlmN7p+tvNOzA7XslHmRKD04lY8dgg9q/fc6ymHEFDA46ktLrm/wAL1l9zVvVn815Dnc+GcRmOX1XZqL5fOadov5p39Ecd8C/AN9+0J8ePD3htXee68R6miTyE/NtZt0rk+oXc34V+8uhaNb+HNEs9OtEEVrYQpbwoOioihVH5CvzB/wCCFXwUPir4seI/Hl1DvtvDlqLCzc8j7RNyxHusY/8AIlfqRXxHidmftswjg4fDSX/k0tX+FvxP0Hwkyl0Msnjqi96s9P8ADHRfe7/gflV/wXDn8r9p7Qhn/mAx/wDo6Wvon/giDJ5v7LWsnOca9L/6Kir5o/4LqzmL9qTQRnr4fj/9HS19H/8ABC+Uy/sp6yev/FQTf+ioq9nOf+SLof8Abv5s8PI3/wAZ9iP+3/yR8df8FWfC2qeEv22vFk+orL5GseRe2MjZ2yQmFF4PsysMD0r2f9kj/gs1pvwk+Gmh+EfF/hC5ltNBtUs4dQ0aRN8iKMLugfau7HUq/J/hFfaP7XXwL+FXx98Ipp/xIuNJsRaZa11CS/jsrqxJ6lJGPQ45VgVOOQcV8VfE3/ghXql3arqPw58f6RrNhdKJreLVozDujIypWeEOsmQcg7FBp4DP8jzPLKOBzmLg4JJPVJtK11JeW6ehOZ8OcQ5Tm1fMMikpqo22lyuSTd2nGW+uzWvoeyeP/iv+y/8A8FGr/QYdd8VPpur6WzfZ4rpjpU8gfH7lpZE2OCQCFR85r6J/Z1/ZT8DfswaZew+CdOuLGLVtj3LSX89yJyoO1sO5UHBPKgZr8Zv2jf2K/iZ+yrBFdeMvD72mmXMvkQahbzx3NrK+CQNyElSQDgOFJx0r65/4If8A7VOvaz401X4ZavqFxqGlR6e2o6Us7l2sjG6q8aEnhCHBCjgEEjqaw4h4ZdPKJV8qxcqmHjq4c142vd2astHrZr53N+GeLVUzuOHzjBRp4meimotSvayupXautLp/Kx6X/wAF1ZfK/Z18Iknr4jH/AKSz14p/wQwn839ofxUM5xoJ/wDR8dexf8F6JfK/Zw8HnufEg/8ASWevDf8AghDfK37SXiiNm+d9AJUeuJ481vln/JE1f+3v/SkYZu/+NgUf+3f/AEln6s1+B37SV3t/aK8fDPTxHqP/AKVSV++JO0Ek9K/nw+PmujV/jr41u0dXS616+lVl6MGuJDke3NcvhOv9oxD8o/mzr8aJWw2FX96X5I/dn9mlt37PHgY+ug2X/ohK8R+OX/BNH4D6jdal4p8SNd+GjdXD3d7qEmvPDE8jsWYs1wzKMkngY9q9k/Z31OPSf2X/AAZeTEiG18N2k0h9FW3Uk/kK/F39qf8Aaj8UftifGu61G9vLq5tLi7Nvoum+YRBZxFtsaIpwoZhjcx5JPJxivI4UyjHY3MK8sLXdGMW+aSvrduytdJ7PfRHucZ55l+X5Zho4zDqvOaXJGSVlZK7vZtbrbVn6k+Jv+CoPwD+CmiRaTp/iVNTj0qFYILLRLGSdAijCqkm1YTwP79fnD+33+1RoP7WXxzHinQNFvdGtlsY7R/tbJ590ULYkZUJVThgOGbgDmvqr4I/8EI9LbRbS8+IHjHU5b2ZFklsNFjjhjgJGShmkDl/QkIvt618z/wDBUr4AeDf2XvjvpPhjwZazWlr/AGLFdXSzXMlxJJK0kg3sXJAJCjhcDjpX13CVLh+jmfs8vnOrVad5P4bdeivf0fqfEca1uJsRlPtczp06VFONor4r9OsrW66r06H3V/wRV1F739j2WNjlbfXLpU68ArG38ya+Zf8AguHP5X7T2hDP/MBj/wDR0tfTP/BEyTzf2LEbrnW7v/2Svlj/AILqzmL9qTQRnr4fj/8AR0tebkVv9c6/rM9biJv/AFDw/pTPpf8A4Igyeb+y1rJznGvS/wDoqKvsyviv/ghfKZf2U9ZPX/ioJv8A0VFX2pXwnGP/ACOsT/i/yP0XgZ/8IGF/wL9QrH8f+AdI+KPg7UPD+vWMOpaTqkRhubeUfK6n9QQeQRyCARWxXxZ+3b/wVb1j9kH4z3Hg218CWepMlnDeQahc6m6JOsgP/LJY+MMrD756dulefk+V4zH4lUcCrzWu6VrW1u2tvLU9PPc4wOXYV18xdqb93Zyve+lknvrvoeOftHf8ETfFHh/Ubq/+G2q2viDTXYvHpl/KLa9hHZFkP7uTHqxQ+x618jfFT9njx98EZXXxZ4R1/Q40bZ9ouLR/szH0WYAxt+DGv1x/4J4ftnN+2h8HbvWdQg02w8QaXfPa31lZ7xHEh+aJwHYthlPXOMqfpXvdxbpdwPFKiSxyAqyOoZWB6gg9RX39LxAzbLK0sHmVNVHB2fSX3rR+tte5+aVvDTJc3oRx+VVJU41Fdfaj9zs1ruubTax+AHwt+Nnif4KeJ49Y8K67qOh6hGRmS2lKrKAfuuv3XX/ZYEe1fsR/wT3/AGy4/wBsb4OPqF5FDaeJdEkFpq0EXEbMRlZkB6K4ycdiCPSviv8A4LZ/ADwP8H/E3hTXPDVjY6Hq3iLz1vrCzVYoZlTaROI14U5YqSAAfrzV7/ggbfXUnxY8fxLuNm2lW7S/3Q4mbZ+OC/617/FMMFnPD/8AbEIcs46pvf4uVpvqu3/DnzfB9TH5DxN/YdSpzwldNK9vh5lJLo+/z30PYv8AgurL5X7OvhEk9fEY/wDSWevFP+CGE/m/tD+KhnP/ABIT/wCj469i/wCC9Evlfs4eDz6+JR/6Sz14f/wQenMv7RvisZzjQD/6Pjrgyz/kiav/AG9/6Uj0c3f/ABsCj/27/wCkM/VK+/48pv8Acb+Vfz4+Nbz/AIrLV+f+X2b/ANGNX9B1/wD8eM//AFzb+VfzueN7wjxprAz0vZv/AEY1R4TfFif+3P8A2408aX7mE9Z/+2n9DHhM/wDFK6Z/16Rf+gCvgr/gvLN5Xhr4dZPW5vP/AECOvvPwZKs/g/SZFO5Xs4WU+oKCvzz/AOC/PiFIW+G+m7181vttzs7hf3S5+ma+S4Gi3xBR9Zf+kyPtfESaXDNf0h/6VEi/4ILTeb4q+JfOcWmn/wDodxUn/Bdz4l3K+IPA3hNJcWiQTapMgP3pC3loSPYB+v8Aeqh/wQCn83xZ8TgTki00/wD9DuKxf+C9ejz2Hxq8EakQ32e90eWBWxxujmJIz64cV9woQlx0+forr19mj8+dWpHw7jydZWfp7VnWf8EN/gjpevzeKfH99bpdX+lTppenNIu4WxKb5HX/AGiGQZ7An1r9CfGng3TPiH4U1DQ9Zs4dQ0vVIWt7m3lUMkiMMEf/AF+xr4c/4II+Jre7+C/jnShIpu7XW47tkzzskgRQcemYzX3tXwnHOIrPPazk3eLVvJJJq35+p+ieHmGoLh2goxVppuXm22nfv29ND8Bfjt4FPwi+M3inwwzEjQ9Tns0JJJKK5CE+5XBr9pv2G23fsdfDM9c+HLL/ANFLX4z/ALavjS18ZftZ/EPUrKQSWs+u3KxsDkMFcpkexK1+yn7CTb/2MvhefXw3Zf8Aola+48R5znlGEnU+JtN+vLqfn3hZCEM7xtOl8KTS9FPT8D8q/wDgp3c7P27PiGuel3b/APpJDX6Y/wDBMR9/7DfgM9c20v8A6Pkr8vf+Co90U/b2+Ioz0u7f/wBJIK/T3/glu+/9hLwC3XNtN/6PkrLjX/kmcF/3D/8ATbNeAH/xluYf9xP/AE4j8uf28fjfc/HD9qrxfq08rvbWl9JptkhPEcEDGNQPYkFvqxr9Vf8Agnx+zppX7Pf7Nnh6K2tYl1nXLOLUdUutg82eWRQ4UnrtQMFA6DBPUmvxp/aR0S78GftBeN9LvUMdzZa5eIwPGR5zkH8QQfxr90f2bPFtn47/AGffBWrWEqy2t7otqyMpyOIlBH1BBB9xVeIcnQyjCYfD6U3bbZ2iuX9X+IvDFLEZ3jcTidaqva+6vJ836L8Cr+078BNH/aP+DWs+GtXtYpzcW7vZzFQZLS4CnZIh7EHH1GR0Nfih8F/ilqX7PHx10XX4Jnt7zw7qS+eFz8yK+2VCB1BXcMe9fvF4k1q38OeHb/ULuRYrWxt5LiZ2OAiKpYk/gK/nt1G4k+IvxNuEsFLS67qjLbIepM0p2D82FT4XylVw+Kw1bWlpo9tU0/vS1K8X4xo4rB4qhpV11W/uuLj9zbsf0M6bfJqmn291Gcx3MayofZhkfoamqh4U0x9E8LaZZSHMlnaxQsfUqgB/lV+vx2dlJpbH7nBtxTluFFFFSUFFFFABRRRQAUUUUAFFFFABRRRQAUUUUAFFFFABRRRQAUUUUAFFFFABRRRQAUUUUAFFFFABRRRQAUUUUAFFFFABRRRQAUUUUAFFFFABRRRQAUUUUAFFFFABRRRQAUUUUAFFFFABRRRQAUUUUAFFFFABRRRQAUUUUAFFFFABRRRQAUUUUAFFFFABRRRQAUUUUAFFFFABRRRQAUUUUAFFFFABRRRQB8Vf8FxPgYfiB+zFaeLrWFpNQ8E3glkKjJNrNhJM+wby2/A1+QX2z3r+kbxF4c0/xfod3perWFnqmm38ZhubS7gWeC4Q9UdGBVlPoQRXAD9i74OqQf8AhU/w0yP+pXsf/jVfpvCnH8MqwP1OvTc7NtNNKyfTXzu/mfk3GfhtUzjMPr2GqqF0lJNN3a0vp5WXyOI/4Jg/Ao/AX9jjwtZXEJh1TW4v7ZvwwAcSTgMqn/dj2L+FfQVNggS1gSKNFjjjUKiKAFUAYAAHQAU6vz7MMbPF4mpiam822/mz9My3A08FhKeEpfDCKivkrX+e5+R3/Beafyv2q9AGevh6I/8AkaWvpX/gg7L5v7JutnrjxDN/6Jir6t8ffs+eAvitq0d/4p8EeEPEt/DGIUudV0a2vJkQEkIGkRiFyScZxya0/AXwx8N/CrSJNP8AC/h7Q/DdhLIZnttLsIrOF3IALlI1UFiABnGeBX1uO4spV8hp5QqbUo21uraPtufFZfwZXw/EdXO5VU4zv7tndXSW+3Q/JX/grb+wxrXwL+MGq+PNFsJ7vwT4ouWu5ZoIyy6VcucyRy4+6rMSyseDkjqObH7J3/Ba7xP+zt8L7Hwnrvha18aWOjxiDT7g6i1jcwwj7sbt5cgcL0BwCBwSa/Xq9sodStJbe5ijuIJ1KSRyIHSRSMEEHgg+hrwvx1/wTF+AvxGv3utS+GuhxzSNuY6fJPpqk+u22kjHf0r1MHxtgMTgYYDPaDqKFrSi9dNF1i07aNp69UePjuAMxwuYTzHh3Eqk53vGS011fSSavqk46dGfmZ+3Z/wVU1/9tPwjZ+G08O2fhXw9bXC3c0CXZvJ7qVQQu6QogCjJOAgOepPSvp//AIIj/sa678PU1P4oeJbOXTW1qy+w6NbToUmaBmV3nYHkK21AoPUAnpivqj4X/wDBPf4LfBzUIbzQPh14ehvLZg8NxdxvfzQsOjK9wzsre4INeyAYAHpXNnPGWEeXPKsnoulSlu29X3W736tt6aHVkXAuNjmazjPMQqtWOyitE9k9lt0SitdT5o/4Kw/s96r+0J+yNqVtoVq99rXh+5j1a2t0GZJ1jDCRVHdtjMQO5GO9fkb+yz+1Br/7IXxos/F2iQwT3doj2t1Z3QYR3UL43xNjlTkAg9ioODjB/oJrxz4w/wDBPr4NfHrW5dT8UeANHvNSuG3zXds0thPO3953t3jZz7sSanhXjLD4DBzy3MKTnSlfa19d1ZtXXzVvyvjLgXE5ljqeaZZWVOtC297aO6d0m01ts01+Pw/4t/4LNfEf9qWwXwJ8Mvh2NG8S+IQbRbmLUG1K4jVhhmjXyY1jwDy77go54xmvhn41fDvUPgt8Vdd8K6tcQ3Op6HdNbXUkTFkaQAFsE8nk9e9fvh8F/wBmbwD+zvYyW/grwno3h7zl2yy20GbiYdg8rZkcezMah8Rfso/C3xhrl1qmr/DXwBqmp30hluLu78PWk89w56s7tGWYn1JzXp5Xx5luW1ZQwOFcKTXe8m+7bb0SvZXe55GceHObZrRhPMMYp1k+1oKNtkklq3Zt2WyRD+zzpaa9+yn4NspSRHe+GLSBiOoDWyqf0Nfhj+0D8HPEX7Kvxu1Pw1q0VzZahot15lpcFSBcxBsxTxnGGVgAcjvkdQRX9BmlaVbaHplvZWVtBZ2dpGsMEEEYjihRRhVVRgKoAwAOAK5T4x/s8+CP2gtHjsfGnhfSPEcEGfJN3AGlgz1Mcgw6Z/2SM14fC3GCynFVZzhzU6ru0t1q7NdHu01+J9FxhwQ85wdGnTqKFWirJvZ6JNO2q2TT1t2Pzk8K/wDBwH4j0b4e21hqPw+0zVPENvbiI6mNVeCCZwMCRrcRE89SBIMnOMdK+Vv2ppvih8R9Qsfip8RdOvLePx27/wBnXMsQhiljiCgLFHncsYVhtJHzDJBbkn9g/hx/wTS+Bfwo1xNS0f4c6N9tjfzI5L6SfUREw5DKtw8gUg9CAMV6l8QPhH4U+LGn21p4q8MeHvE1rZuZLeHVdNhvY4GIxuRZFYKccZHavbw3GuTZdifa5Xg3FS+Jt+9btFXklrZ72027fP4vgHPszwnsc3xyk425El7t+8nyxcna6Wl7u990/j3/AIIN+P7fX/2X9e0ISZvND1x3dDjPlzRoysPYlWH1FfOP/Beafyv2q9AGevh6I/8AkaWv1I+HnwO8FfCK4upvCng/wt4YmvlVLh9J0qCya4VSSocxIu4Ak4B6ZNQ+Pv2fPAXxW1aO/wDFPgjwh4lv4YxClzqujW15MiAkhA0iMQuSTjOOTXjYPivD4fPqmbqm+WV/dur3aV9dtz3sfwbisTw3TySVWKnC3vWdrRbtpvtY+Uv+CDsvm/sm62euPEM3/omKvtysPwF8MfDfwq0iTT/C/h7Q/DdhLIZnttLsIrOF3IALlI1UFiABnGeBW5XzWeZjHHY+rjIKym72fQ+r4fyyeXZdRwU5KTgrXWzCvj7/AIK1fsH6j+1R8PrHxL4UgFx4x8KxuqWgwranbMdzRKSceYp+ZQeuSOpFfYNFZZVmlfL8VDF4d+9H7n3T8mjbOcpw+Z4OeCxSvGS6bp7przT1P57vg38f/Hn7IXxMm1Hw5f3/AIc1y1Jtr21nh+WUA8xTQuMHB7EZB5GDzX0rJ/wXr+MclgYRo3w9SQrtE66ddeYD/ewbnbn/AIDj2r9Qfiz+zB8O/js2/wAX+DPDuv3AXYLm6ska5RfRZQBIo+jCvKo/+CRn7O8Wofah8OYDLuLYbV9QaPJ/2DPtx7YxX6dW44yDHWq5lg26iW6UX+LcXb1R+R0fD3iXL70cqx6VNvZuUfwSkr+jVz8fviJ8WfiB+2P8W4rzV7nVPFvifVGFva29vBuYDJxFDEgwqjPRR6k9zX68f8Eu/wBiy6/ZA+B8x11U/wCEu8TyLd6kqsGFooGI7cEcEqCSSONzHsBXs/wp/Z38CfAyB08H+EfD/h0yrtkksbKOKaUejyAb2/4ETXZV8/xRxv8A2jhlgMHS9lRVtNLu2ystEl2V/U+m4R4A/svFSzLHVvbV3fXWyvu7vVt7XdtL6Hxx/wAFv/hvfeNv2PItTsrea5PhfV4dQuBGpYxwlHiaQ4/hXeMk8Ac9q/OH9hP9tq7/AGI/iveeJIdDh8R2+o2LWNxZvdG1YgsrKyybH2kFR1U5Hp1r94byzh1G0lt7iKO4gnQxyRyKHSRSMFSDwQR2NeB+JP8Aglj8APFXiBtTu/htpSXTNuK2l1dWkGf+uMUqx/htrfhrjDA4XLZ5VmVKU6cm/hts+j1jbXW6ZzcWcD5hjM1p5xlNaNOpFL4r7rqtJX00s1Y1P2Df2tH/AG0/ghP4un0iHQ2GpT2P2KOc3AjVApGZCq7iQ2chQPavx8/bu+AGsfs1ftL+JtF1K1mhsr29lvtLuCuI7u2kcsjIeh252kdQVNfuX8LPg74W+CHhgaN4R0HTPD2mBzKYLKARK7kAF2I5ZiABuYk8Cm/FT4L+E/jh4e/snxf4d0nxFYAlkivrZZfKbGNyE8o2O6kH3rjyDi2hlOZVa+HpP2FT7N9UltrrdrXd69zu4k4LxGdZVRw+KrL6xT15re6297pJWT02Wltj8xPgP/wXc8Q/Cv4T6Z4c13wRZ+Kb7SLZbSDUl1ZrJpI0XanmR+TJuYAAEhlzjoK8a/bS1r4qftBeF9N+NXxAtk0nSNevf7I0Gw8tolWBUeTfEjc+Xx99jl2JI4Ar9UfAP/BM34E/DTxANU0r4b6Kb1X8xWvpZ9QSNs5yqXEjopB6YAx2r1Tx98JPCnxW0y2svFPhjw94ls7N/Nt4NV06G8igfG3cqyKwU4JGR2r2IcZ5Ng8asVluEcXJ+9JvWz3UVdqN31VtNLHhz4Ez7HYB4TNsapKKXJGK9262cnyxlKy2Tvrrc/Ob/g3vm83xb8Uec4tNO/8AQ7ivqj/gp/8Asd3P7XX7P5g0VFfxX4blN/pakhftPy4kgyem9cYzxuVa9q+HnwQ8F/CKa7k8J+EPC/hiS/CrctpOlQWTXAUkqHMSruA3HGc4yfWuor5jNuJ51s6ecYRODTi0nrtFJ3t0dvuZ9dk3CcMPkKyPGyU01JNrTeTkmr9VdW80fgX+zN+1J41/YR+NFzqWnWxhvYc2OraRqEbolwobmOReGV1PIPVT6jIP1J8SP+C3Hjz9oPw8PBnw++H40LxJ4h/0GO5g1BtTum3jBEEYhjCvj+I7toyccZH6BfHD9jL4XftH3QufGngrR9avQgj+2bXt7sqOimaJkkIHYbsCpvgd+yF8NP2bd7+CfB2kaHcyJ5bXSI092y/3TPKWkI9i2K+pzDjTI8Zy4zEYJyxCXV+7dbXaeqXZxfY+Py7gPiHA82BwuPUcNJu9l79nvZNe633UlrqfhJ8d/hVrHwD+K2q+EvEEkL61pPlfbPKcuqySQpKV3HqV8zBPcg1+5H7BLbv2KvhYeufDNj/6JWug8V/sufDLx54hudX134deBNa1a9Ia4vb7QLS5uJyFCgvI8ZZiFAHJ6ACuw0Dw/YeFNEtNM0uytNN06wiWC2tLWFYYLeNRhURFAVVA4AAAFeRxVxlHOMHRoOm4zg7t6WbtZ2XTU9vg7gWeR4+viPaKUJpqK1ulzXV310Pw8/4Kp3Oz9v8A+JC56Xlv/wCkkFfqT/wSqff+wT8Pm65tZv8A0okr0rxX+y58MvHniG51fXfh14E1rVr0hri9vtAtLm4nIUKC8jxlmIUAcnoAK6rwp4Q0nwHoFvpOh6Xp2jaXZgrBZ2NsltbwgkkhY0AVQSSeB1NRn/FtHMMpw+XQpuLp8t22rPljymnDfBdfLc6xOaVKqlGrzWSTuuaalr6bH51f8Fh/+CeWt+IvFdx8VvA+m3Gq/aolGv6faRF50ZFwLpFHLgqAGABI2g9M4+d/2I/+CrPi/wDY38Pv4cm0u28W+FhI0sNhcXDW01k7HLCKUK+1SeSrIwzyMc5/a6vJfi5+wj8IPjrfzXnif4f+H76+uCTNdwxNZ3UxPdpYCjsfck12ZVxth3gFlmdUfa047NbpLbqttk007aHDnXAOKWYyzbIcR7GrK9017rb3ez0e7Ti1fU/Mn9sX/gsj4u/ag8A3HhXR9CtvBWhainl6gsV6b26vE/55mUpGFQ9wEyemcZB9D/4JDf8ABO7WvEXjrTfip4006bTtC0k/aNDtLmMpLqM2Pln2nkRL1Un7xwRwMn7k+Fv/AATr+Cfwa1SK+0D4d6FFe27b4p7zzdQlhbOdytcPIVI9RgivaQMAD0qsx41wlLAyy7I6DpQle7fxa79Xq1pdt6bEZXwDja2YRzTiHEKtOFuWKXu3Wq6R0T1soq71fYKKKK/Nz9UCiiigAooooAKKKKACiiigAooooAKKKKACiiigAooooAKKKKACiiigAooooAKKKKACiiigAooooAKKKKACiiigAooooAKKKKACiiigAooooAKKKKACiiigAooooAKKKKACiiigAooooAKKKKACiiigAooooAKKKKACiiigAooooAKKKKACiiigAooooAKKKKACiiigAooooAKKKKACiiigAooooAKKKKACiiigAooooAKKKKACiiigAooooAKKKKACiiigAooooAKKKKACiiigAooooAKKKKACiiigAooooAKKKKACiiigAooooAKKKKACiiigAooooAKKKKACiiigAooooAKKKKACiiigAooooAKKKKACiiigAooooAKKKKACiiigAooooAKKKKACiiigAooooAKKKKACiiigAooooAKKKKACiiigAooooAKKKKACiiigAooooAKKKKACiiigAooooAKKKKACiiigAooooAKKKKACiiigAooooAKKKKACiiigAooooAKKKKACiiigAooooAKKKKACiiigAooooAKKKKACiiigAooooAKKKKACiiigAooooAKKKKACiiigAooooAKKKKACiiigAooooAKKKKACiiigAooooAKKKKACiiigAooooAKKKKACiiigAooooAKKKKACiiigAooooAKKKKACiiigAooooAKKKKACiiigAooooAKKKKACiiigAooooAKKKKACiiigAooooAKKKKACiiigAooooAKKKKACiiigAooooAKKKKACiiigAooooAKKKKACiiigAooooAKKKKACiiigAooooAKKKKACiiigAooooAKKKKACiiigAooooAKKKKACiiigAooooAKKKKACiiigAooooAKKKKACiiigAooooAKKKKACiiigAooooAKKKKACiiigAooooAKKKKACiiigAooooAKKKKACiiigAooooAKKKKACiiigAooooAKKKKACiiigAooooAKKKKACiiigAooooAKKKKACiiigAooooAKKKKACiiigAooooAKKKKACiiigAooooAKKKKACiiigAooooAKKKKACiiigAooooAKKKKACiiigAooooAKKKKACiiigAooooAKKKKACiiigAooooAKKKKACiiigAooooAKKKKACiiigAooooAKKKKACiiigAooooAKKKKACiiigAooooAKKKKACiiigAooooAKKKKACiiigAooooAKKKKACiiigAooooAKKKKACiiigAooooAKKKKACiiigAooooAKKKKACiiigAooooAKKKKACiiigAooooAKKKKACiiigAooooAKKKKACiiigAooooAKKKKACiiigAooooAKKKKACiiigAooooAKKKKACiiigAooooAKKKKACiiigAooooAKKKKACiiigAooooAKKKKACiiigAooooAKKKKACiiigAooooAKKKKACiiigAooooAKKKKACiiigAooooAKKKKACiiigAooooAKKKKACiiigAooooAKKKKACiiigAooooAKKKKACiiigAooooAKKKKACiiigAooooAKKKKACiiigAooooAKKKKACiiigAooooAKKKKACiiigAooooAKKKKACiiigAooooAKKKKACiiigAooooAKKKKACiiigAooooAKKKKACiiigAooooAKKKKACiiigAooooAKKKKACiiigAooooAKKKKACiiigAooooAKKKKACiiigAooooAKKKKACiiigAooooAKKKKACiiigAooooAKKKKACiiigAooooAKKKKACiiigAooooAKKKKACiiigAooooAKKKKACiiigAooooAKKKKACiiigAooooAKKKKACiiigAooooAKKKKACiiigAooooAKKKKACiiigAooooAKKKKACiiigAooooAKKKKACiiigAooooAKKKKACiiigAooooAKKKKACiiigAooooAKKKKACiiigAooooAKKKKACiiigAooooAKKKKACiiigAooooAKKKKACiiigAooooAKKKKACiiigAooooAKKKKACiiigAooooAKKKKACiiigAooooAKKKKACiiigAooooAKKKKACiiigAooooAKKKKACiiigAooooAKKKKACiiigAooooAKKKKACiiigAooooAKKKKACiiigAooooAKKKKACiiigAooooAKKKKACiiigAooooA//2Q==;" vertex="1" parent="1">
          <mxGeometry x="40" y="170" width="142" height="104.66" as="geometry" />
        </mxCell>
        <mxCell id="bwCUnxS7NbJIKGIXhCUE-10" value="" style="endArrow=classic;html=1;rounded=0;entryX=1.033;entryY=0.42;entryDx=0;entryDy=0;entryPerimeter=0;" edge="1" parent="1" target="bwCUnxS7NbJIKGIXhCUE-25">
          <mxGeometry width="50" height="50" relative="1" as="geometry">
            <mxPoint x="550" y="207" as="sourcePoint" />
            <mxPoint x="422.5" y="206.51999999999995" as="targetPoint" />
          </mxGeometry>
        </mxCell>
        <mxCell id="bwCUnxS7NbJIKGIXhCUE-11" value="" style="endArrow=classic;html=1;rounded=0;entryX=0.5;entryY=0;entryDx=0;entryDy=0;" edge="1" parent="1" target="bwCUnxS7NbJIKGIXhCUE-5">
          <mxGeometry width="50" height="50" relative="1" as="geometry">
            <mxPoint x="357.38" y="274.65999999999997" as="sourcePoint" />
            <mxPoint x="360" y="330" as="targetPoint" />
          </mxGeometry>
        </mxCell>
        <mxCell id="bwCUnxS7NbJIKGIXhCUE-16" value="" style="endArrow=classic;html=1;rounded=0;" edge="1" parent="1">
          <mxGeometry width="50" height="50" relative="1" as="geometry">
            <mxPoint x="250" y="240.09" as="sourcePoint" />
            <mxPoint x="200" y="240" as="targetPoint" />
          </mxGeometry>
        </mxCell>
        <mxCell id="bwCUnxS7NbJIKGIXhCUE-18" value="live environment" style="text;html=1;align=center;verticalAlign=middle;whiteSpace=wrap;rounded=0;" vertex="1" parent="1">
          <mxGeometry x="290" y="570" width="60" height="30" as="geometry" />
        </mxCell>
        <mxCell id="bwCUnxS7NbJIKGIXhCUE-19" value="" style="shape=image;verticalLabelPosition=bottom;labelBackgroundColor=default;verticalAlign=top;aspect=fixed;imageAspect=0;image=data:image/png,iVBORw0KGgoAAAANSUhEUgAAAqQAAACkCAYAAABB2TyAAAAMOmlDQ1BJQ0MgUHJvZmlsZQAASImVVwdYU8kWnluSkJDQAhGQEnoTRKQjJYQWQECqYCMkAUKJIRBU7OiigmtBRRRs6KqIgmsBZK2InUWw90URBWVdLNjLmxTQZV/53uSbO3/+OfOfM+fOvXcGAPWTXLE4C9UAIFuUJ4kO9mdOTExiknoABjQBWfbj8nLFrKiocADLYPv38vYGQGTtVXuZ1j/7/2vR5AtyeQAgURCn8HN52RAfAgCv5IkleQAQZbzZjDyxDMMKtCUwQIiXynCaAlfKcIoC75fbxEazIW4BQIXK5UrSAFBrhzwzn5cGNdT6IXYU8YUiANSZEPtkZ0/nQ5wMsTW0EUMs03dP+UEn7W+aKUOaXG7aEFbMRV5UAoS54izurP8zHf+7ZGdJB31YwkpNl4REy+YM83Yrc3qYDFMh7hOlRERCrAXxeyFfbg8xSkmXhsQp7FEDXi4b5gwwIHbkcwPCIDaAOEiUFRGu5FNShUEciOEKQWcK8zixEOtCvFSQGxijtNkqmR6t9IXWp0rYLCV/niuR+5X5eiDNjGMp9V+lCzhKfUytID02AWIKxOb5wvgIiNUgdsjNjAlT2owrSGdHDNpIpNGy+M0hjhaIgv0V+lh+qiQoWmlfnJ07OF9sa7qQE6HEB/LSY0MU+cFaeFx5/HAuWLtAxIob1BHkTgwfnAtfEBComDvWIxDFxSh13ovz/KMVY3GKOCtKaY+bCrKCZbwpxM65+THKsXh8HlyQCn08VZwXFauIEy/I4IZGKeLBV4FwwAYBgAmksKaA6SADCNv6GvrgP0VPEOACCUgDAmCvZAZHJMh7RPAaAwrAnxAJQO7QOH95rwDkQ/7LEKu42oNUeW++fEQmeAJxNggDWfC/VD5KNOQtHjyGjPAf3rmw8mC8WbDK+v89P8h+Z1iQCVcy0kGPTPVBS2IgMYAYQgwi2uD6uA/uhYfDqx+sTrg77jE4j+/2hCeEDsIjwnVCJ+H2NGGhZFiU40En1A9S5iLlx1zgllDTBffHvaE6VMYZuD6wx52hHxbuCz27QJatjFuWFeYw7b/N4Ie7obQjO5JR8giyH9l6+Eg1WzWXIRVZrn/MjyLWlKF8s4d6hvtn/5B9PmzDhltiS7GD2DnsFHYBO4o1ACZ2AmvEWrFjMjy0uh7LV9egt2h5PJlQR/gPf4N3VpbJXMcax17Hz4q+PMFM2TsasKeLZ0mEael5TBb8IgiYHBHPYRTTydHJGQDZ90Xx+nrNkH83EMbF71zOSQA8iiGZ9p3jmgFw5AkA9LffObNX8LFZBcCxdp5Ukq/gcNmFAN8S6vBJ0wNGwAxYw/k4AVfgBfxAIAgFkSAWJIKpMPp0uM4lYAaYAxaCIlACVoF1YCPYAraD3WAfOAAawFFwCpwFl0A7uA7uwtXTDZ6DfvAWfEIQhITQEDqihxgjFogd4oS4Iz5IIBKORCOJSDKShogQKTIHWYSUIKXIRmQbUo38ihxBTiEXkA7kNvIQ6UVeIR9RDKWi2qghaomORt1RFhqGxqJT0DQ0By1AF6Mr0HK0Ct2L1qOn0EvodbQTfY4OYABTxRiYCWaPuWNsLBJLwlIxCTYPK8bKsCqsFmuC9/kq1on1YR9wIk7Hmbg9XMEheBzOw3PwefhyfCO+G6/HW/Cr+EO8H/9KoBEMCHYETwKHMJGQRphBKCKUEXYSDhPOwGepm/CWSCQyiFZEN/gsJhIziLOJy4mbiHXEk8QOYhdxgEQi6ZHsSN6kSBKXlEcqIm0g7SWdIF0hdZPeq6iqGKs4qQSpJKmIVApVylT2qBxXuaLyVOUTWYNsQfYkR5L55FnkleQd5CbyZXI3+RNFk2JF8abEUjIoCynllFrKGco9ymtVVVVTVQ/VCapC1QWq5ar7Vc+rPlT9QNWi2lLZ1MlUKXUFdRf1JPU29TWNRrOk+dGSaHm0FbRq2mnaA9p7NbqagxpHja82X61CrV7titoLdbK6hTpLfap6gXqZ+kH1y+p9GmQNSw22BldjnkaFxhGNmxoDmnTNMZqRmtmayzX3aF7Q7NEiaVlqBWrxtRZrbdc6rdVFx+hmdDadR19E30E/Q+/WJmpbaXO0M7RLtPdpt2n362jpOOvE68zUqdA5ptPJwBiWDA4ji7GScYBxg/FxhOEI1gjBiGUjakdcGfFOd6Sun65At1i3Tve67kc9pl6gXqbear0Gvfv6uL6t/gT9Gfqb9c/o943UHuk1kjeyeOSBkXcMUANbg2iD2QbbDVoNBgyNDIMNxYYbDE8b9hkxjPyMMozWGh036jWmG/sYC43XGp8wfsbUYbKYWcxyZguz38TAJMREarLNpM3kk6mVaZxpoWmd6X0zipm7WarZWrNms35zY/Px5nPMa8zvWJAt3C3SLdZbnLN4Z2llmWC5xLLBssdK14pjVWBVY3XPmmbta51jXWV9zYZo426TabPJpt0WtXWxTbetsL1sh9q52gntNtl1jCKM8hglGlU16qY91Z5ln29fY//QgeEQ7lDo0ODwYrT56KTRq0efG/3V0cUxy3GH490xWmNCxxSOaRrzysnWiedU4XRtLG1s0Nj5YxvHvnS2cxY4b3a+5UJ3Ge+yxKXZ5Yurm6vEtda1183cLdmt0u2mu7Z7lPty9/MeBA9/j/keRz0+eLp65nke8PzLy94r02uPV884q3GCcTvGdXmbenO9t3l3+jB9kn22+nT6mvhyfat8H/mZ+fH9dvo9ZdmwMlh7WS/8Hf0l/of937E92XPZJwOwgOCA4oC2QK3AuMCNgQ+CTIPSgmqC+oNdgmcHnwwhhISFrA65yTHk8DjVnP5Qt9C5oS1h1LCYsI1hj8JtwyXhTePR8aHj14y/F2ERIYpoiASRnMg1kfejrKJyon6bQJwQNaFiwpPoMdFzos/F0GOmxeyJeRvrH7sy9m6cdZw0rjlePX5yfHX8u4SAhNKEzomjJ86deClRP1GY2JhESopP2pk0MClw0rpJ3ZNdJhdNvjHFasrMKRem6k/Nmnpsmvo07rSDyYTkhOQ9yZ+5kdwq7kAKJ6UypZ/H5q3nPef78dfyewXeglLB01Tv1NLUnjTvtDVpvem+6WXpfUK2cKPwZUZIxpaMd5mRmbsyv2UlZNVlq2QnZx8RaYkyRS3TjabPnN4hthMXiTtzPHPW5fRLwiQ7c5HcKbmNedpwI98qtZb+JH2Y75Nfkf9+RvyMgzM1Z4pmts6ynbVs1tOCoIJfZuOzebOb55jMWTjn4VzW3G3zkHkp85rnm81fPL97QfCC3QspCzMX/l7oWFha+GZRwqKmxYaLFyzu+in4p5oitSJJ0c0lXku2LMWXCpe2LRu7bMOyr8X84osljiVlJZ+X85Zf/HnMz+U/f1uRuqJtpevKzauIq0Srbqz2Xb27VLO0oLRrzfg19WuZa4vXvlk3bd2FMueyLesp66XrO8vDyxs3mG9YteHzxvSN1yv8K+oqDSqXVb7bxN90ZbPf5tothltKtnzcKtx6a1vwtvoqy6qy7cTt+duf7Ijfce4X91+qd+rvLNn5ZZdoV+fu6N0t1W7V1XsM9qysQWukNb17J+9t3xewr7HWvnZbHaOuZD/YL93/7NfkX28cCDvQfND9YO0hi0OVh+mHi+uR+ln1/Q3pDZ2NiY0dR0KPNDd5NR3+zeG3XUdNjlYc0zm28jjl+OLj304UnBg4KT7ZdyrtVFfztOa7pyeevtYyoaXtTNiZ82eDzp4+xzp34rz3+aMXPC8cueh+seGS66X6VpfWw7+7/H64zbWt/rLb5cZ2j/amjnEdx6/4Xjl1NeDq2Wuca5euR1zvuBF349bNyTc7b/Fv9dzOuv3yTv6dT3cX3CPcK76vcb/sgcGDqj9s/qjrdO089jDgYeujmEd3u3hdzx/nPv7cvfgJ7UnZU+On1T1OPUd7g3rbn0161v1c/PxTX9Gfmn9WvrB+cegvv79a+yf2d7+UvPz2avlrvde73ji/aR6IGnjwNvvtp3fF7/Xe7/7g/uHcx4SPTz/N+Ez6XP7F5kvT17Cv975lf/sm5kq48q0ABiuamgrAq10A0BLh3gGezyiTFOc/eUEUZ1Y5Av8JK86I8uIKwC4/AOIWABAO9yibYbWAmApb2RY+1g+gY8cO1cGzmvxcKStEeA7YaiNDba0UMLwozpw/xD28BTJVZzC8/Rd6x3l5sp55TwAAAIplWElmTU0AKgAAAAgABAEaAAUAAAABAAAAPgEbAAUAAAABAAAARgEoAAMAAAABAAIAAIdpAAQAAAABAAAATgAAAAAAAACQAAAAAQAAAJAAAAABAAOShgAHAAAAEgAAAHigAgAEAAAAAQAAAqSgAwAEAAAAAQAAAKQAAAAAQVNDSUkAAABTY3JlZW5zaG90IPwbHQAAAAlwSFlzAAAWJQAAFiUBSVIk8AAAAdZpVFh0WE1MOmNvbS5hZG9iZS54bXAAAAAAADx4OnhtcG1ldGEgeG1sbnM6eD0iYWRvYmU6bnM6bWV0YS8iIHg6eG1wdGs9IlhNUCBDb3JlIDYuMC4wIj4KICAgPHJkZjpSREYgeG1sbnM6cmRmPSJodHRwOi8vd3d3LnczLm9yZy8xOTk5LzAyLzIyLXJkZi1zeW50YXgtbnMjIj4KICAgICAgPHJkZjpEZXNjcmlwdGlvbiByZGY6YWJvdXQ9IiIKICAgICAgICAgICAgeG1sbnM6ZXhpZj0iaHR0cDovL25zLmFkb2JlLmNvbS9leGlmLzEuMC8iPgogICAgICAgICA8ZXhpZjpQaXhlbFlEaW1lbnNpb24+MTY0PC9leGlmOlBpeGVsWURpbWVuc2lvbj4KICAgICAgICAgPGV4aWY6UGl4ZWxYRGltZW5zaW9uPjY3NjwvZXhpZjpQaXhlbFhEaW1lbnNpb24+CiAgICAgICAgIDxleGlmOlVzZXJDb21tZW50PlNjcmVlbnNob3Q8L2V4aWY6VXNlckNvbW1lbnQ+CiAgICAgIDwvcmRmOkRlc2NyaXB0aW9uPgogICA8L3JkZjpSREY+CjwveDp4bXBtZXRhPgoKcNcIAAAAHGlET1QAAAACAAAAAAAAAFIAAAAoAAAAUgAAAFIAAD7SkkmGhQAAPp5JREFUeAHsnQecXFd1h8/M7MwWdcnqbVe9u8m4AqKH0I0NJvklcUIS0hMS0iGQhDQSCClAKElIQjHN2EB6DBir2JZcJFmyrC5ZvW9vMzs5331zdt+OZpu0u9qVzrVn3pv3bv2/0d5vzr333EReg/QSuE2MRCKKlLCTXtL4LVfAFXAFXAFXwBVwBVwBVyCbzUpbW5scO3ZM1q9fLw8++KDMmDFDXvva18qrXvUqmTRpUhApUQpIgdBcNi9ZfXUojFZUJBVIC0QqEb92fXaxXQFXwBVwBVwBV8AVcAVcgZ4VaG1tlbNnz8rRo0flwIEDsmfPHjl//rwsXrw4wGkPQCpSX5uV48eUaI+2yvyaCpk+MyNjqlIFHKXAfAxSe66A33EFXAFXwBVwBVwBV8AVcAVMAaB0165dsm/fPmloaAiXLwJSG8E/eSIrW59ukI0/qJMly6tk+aoqmTu3XMZPSEmmHGupAqn+x/8eXAFXwBVwBVwBV8AVcAVcgYEoUFdXJ9u2bZNHHnlEegTS48fa5fH1DfKtB8+HIfs58ypk9fVVsubGSpk1Oy1laZFksotGO0f0B1ITj+sKuAKugCvgCrgCroArcM0r0AOQJuQEQLqhUR5+sFaNoWoVVQAdPz4RYHT5ynJZfVOlTJ2elvJMQhc9FeaVxgD1mlfWBXAFXAFXwBVwBVwBV8AV6JcCvQPpxkZ56Bu1ks/poiYdok+lWOCU0BVRKalemJGly8tlweJymTEzLamyaBifMXy3lvZLe4/kCrgCroAr4Aq4Aq6AK6AK9AqkmwBStZB2ZJktypzRKCiXythxSZk1NxOAdPGSjMyrycgEnV9alo5iWdzORIW0fnAFXAFXwBVwBVwBV8AVcAXiCvQLSHM5BVIdlgcywysaoZdkKiFjx6Z0sVNabnxJlSxcnNFh/DKpqkro/FIiF+C0k07jRfu5K+AKuAKugCvgCrgCroAr0E8L6cVAGs0bxRcp/yUTSV15n5KlK8rlljsqZdX1ai2dCJF2OdV3v6X+dXMFXAFXwBVwBVwBV8AVKKXAwC2k+Wj4PsrMTJ9YRJM6vzQtk6ekZcGiMrn+powsWZGWMWOTkbVUrarqZj/EK1URv+YKuAKugCvgCrgCroArcG0qcIlAiliFcftwVEhleF5X46fKUjJuXEpmzk7JgiUJXfhUIXPmp8P80jCMr8lCXGPZa1N3b7Ur4Aq4Aq6AK+AKuAKuQEGBgQMpg/SBRSFLTsKHMLcUIM1LmDyq80vzMnFSXhbqgqcly3Q1/qIKdRmVCU71Uzr3NPArWTiY+pfRFXAFXAFXwBVwBVyBa1qBQQLSCEojII0IM5HoUGE7FFDzct3UMlm+cozccvuY4Mc07PaUURjVGAn3XXpNfwG98a6AK+AKuAKugCvgCgwYSCOMRLgu62gko5k6C0Cqt5OJXIjFJNKydEpX3yflltsq5SW3VUlNjTrVV5+mBZSNhvH9ebgCroAr4Aq4Aq6AK+AKXHMKDBKQBltnQbwIMRnN52o+nBTmmOqFCZMyMnNmSpYszehWpBUyd146DOOH+aWFHHxF/jX3PfQGuwKugCvgCrgCrsA1rMBlACmqddo3L5JQMy4AaeGWwmgHkKrkyXajU6aUSfWCclm0uEwWLSmXqdNSUqkW1JQO4TPM71B6kaR+wRVwBVwBV8AVcAVcgatSgcsE0p41iSykipYKogWbaQE0NQ2uo/BdmknJtOkJWbE6I4sVSufOz8iU63S3J130hNN9X/DUs75+xxVwBVwBV8AVcAVcgatFgSEG0mjI3uyokWiAZnQlXwBTFkDNr07LDTdXhhfW06oxOu+UPUo1+MKnSAd/dwVcAVfAFXAFXAFX4GpUYMiAtLRYhqbMLiWokyj1EgWYlil9jlEIvW5qQtbqwqfVaypl+gydX6rD+2pM9eAKuAKugCvgCrgCroArcJUqMMxAaioamKr1U8fldbppGJ5P6vzRsnRCpk5Nyzy1mLLwadHicpk+S1fk4ybKwdQE9KMr4Aq4Aq6AK+AKuAJXjQJXCEjRz6AUaymLmExThvQTuuVoma7GV4f6Cyp00VOZzKtJqqN9XRClrqIAVw+ugCvgCrgCroAr4Aq4AleHAlcQSE1AwDSCUq5EYIpT/Yyel8uYKrWWzhNZeX0qgOmsOWnBsX4XwJLKgyvgCrgCroAr4Aq4Aq7AaFVgBAAp0pm11GTEZRTj82kdzk+rRZQV+a2y5sa03PmyKrn+xkpJlXW3kuZxM+WUagL2eXS9+pTII7gCroAr4Aq4Aq7AMCkwQoA03lqDU4BTX/lksIYCpdOml8utd1bIa16fkXHjyvR+ZF01DgWySGOf47n6eaSAzdd1PVwBV8AVcAVcAVfAFRgpCoxAIDVpIri0T4DmxIkZue3OKnnDWyplwsQyyeXy0taWl1w2L2ldDMX8UrOSRnDKFIDultSu/K6ds7g1tEN3J2hvz0tzc7vukJXSxWIpSanPVw+ugCvgCrgCroAr4ApcKQVGMJAiiVlLo7MuIB2jcFomLS0dcuxou5w/m5PKipTMmZ+O/JdiPC2kdSBVJQqW47a2nNTWtsqJk81y7myLbts6TmZMr1R3W2kE8+AKuAKugCvgCrgCrsAVUWCEAymasJEoYKqr7CemCxbSCEjr63Ly9OZm2bWjTa18ZepUv1xmzyvTeLYaP9L0WjaSAqMdukasuTkrJ081yd69F2THzvNSeyEr69bNlDVrpsiUyRUBWh3eo++Lv7sCroAr4Aq4Aq7A8CowCoA0QtJoyL47kNbVZeXJjc3y+PqsHD+SlilT22XlmnTYirS6pkzGK5gSgoFQj9cKmMbniWZ1OkNDQ7u88MJ52bLlpDyz7awcO9kms2eOlXvvni+3rJ0qkyaVB42uFX3Cl8LfXAFXwBVwBVwBV2DEKDAKgbRS55BiIU1LnVpIn9zUJBsfa5PDB8rUqb7I+PFJmTFTpGahyJLlaR2WTqtPU92GVFfl29D11QpecRBlfu25862y/0CdPLf9rOx8/oIcP94stfVZyeY6ZO6cSnnHPQsVSKfJJJ2bG087Yr6dXhFXwBVwBVwBV8AVuCYUGIVAyqKmwpB9fU6eUAvpxh+0yYH9WEM7BJ/5FVUJmTw5IbPmiPouTcp83fWJbUjHjuu+gOdqANM4SHIOdAOiR480ye69dbJDQfTgwSY5faZB59xmw/2ULgCbN6dK7rtnkazFQjrRLaTXxL92b6Qr4Aq4Aq6AKzBCFRhlQGqr7AHSlNTXdSiQtgQL6cH9wFibIin+SJNh5Xgmk1NraV6tpWWyULcgnV9dLpOnlEl5eaJzZXlYXz5KF5kDoExoYDoDVs+mpqycO6dzanfXys6ddbJ7T4McOdas80d1Hqlqk8+3qzYd6pEgpUA6NgLSm33IfoT+2/RquQKugCvgCrgC14wCowJII+iKFjXdeodaSN/aBaRPbmyNgPSAqBuoFsWznOQT0Vak+bySpp5XVeVk9pyULFteKStXV+qWpJG1tExX4xuQjqYFPdHUAwA8+p62t3fIuQutcvBQnWzddkq2bj8nh49kpbEhioMmgKg6fNL2dkgmrVuxOpBeM//IvaGugCvgCrgCrsBIV2CEAmmxyVLJSx3kTwir7CvljW8bIxN0+1AspE9uMgtpXrLZZoUujQuH6rEjEFtekupns0xfVVUis2aXBShdsbJCV+Srm6gqW/jE7lAh4Yh9ZoAoTQKemW7AZ1bP79p9QZ7delpB9IzsPXBeWtvUYtquCnSwxWpSdVAYBdIBU9Ulk9btWGeNkfvuXRgN2fuiphH7zL1iroAr4Aq4Aq7AtaDACAZSg9KCGVCtnaWBVOeQPqbWQR2y7wTS8OSAWACzkF5PdbMn9Vea0WF7nUM5LyULFmWkZnFG5s7NqJN43aw0YtMC9I2cxx+4WkESEI2AVKReV84f1AVLz+sc0R27zsnBww1y9lyLNDQ1R+0O6KkNQgMNqBDONI+Mrv6ap4ua7rt3gaz1Ifugj7+5Aq6AK+AKuAKuwJVTYIQCaYEMu+miQDqhTP2Qxi2krLJvlk26yv4AQJprCsAWknUSGJ/4oC8si6ILmzT7sePYirRM5lanZOmyjMyeq26jrivrtJhigRwpIQLSUH2pq22TkyebhNXz+BPds6dejp9qlIbGtrBzVRieL1Qcmygtx4drhKO0P6lzSHXIfq4C6T01DqRBH39zBVwBV8AVcAVcgSupwCgCUh2y12H6OJDi9mlzDEhzucbgBD4Mvl8ElACpSg3d6fB/IplSN1EM43foML5C6fIKXZGvYDonLeO1nDC/tEClVwJODUL5crDdJ7ssAaP79tXKdp0juvP58/Li0Qapq+/Q+zpvVueGAt3UlaH80FTOw1lK7/GBq4kISOc5kKoYHlwBV8AVcAVcAVdgBCjQK5A+vrFRvvlgrVre1LJWgJyI6oa65iUspDoXMgDpHV0W0sgPqTrGL1hIewdS6hzZCznrhEyFNOadsmp/3vwyWb66XG5cO0Z3L0qFYfwQDzpUlhuOhU8RiHbNFQUuGxvb5ciRBtn8pC5YUsf2Bw82yIU6XTXPfzo/1NoSqhmmKACeUaDFedUuWEkdSAuq+MEVcAVcAVfAFXAFRpICfQLpQ98oAKnCTxS6YGfoGjJUQEqNrR1We2CTRU8pdQeljvUnJMKK/BWrKmTV6gqZpv5LU+pUP6QkKidDJAHwaQH4ZfX8gQO1CqFnZOvWM2odrZN6dWyPtTSnbp7gy1iSULGEzZm1jPSoy7r0PalHKu4W0pg0fuoKuAKugCvgCrgCI0CBfgFph1pIu0BuiGismxhDCaRWUBf8wWnWKnZ0YuX9tOlJqakpD/5LqxeWy0wd1u9SIUo7WBbTCCrJM6pFa1tWTpxokp072GHpnOzbXysnTjaHLUB1dL6TQtU22pnGWlUKSCMYdSA1jfzoCrgCroAr4Aq4AiNLgT6B9OGChfTqA1IeRAFKA2kyB1ODWiaT+h9zSMfrzk6z52Rk0dKMLNaFT9NnpML80nQmimoAaUPmdrW/x+4gmpeWVvUnerZZDh2ul526cn67bvl5lHmiOjyfzRbqp1U2MI4sn0WlRUzb7SItIq5bSLvJ4h9cAVfAFXAFXAFXYIQo4EBqUFo4Rq6VlOoU/JJKmhld+DR+fEpm6Sr8G26ukAXqJmrqtJRUqhUVa6TB6ECtpQajHFm01NiYlSNHG2X7c2fk6WdOyd79dQqiuu98Vk2iGomZrpQVpTMovZg+8+ydWhSSuojLgbRIFP/oCrgCroAr4Aq4AiNGgZ6B9Hi7bsvZKA9/oy5yJ2QkVGKYePBbMxxD9tQaCymveNCymZypOxslAwjqvURK4TQlEyeV6Ur8tFy/tlzW3JgJrqMiSLRFSBrVCDWeZdE5AEogLnNBL1xok02Pn5AnnjgpL+w5L2fPt4hejuJEh053qhfXtxChcHAg7a6Hf3IFXAFXwBVwBVyBka9Aj0B67Gi7bFrfIN/6Zq22gq0nccqurw6zwAGNdk5Di8GOa5carhSQ0h5eQKm2R6EUy2T4HIbxUzK2KqH+ShPBf+mqGyrUXVR5GMaPWkpcfH2GQ3Qp9t61aEljaFT8iT6nvkQ3bzktewFR3Ye+sak9sopSMppb+s4fBNGFYJ3tvGmRtOySQIye9rwKi5rUMf477lU/pGt9L3tTz4+ugCvgCrgCroArcGUU6BFIz5xul6eebJJvP1QrTU3q5RJflwBQWNodDQF3VfkiMuq6dUlnVxpIA1LS2MKLRkR1SukwvfqVV+uozi+dG1lMFy4plznzMjJJXUWRhFSluBD9sIjWqj/R3S9ckJ0Ko7v0eOBQvdTWteq9gsYUVwhBbs7jQMpUAb1UYkG9lltCu1B3B9KCpH4YoAL8kOJV6seO/ciK34ufD7Aoj+4KuAKugCtwjSpQEkjpUBobcrr7UZs8saFRDh3KyelTLdLcpK6GOhRGoaTIDhhkwx/m4IYSUDUofkhL1bK47gajHLln96PP2CxD61UjFj5NmpyQmkXlsmxFhdQsZH5pmVRWJjtdRVmJLEqqr2+X48cbdHelC/LUlsiN0znd7rMtF3X4xWVZ6VENCvWIUWjsNBQDBBfss4ViqSkBPR1IgxT+1m8FDDZJ0BeQEsdA1I5c8+AKuAKugCvgCvRHgYuA1BJhkGtvy8uF81l59qkm2fp0sxw53CFNjaJ+MLMBfAqIpEZTkJRPBkCWy6UehxNI+1vHztYWEuhn/R8ITGcSCqZl6iIqLbfeUSXz1V0UTvxxIUUARs+ebdF958/Jxo3Hgk/RC2ol5ToAGVbLh+x569KwQ6cMELgabqNzuK1QHF0I9+2NW92V44pddSA1nfzYPwU6OvQHaME62tbG9zWrIyWFyc18s/TLn0yqTwp9lemvs5T68uXlQNo/fT2WK+AKuAKuQJcCvQIpGMSc0dbWvJzURU7PbW3WYfxmObAvqzkoSEGtoJLSURc6BWLqKuGSzrpjVchiyCykA60gLaXd1k6GMvWTVjmtK/KnTkvKHS+tkpvWVqnLqIqQ+YtH6uV73z0sGzYcl8OHGyWrw/bRwiZN2GltjucZ1akbkEYEGuDfyk9EdBpFLtSou3LUkRdXeUWfw172/ZxDalYyO2omwxqAHQ/DqwDP2qCyublZTp/WOc579+puYUfU80NdAFPuV1ZWypgxY2Ty5Mkybdo0mT59ulx33XWSyWQCpA5vrb00V8AVcAVcgdGsQI9Aao0KIKLg06bW0toLOTn6Yrvseb5NdmxtkVOnOqS5BRhVQMV6B1MVQC0sxwGY9P9w2TLs17EEhAwqkA68Rl3VjqflHMgrXNPT8sqE3Kyr8O96+VhZvWZMSLZ12yl5+Ft75cnNJ3U+ri4Qk5SmwNG+/heS8mZ5hSThrQtIzTJKrKgsSjWtw2nhDc8AXYFYlKJ64voJctZPAwFSy+tKAKlBkdXBj0OvgD1n5jNv2LBB1q9fr/5wt6s/3KPqmqxRdw9rD1ZSng3W0HQ6HV5jx46VuXPnypvf/Ga58847A5hSW3+GQ//MvARXwBVwBa4GBfoE0gL/BPZhtK5VAfTsqazseaFV9u3O6r7q7bqrUKt2VMCSRghABGhFgAWTxhGpf6JF4NQt7qAD6cBr1a0+3T4U8tJqJ3Ve6fXqEmrdK8aplXRskGPLluPy4EO7ZcvTp3ThEoBYptfL9IispC1dF7WjhlJCjIKFtFuxJT6UAlIc/ecvEUgPHz6sz/dEgJHhggugCMtoVVWVzJs3L1jgAB8PQ6sAuvOqr6+XRx55RP793/9dNm/eLC+++KL+kGoK9wxYqUn8+4BVFCB9z3veI3fffXc4L44ztLX33F0BV8AVcAVGswJ9A2msdTAmEAUgtTR36JzSrOza0Sq7drbIsWO6aEd3FGL/9RBPSRTYwktUhFukJNgxuhpd4z3+mTj2KsQYsUAaq7dWOZXKqwP9cnn5K8fJjTfFgXSvPPXMSR3uRBe1kOajrUhpdwSlpkuhvXoYCUD60EMPBUsZw7XDMXwO5DBPkTmJs2bNkje84Q2yZs0anZM7oUsYPxt0BQw0GZJ/9tln5S/+4i9ky5Ytcu7cuU6LaBxArQL2vADS+fPny6/8yq8EK+ns2bNDlFJpLK0fXQFXwBVwBVwBU2BAQEqiyIoSzoKFpEUtpsePtMvGHzTKc881y5nTOV0MpTiJtQWDqQIGVtIoxCETkDOYiyyBFqtraU4s/ogFUmodzSOlNRGQVhSAdEyA8y1bTqmFdL88pRbSsJBJm2VwT+pInlhbuahhcIGU50AZyQEN2X/oQx+SBx54QF544YXwvIcDMPiOVVRUyJIlSwLg/PAP/7DMmDEjfPeGo/wg/jX2Fv27zsu2bdvkE5/4hHz9618PVlF+HMQXN6G/vUwi7vO8li5dKh/84AflrrvukilTpoTb/rxMJT+6Aq6AK+AK9KbAgIHUMossKgo5SmG5bF47rw7Zt6ctrMjfub1FziqYquvSQFsRkBK3MDc0DD8bkBqM6mcblg7xIngyXGPVECvXb7ujUt74tjHhvK4uJ09uapbHH2tTF1X4+GzUzjPgoXaaVtNSRyu71L1LudYfID2oQHq6AKTR6mWrYnTk3a5Edbh8ICUfZpCq9gzbh/wB0rTM6+eipj//8z+XL37xi7Jjx45gIS2Gkaimg/vO/EUWzCxbtkze+973ymte85qwaGZwS/HcTAGAkufa0NAg//Vf/yUf+MAHZP/+/cEvLnEMVuNwibWcz9wjPYubVq9eLR/5yEfk+uuvF+aUEuJpwgV/cwVcAVfAFXAFSihwyUDamZeynS20aWzIy6mTWTl8QBc+7WqX53c06arcnEIYcbr8l4b4waURMGogCiQWQtgNCjgDYAuQ1m8gjWrTe0cYK8vKvKxjf4D0QAFI2fVK6xirQheGdp1RHdM1Oo8qiIstC8Wr7EkBehYHkDS4luKu6mhA+k52arq5952aGLr9whe+EIAUTXvXVWsQb1hxRQqfe8uDewCOA2kP4g3BZX4AAJiHDh2Sr33ta2G4vra2thNIrUiezcSJE8P8UIbnGaZvaWnRjR5q9d94Vqqrq+UP//APw7xf7hF6e9aWrx9dAVfAFXAFXIHLB1LV0CCE2ZE53ae9sT4vx47kZMf2Rtm3t1VOHccpfFJa1H0UuBS9K4walBb8bXY+Dl34E4HopQCpWh9JrZ3n8IUYkOqiphtusjmkvQ3ZW/0uBsje6h35fI3UKQWkqHtxQMeChVSBtEy3mpo3t1Luu2dBn0D6Z3/2Z/KlL31Jp2M8129N+T6gf+f3onDen2di6YqBFJdCHoZGAbOQPv3008Ea/tnPfjaAJqBqgeeC1RNr9Utf+lKpqakJQNra2hoWQQGm48ePl9e97nUybty4YZlvbHXzoyvgCrgCrsDoV2BQgNRkiAAkAi3O6+tzuuipRV7YkZVDBzp0l6KsdnTqJEqhNc8E0wQdHsciiBrVQJooAOlYXdQUB9J9sTmkZi22dtvRlOz5eKlAGizUAdILbp/mViiQLuoTSLGQfvnLX9ZtTnf2CaQ8c+CGl8GotcRgFEsc7oJ6C6RlhT1zElkk40P2val1+ffQm+fz/e9/Xz7/+c/LV7/6VXXz1haeoz03jszpff/73x8WLdmQ/OWX7jm4Aq6AK+AKuAKgYDE5XKYq2reFEHVyWoB2ZOfOZuWFnc2y4dEWdQyf07lqeWlX5/D5PMPXDNsrxIZjIXHOLKN2JEp/55BeaQvp1QWktsCFRU297cLDc8ZHJe6BWKlNsK8W9zgnPdYzYAYwtfshcuHN8ikvL5fFixfLz//8zweLHA7XPQyNAtG/1YT893//t/zTP/2TPPzww2EI3iynPBOe3etf/3p53/veF/yM2rPjnoX4uV3zoyvgCrgCroAr0B8FBh1IOwtVtgxwqv1VTvdqx01UfV2H7NjWJlufbZGDB3SoryGn9+jQgNJo/mNA0jCHlJy4B5RqcCANMgy3hXTPnj36I+JwgMyegANwASCPHz8erGxf+cpXAmyapZR0AAyum970pjcFV06AKVa48GhjUMNn0gGsDAFjlZs6dWrIP0T2t0FVIA6W+B39x3/8R/mP//iPbkDKs+DFs/v1X/91uf3228Pz5JoHV8AVcAVcAVdgMBQYOiCldmYtDTWNPrD6/oi6iWJF/p7drfLioaw06+5FYeETUXT4nrmR0TxTgJQXh8G2kBYqF+Xew3uh7B7udl1myDNqbkr3r4/mkA7RkH1XoaZM7AptKtWuaFFTt52a+jlkz9xA5gkyn7AUkAI0vPAbeuDAAcFvKfNOgUp7GZAClr/wC78gP/MzPxOspDZHsThfgySscrgTYhHWUMKPlWdCFtfHrhOvt3sWL37sKX48Tm/nVreB5tOfdMSxeOhrQMqRRUrco1zu8XrrW98qv/Zrvya33XZb54+G4rr3VU8rr694lu9A45PO0lgeHPtbXjxNqXxK5VUq3qWUFy/bz10BV8AVuNYUGFogLaip/Rq9RIEtE9rZ6W5PZ7KyV4F0z65WOXQwq/5LO3Q3oHwA0wiq4nCltDeoQBrPu7dHDpD2B0qHD0h7q22XbsWxegHStbrKfmJ59Hh6aGqpDjdeAvfpgPft2xf8V+KL0mCUI/eIw37nWNh+8Rd/MQCp3YvnVXxOOsDVXnzmZYG8gSXglZfBk93v6Wj5GBTH41kexVBhbQLWiAOEc7Q6xutl+VEn8rG8iMO5pcFKzIp0i2fpOFocK5cj1zjGg+UfrxPnBCs3Hp9zy8fyoi3/+Z//GSyk3/nOd3oEUub03nrrraEOxXlTJu3oLVhb7Hlam+JpyMfysmdaXFY8vp0Xt8muc7Q8i/MxjXmmlGXl2XWO8UB64sTziceJt8/Ouc85dUBnfmAV52FlWF4c0Yh0duQaL8omH3vF62L5+NEVcAVcgdGmwLAAqYkS/UGNOkn9m1oA03bZ9kybuohqV2tpTs6f65D2bE7/8NLpRh1vHkemAOl49UN6Z19+SPszh/RaBVKeRMExPhbSexfqoqZpvQIpz4xgx/Ch6M06271794YFMX/8x3/c2ZFaB8oRCylAA5BOmjQpQA+daXGHSlxedMRYZ5mTyou91PkMPBCsY2a6APNSbX4qK/Tp9IvzjVebPPC7yYuyCHYkPXlhnbXr8bpcuHAh+N1kXiuLr5g7S/1se03KtbzIBx+d5gbJ2mXukk6ePCnsaoQexOE+deNFW5ubm8OKd/LmMwBr+8kT18ANOLF6Ux71QhcDrNCQ2Bt5kSf1IB/i/t///V9w8fU///M/oXyu0xaDOTYo+Omf/mm54YYbwrMxfYlHOeQxefLkED9WVDjlO0K9KRfN2Z6U50n5XCcPAvmgg7UF/WgLz5NXbwFtyJd2xQP15FmSF3W0snim6GvfL6aUUH/ikBfurKhvPFA34nFEF/IiH16koT2UTxvJm/S0j3vki9ssfpixcUBxeww+iU8+6MPLvgNct39r1IHvH/VFK3sW8br6uSvgCrgCo0mBYQVSE4Y/4oX+Ry+pqyidY3rsSDbML31mS6ucON4ujU10zNHCJ9LhS3PChDK51YHUZCxx7Am0zUIaKZlOpyK3T/eyyr53IC1RyEWX6CTpEJlvih/LP/qjPyoJpHTEv/qrvxqG7emYLV1xZ0rnTkd84sQJ2b17d1jhD+wePXo0bGVJZ01a4AVYoVOeM2eOLFiwIDjTX758efCFCaRZKC6DLTGfeuqpsDMR+QEX5Ml3Ex+bWAGZv2rAcfbs2WAB3rp1a0gDlLH6v7q6Wri3fv16oY4AiIEKUHnzzTcHR/Fsg8p1wOT8+fNBK/aJ/8EPfiA/+ZM/GYbBAXbSA6ls1Xrs2LEwL/fUqVNBC+psYE4+1M1AECBH33nz5oU6LVy4UHiRJzBG2fHA9ApceeEAH9ABltj8YOPGjfL8888HwCJ/dONFejYqWLduXfBDShrTlHhAEbqx1Wsc5ImDrgAac4zRaNeuXcHnKW08ffp0uEccAvUAtnDzRVtY2LZo0aLQJtPQ2hEvnzqgE5rSLvLjPtepO98NphpQR67xbIjP94utUqnXHXfcEdqHjtR1w4YNoZ58HwnkB0i+8pWvDBoApTwHfqDwbGgPvlxJy7xr2sZ1wJb2Myd65cqV8rKXvSzkQZ14ftQHPYnDd4nv+YsvvhhenPPv4MyZMwG2+X6gNWmpLy64Vq1aFQDZ9DB9/OgKuAKuwGhS4IoAKQLp3+DOoH/ntSNWN1G1HXL6VE52Ptciu3a2yvFjCqaNLIrSCADp+KQCabnu1FQV4DTaqalJNj3WKgf3A7bN2hEp7Op/OJ+//EC5/QmUp23SqEM9h7T32gwASOeZ26fpvVpIey8vumud/2AAKR0zsPT444/Lo48+GuACgDNrGgBg8ELpZlEDgoBTQIYOmhXha9euDUCGJYpO3wCF84MHD8q//uu/yre//e0ADNZO7gFAWHHxqQkIAGjACQALuGABe/Ob3yw/9VM/FQADqPvkJz8ZoBQ4iZdDvLvvvjtYFYFJfH3StmeeeSbAIMDye7/3e537vwMyn/nMZ2T79u0BmCiLNpulDX0AJOppbQK4gG+zLKIDW60CP6997WvlpptuCrBKHEuDNfQb3/iGPPbYYyF/6ozGwBNlxjXmHmUAQvyQQGt75uhGnlh4X/KSlwg7ewFeBOJQdzTbtGlTaDfuw4Aus/pxHzi0ellbAFPKAbQBUX4AAILsAgUU0lZLwxFNeE7//M//LP/7v/8b8g+V0Dfqf+ONN4ZnSh0BPOpB23keQCR5/OiP/qj8yI/8SLBYs4Uqz5TnRF0J5EOdfud3fkduueWWAJFAPHGZrgKQ8jz5gUMa2sbzsmeG/rQH0OYHD9ZmrON8L/i3Qz60gfqgkX3nefZxndDIvuu0h3pTH/Kmjh5cAVfAFRiNClwxIO0UC4bib6geOc2259VCit/SNnWq36agqZaMEx3S1JyUcWNTCqQZecNbK7oD6XqAVMG1XS1nISuFj5BbZHXRS0XB/mjbsej2gD+ORiAtVz+ki9VCOjKAFCAATOjgcT/03e9+N8AoVqw4HPX2aMgDkMHCBYy94x3vkJe//OUBAOjE6ayJwwtI+od/+Af5t3/7twAR5Gv3sD797M/+bOjksZ4BU1j1AA6ADcB9+9vfHqy9wB4usf70T/9UGOoGSCiLvKj3D/3QDwXYxDKHdfWJJ54IeWFFwyJGvN/6rd8KIIRFFosdC4eIS1lWr3AygDfACTjHQvu2t70t7C8/d+7ckAM6sHDp8+pzlBX1AFRcG+pkn0nAuQXO45+JSwAaaetf/dVfBQsnbQe00O1b3/pWgFF0wmrIc47nYXmXOpI/UxBmzpwpWL6ZNoCFkWcElBLIizwBur/7u78LoA3Mcd3qB9C++93vDun4YcFzoD5Yoc16iaWa515dXR0srTxTnj15WeDZ3n///cHSyrPm+4o1k3YxXQBwjLfNyrf0HHk2WPRZJMaPHwCZ7xk/kjjnRw0QSlrLqzgfrvNjjGeK7tQbazKg6sEVcAVcgdGowJUHUlOtAKT6dzaE5maG8dtlry562ru7TQ6/qJfzKbnx5rS87k3MxSrTDo+97JvkcQXSAwakrNDXPLqAlA4z6jSjnHmnkEJBXRcv42w0AunIspDSAQNpbFPKSn06eq4RrFPu7QERh07bOm6OWDh/4id+IlgJGdYn2H2smuxIhEUNsCA9EMUL6yLDu6QBXrCmATyWHhACjFighYUK69if/MmfXASkWO2w1q5YsSJYMLds2RKsXwYtViZeB7C2YsXDOox1lrgAjsGtlR0qoW/WXvvMMX6NdvIZQKGu9913X7AwYr3kOtD/L//yL8FCjEXUyqH9lta0snw5Eo+jBYtbU1MTIB1rL3M1qTu6YYX95je/GWA+/jwtT8unp6PVwe7feeed8q53vStAWHV1dWddqDdW5U996lPywAMPBCsvZZg1mfphRQTisIoC/pY3R6yL5Iv2gB1xeKZYxovhlg0byBsrJhZ0yo4H09KumUZ2JC3WUiAe0AZmgVH7jlk64sWD1ZdrVgY/jrC4fuADH5BXvepV4btLuuK08Xz83BVwBVyBkajAyAHSgjraN4TA32LO8V/K0P0zT7WF7UjnziuTl7+6ogSQaueDhVTTsCtR9LeczOgsmANWyDjKXd+7/7EPly/5bbQAKW1mp6b4HNK+V9n3JQsdMh3gpQ7Zkz+WUIZaP/KRjwTLFcOc1ukWd8Rct0DZvOKdPXUBRIjHcObP/dzPhSHSeCcNRMaBlPwMLIAFG+Y366GlpRzuv+IVr5D3vve9wfLIMPuHP/zhUH8ghWB1xhrGObBhdbK8iEeZWFtxh4XlDyhnP3gsmMwlJa61jfjxtHzmXvxlcYjHizKBHqYNYCEEeglYRpmywDFuAbS8rFzLz+oQ1z5kpG9AHhBHO37zN38zQDCWUUAUiyWamLaksTI4p5x4nnbPyrM41hY+A173q5Xy3nvvDc/J7jF3lGF2A1LyoFzu8zypJ3rEfxCQH/EA9ze+8Y3hmWJdx2LJ4jwspFhQLRDXAvkS4vXnc7xcPluwtKTjFdfErlmexLWXXYvnY/G5Rt35/jDdwH78cL04Hdc8uAKugCswUhUYcUBqQsX+7mtnnpeGesA0p52KyJy5KRmjw/d16mj/iY2Nsml9mxzan9R4Ooc0/CFXIBWNiKk0CYy26wswtc4kAjMr6/KPowNItYfSXor5hhGQvvOehXLLzQqkk3p3+9SXPtbpXyqQAkQMt3784x8PQ/XMGSVYB86RTp+hWxbpMF8RuADyGNZm2NWGOK2uxKdeWCjpqH/pl34pdNx2vycgjXfi8XOrC+kpmzmAeAxgXiMWLhZyAdRYWwnEj6fnmtWJc7tHPBam/MZv/EawZAJv7I7FVALmEmKNtVXznBsskxdpmavI0DgvNLB8KYNAHOq7ThcjMWfxnnvuCZ8feeQRYQMD5pJiISUO6W3OajEskRfgwxxSpkXYM7f8WUD1lre8Re5XUCQfA17KIRCfuATqyDltoW1YVAF34lA+AMjRygiJ9M30w5pJWX/wB38QhuDJj7i9AamVa3lxtPpwTvk8S6ZLAO0ANc80DqTEpyx7WfriI/mVCqSzQBraUxz6kxf5WHrO+V4wV5lhe76XaMr9eHnF5fhnV8AVcAVGmgIjFkjjQvHHFddPDONzXlHBkFdCYUSH7De0KJBm5fChlFo+6vQ+8Mkfel3AoVCaSACkDLd2H1bTblGv9ScUxzOojacd2UCKDqG9dIiJVLAWzZ1TJe98e7Xcsva6Kw6kzJtj/iWAwTnWUet0ed4AUHV1dQAF5kQyR5ROGEsX8RleZXU4FkWzfhm8sGKbIWusXQxtGsgVD9nzNKPvWe8dORBFnmalAwCwahZbSC2/OBRYm+webWCBDnkBi3fddVeAMcCWeZfMJWTaAADOUDuLitCCF/UAwoA3ymc+JFY9hpDRwMqwMtesWSPvfOc7w6YE5AeQMx2BRTSAPRZE5tWyiIcjlkT0ID0vdMNyCDwz/5H7ljdHfihQBjCHtkyFwAJL3Uxzy48jw9Ws2seyigUXiCJPwJqV5dQLKOTHipVFm8iLwPeAbWUZZjctmOZRbCEtfqZW55BJ4Y3nQP3xEABQMyRPXsUWUqt/cR5cB+h5PsCy/YDge2zD+hRl6YvPC9UIB/ImHwN1fgTwnPmhww81LPYWTAvaz3eHH0jr9IcH308ProAr4AqMNgVGDZDyh7o4NDR0yLanWnUeaU5e2JVQq0qDWkj5gw184k4FIAUg49ZRcrk4L65eHHqKVwylIxlIaQOduFpV1DqaTNJxpmXl8onyljfNldWrJquFilXoGqOn5l4sTLcrZsm6FAspnTTg8dWvfjUsDAI+4oH7WN9YLc6cUCyeWNTohAEpoA24Yg92oBRAjXf8fG/orBkGBx5tKJ65msVD9qSLp43Xw+ARqAVYGF4nX1ZJY8m0OaQ2ZE/anvICOABRFjoZ5OHCp7q6OsA4i2QATLSgrcAJaag7L9oOAKE71khABYhkmB+LJNMfKJtg8ETeABcWQICSdEAOFmbikifzJR988EH5/ve/H7Qlf6DHXiye+fEf/3FZvXp1KNv+TZIeSAZ0qSur11kwxpA9zygej/oD2eQF3AKlcasrwIXFmfmnuBADDHnGlMHL2k0bGGJnVzAgkHvFFlLaTxu4Z3XgmgXqzMIvtGGoG5hj7jDtAO75kVHKQkp68kQzgJFnyY8k8uKFf1DywMrLvFb7Xlq5pI0H9OX5koa0NreUPLnG9wA9+AHB3Fc0JRiQogneB973vvcFV2Q2Xzpehp+7Aq6AKzDSFRgVQNqTiG1t+bD16HNb22XrMzntyNq1E2jUP9jqaLuDYS2GNaNOuac8er8OofGKBzqT7h0KnxMajatX3O1TaHC8vli41EKKZTSjbmfGlcmMqeVy+63T5fbbpiucjFVro+kUT9f/88sBUqx5rHhmiJp91K2TtU6bz4DH/Wq5wpIIfBQHOmwsY1/84hcDSGCZIpCWfLDcAWKsNgcggJOeLKSkIw1xeNHZUybgSacP1LKyntXRwAJxgARbZW9AannE20FeWDoBUSyJ5EWe5MV1AIeAngSrQ/jQxxvQxjA50x6Y/gBwkh4NyA9QevWrXy2//du/HcoDxgjEscBCJyybLCoDeuy5kgd1x2sBUx9YyGXts7Qcic8Ugq9//evyeV3BD9jG8ycN1jugj3w4AmDFgbLRkR8MQCk/WOyZkh/58EzQj/rSNuoI/MUtpFYnjlZf0qMzoM9z4FlSD1bh19TUhOfAd5JFZTxTYLLUHFK+RwAjq/35kYSllx8rXAMIeZ5ogZ9ZFurxQ8G+j/Z8qRc/dIhfXV0dfpzwY4c8sRoDuuRDwFUYC8TYRQsrMsG0JV/AnmeLuzPSeXAFXAFXYLQpMKqBFLFxE3XubIfs252V7Vub1FVUs5w7j6Np/JfqW2BHOl1eBpJdnTB59BwsXTwGeVg+dn2ogLRUPYvLtjpwVCtSoW7WWRE7mcyoZU1X9c6olBXLJ+hw51RZtWKyWqa4Hg2BxnMZ6LmBy0AtpEACnf33vve9YOF8+OGHQ6dN+QYQgAMLNlglTscPfNI2XsQh0CEzzP3pT386dPx02Nw3AAD4sOwxxAsQca+nOaTkx30C4IL1DgDDCT4rvHHNZJBAHECpFJByz9rAOZZBQIE8WBBl1kGu9xXi+RDX2h1Ph2URayKLwgBBrIymAc+HsnGBxSp43CcxZ9IC+aEVW4diacY3azGQcp+FUWxsYEDKNYLVj3Kw1n7uc58L81NxXWVaEocXbopYyf5jP/ZjwRJo6UNGsTfKx0r5l3/5l2E6B5Zc8uJFPoAcVk3KAsYA7GIgJZ7Bn9UDvYHG22+/PVjdgVEAEMAkPvGwbJYCUrvPEcs2P5CAfKAWsKZOVo61ix8H/Nj667/+687vo9WJfADPdWqZxXqNFwCglrbE8yEvLOZYr2kvFnnyIA558GOB7yX+UZme4kAa+yL5qSvgCowaBUY9kOrfY8npoifml547k5U9u1vkhedxA9UuZ07TWfJHG8fbZnXiWvz5lII+uz9UQEqd6MytIna0cu3Yd/nEMAgFulnH1RkUGDIKopMnp2X18imyZvUU7bgmyswZVTpEyL7d5o2gM8UlnVjnOFAgpTAse4AQHS2+Rw1yuEdHiwumX/7lXw4+G7FC0QEXB64xnPn3f//3wYJkbpzIi7pVV1eHxTysAMcaRUfeE5BaJw8IAzpABy86fKADWCBfyiQu4FQKSLlv8SiTYW6mHQCjQAfWVVuBTz68egql2mxx7R5WPerxsY99LCxUYqGXaYkGlAcE//7v/36AKQDMgrWlLyBlFX18L3ueD8HqwI8FQJjngDWP+pgGxAHY0BR3WYATelrZ8bpYnjxH3BlhcWVurOlEGvLlhwZlmVP4noDUtEUDrOX8uFinEFijFlGbLkAcqwuWzVJAavXiyEK5d7/73WEuK1qadZs8CPZvgqH2L33pS+GHgmnBPQJlYuXF5RewTz5xqCUvayvfVyzXbJqAdd/y574DaZDT31wBV2CUK3AVACkdQNSZt6u19ML5XHATdXC/7hCjVtMXD7dLva7Gb2+P5pEamFqarmNPT7IYFCivGIoGaiGlEy9Yl8ir0IldXIMoTlRHqweWkagO3WsB1CiAhXmz7FffoR1+RhYumCDLlk6U5UsnyexZY2WCWkUryplfq7lalhcXPKAr1jleCpACHVjk6GgZHjWIso6W4VisaUAEIAcAxgOdOh0y1kEW0QC1QC7XDTKYb8gqZOAGCOJ6T0Bq5TNvlakCOEvHqscQsQEY6a3NPQEpdbTyWYADcLAynDYwX9Dyop3EKxW4R+jpPvcsDkBKm7DEMfSOE39LRxwsw8x5ff/73x/g+HKBlDxNK6sDQMocXuoAPDFP1yCMOJQJmDPXETAH1IuD5cV12oTV78tf/nKnCyyLT9uqq6vDFAWszrSvNyClHsAozuhZ3MUUDJ6DtYF8KZt8+wOk73nPe8K0A6z2ls7y4GiW/N6AlLLXKRhjMWY6iaWnDqYD3zPiGZAyjYFz+/4Rz4E0SOdvroArMMoVGNVAynB9Q0NOWnUdU3lFUsZPiCx+rS1qLT2nMHqwXXY936LzTNVyo1uSAqbZHJ08Cx368+RKgQIJixMPBEhtdbJ2OlSh14qUBtJQvkJpVAurCwu40uF13eRKHQ4tkyWLx+gw92RdFDRRrptSIeWZyKJlxWq/NyjBOsdLAVLmCjJUz3D7k08+2Q1g6GixVLLghyFShiIZIo+DFp011ikAjEU5zDdkyJU41rGzSIQhURY2AaTWwRcvarLOn3RAJE71mS4Q6RXpHC+b896G7K18rIEADAt5zJJm+fT0AAxI7D5148V1e9k9qweWs7/9278NQ9ylgBRwA8qBwqECUiyzWGl5pgwto7XVlwVPtviG6QNYLIuDtZs2AXXMi2RuMKBrmhGHc+aAfvSjHw1TEbB0lgJSi4vu6xT++IHB9A9CvCw+2/e4P0CKb1tAshhIyYdA3QkAKfVn6oFpQTkEPgPmfMeKgTRE0DfiEo9FaywS4zvrFlJTx4+ugCtwNSkwqoG0UVfZ79vTKieP56RqTEqWrkjroh2GqZW0Aizk5fTJrFpKW2XXzjbZvzerCwISuuCD/cANSgENyMzAri9KI57Fta/CJQJprzBK3tQl/rJyIxjlPZHU+3q5rCytls8KBbhyuWHVJJ3XNlFXg4/TBR9VOszcfWjVOnar/eUerSO/HCBlVfbmzZs7O20DCaAU6xcww/w/68zjdSYOEMHcUWDUYMAAACBlsQdufPoDpKRjnuT9upCKXZQIxfBi9esPkGKdBToY+kd7e8XbED8nb14sTKJd8SMWWTSw+pCO9tNmHPSz+xKWZnOqz33iouFwASmQiNuqwQBSLKQsCioFpFibKWudgmYpIKXt9t1kKBz9AVKmHhDQJf5vweL2B0jx+cnCLOC+VLDvYF8WUsAcsMWCXipQJwfSUsr4NVfAFbjaFBiVQKr9CLwptRdysvnxZnnqiRapq83LslXq/uSmSqmuyai1NIIwjBHNutvTqRMRmG57pkkOHUyqZTWyYnR0RCuyI/Dj8Rr0cQ4MFgfux+Nwf4iAlEZ2mxRa+Mx16qZD9NxPJsvC8PyyJWMVpKbL8mUTFEQrwjzRJMBKDYs633BxkN6sI78cIC1lIY3DQvy8p2rTRl4WLgdI165dGyykWMIIlq/Vw/TsD5Ay9E8+TDsAHqlXT8HytUVKzI1l6BvLIwvAGMZG73igTqTDZyfWM+Zxmr9K02CkACnD5szl7a+FdLCAlB8zr1TH9wApOzwRTGvT0r7HwwmkwDQ/VhxI7Sn40RVwBa5VBUY3kKpj/M2bWnS3Jt1W9GhSKipbZdacpCxcnJbFS8qlZkG5XouADBdRjTq8fzKAqQ7lq8X08KGsDuPTMdHB6xAbQBO+CaThLEobLnW+cb0LeqLLAwFSWx1LccX5dBZSdBLVI5FQyA6urBieZ1ES7msSOkd0vFpqJumCkQkyf94YHY4t08UR+I/sWqhRlOGgfrSOfKiAFODqDeJojGlpR66Rhrqxkplhc3be6a+FlIUyDNkz1E6wfC8HSFnUBJBaHiHjwpvlj2UNP6IMea9fvz4sDGJaA5ZfrKPEs7jx9JzTVkAUSLZ4IwlImSbAkL0DadeQvQNp8bfYP7sCrsC1qsCoBtI6dmra1CyPb2gPVs9crlkBVGTylGTYXnSJQun8hRmZNp0tCiOrFGB6VlfjH9b5pfv3tcuBfSx8apO2ViymdPZ0Fj2BooFq8f3+AOl+eerpUwoVACmA07Vw4eLyLH8rz+ZDKmRKRkELf5a6e9H8cbJk6Ri1iOLbcqzuNlMRYHS4v8zDAaS0ySyBvbUvDmsWn5X6ONXHifqVAlJcTpmFtCcgRUfgk00CcPHDbkW4O2LI3tpFWmtXXAe7b0e750Aa/QDEQsqQ/f06DcMtpPbt8KMr4Aq4AiNHgasCSMNe9gdYBNEcQI+R7MqqvAKa+udbVi6LlmZ0pbTuEDMlpcCK1UzUktShC510GH9Pm+zY1qwr80XOn1PH3k3RlokRmBY/KANEA0a7318gPa1AaouagFLSW152jF+jvCiwgh6InThurEybWiU1NWPV2jRJVqycoJBVrsPzZcEiSmzyBXqHKwwlkAJUuEfC3RLWxWLg6quNxGdbSBaPfPCDHwxACtCxUrmnRU2UOdgW0t6A1NrEkDu+OxmmZoGOOUDnvkGsASnttnSmAZ+LrzmQOpDa98OProAr4AqMZAWuGiA9qECazTYVOmSlMSxJCnvsez9rTkpWriqXNTdVqOU0o3DDEDAWSgVTnV965nRWtj3bIs9tb9cV+ew2o6vx23EvFEEi8aLASecHuxiuAYDc6XmnJiykcSCFGAGIQja4cgofuBDdCxCqcZKaOauEy8vLZPWy69R34TRZvWayTFdH9/gTpWyCwYjBS3R16N+HEkgBUVww4aaHFfe2WKQ/rUIHhrlZ8AJg4j6KPLg+EoGURUCspGYlvM0BjUMmcImlL+6rEh1oD/F4DlhT40P7IwlIWZh2JeeQuoW0P/9qPI4r4Aq4AldGgasHSPcDH43qhzPqoCM5sSzRiYuM0R0nZ8xMqUWxUm5+SaVMm8E8ywhKGaqvr++Q40ezwan+01ta5NQxXY3fltP8mFuqq5o7n4+dGThy41IspBF0htTARChB89ELATC4oZ+SybSM173ma+ZX6VafM3R4frLC2RgFK/Y0HxzH9qGoy3gbDCCNr7KnKgAWFlFcPb3rXe8KTuWrq6vDop6BVJV8gHkW9TB0T56EkQSk1Id64oz9E5/4hDzwwAPdoJLvAxpj6WUOJi6pAGuDTY4EhvsfffTRMO+0eGej4VrUdPz48bDyfbDcPvW1qAkXUyyQ6muVvQ/Zh6+Iv7kCroArMGIVuCqBFLW1Dw8vhrkBRvrsCvVVOnFySqqr0zr3Up3GL8nI7DkKduomCiht0d2eLlzokKNH2mXvrsiH6Ql1KdWifk0Zwu90SK/wACySrwXK41PfFtJoCDFkQR56wnk+2X3uakLniVZUpGSROrZfvXKyrFwxSWqqJyhYqWN7vZ5KRVYxYOVKh8sBUhzjsz83q+xLOcYHwlihjp9GdkuirP4GII+ARoAoUELg+kgEUrZQ/fCHPyyPPfZYZzupK/Vn2gLzYHEhhbWXttizB0jN7RNbfwKlgKHdJ4/hAlLcM3384x8PjvH379/frQ44osdvJ47xsVb25Rgfa+/v/u7vdnOMT5tMk+rqavmbv/mb4KeW9hX7IeVZ23fTgRQ1PLgCroArMHIV+H8AAAD//8v3ATYAAD8fSURBVO2dB3wVRdfGn1QSSCP03ouFjgVQmqKiFKkCooCoiB1eRF8VXiuWz4oNK01BaSKgWECUItKk95JQk5BQkkB67nzn2ZtJbkJCE5XEM/ndbJud8p+9u889c2bWy0hAIQsssZcXkBCfiZXLk7F8aRoi93ghI+MkXFm14XF+GNdW0Ut2eHt7oXhxL1Ss5IMatf1Rp24xVKvhj7AwH/j5eznxU1NciD6Ujt0707B7Vzr2Rmbg0MF0h5IxLonjOpWY5MXg4+uFxk2LoU37IDRpWsJJb/Xqw5g1OwJr/oiVMrqyyuUtBZP84D7ReGXKflbMhcAAb1SsGII6tUNx2SXhqFsnFJUqlkBgoK9TfndOF89/l4t18sLOnTsxffp0PPfcc+C+zMxMhz2PsQ3Kli2LRx55BPfff7/wDnMqcPz4ccyfPx8ff/wxFi1aJPUTLhIYn+slS5bEAw88gF69euGyyy5z9jsRzvIf8/YMTJef3bt3O3mOHz8eR48edaKwzMyTnyuuuAIDBgzAkCFDnGM8h8Gmx22up6enY8eOHRgzZgx+/PFHHDlyxIln4zJep06dMHToUHTo0AE+Pj7ZaWRHlBXGI4cnn3wSmzZtcvjZ48zHcujduzfq16/vHLdl4TIjI8Op09tvv43vv/8e+/fvz86HaYeGhqJVq1YYNWoUGjRoIN+B4jZ5J2+mwfw/++wzzJ0710nPtqtl0qNHDzz88MO46qqrnHO4n4HpMzD+4cOH8cEHH2DGjBnYtm1brjL4+vqiTp06GD58OLp06YLSpUs75/GfrQvTsOHQoUN45plnMHv2bIcr4/DD/Mixbt26eO+999C0aVOUKFECGzduxPvvv48vv/wSSUlJTjK2Dn5+frjuuuswcOBA51riQaZj8+W2jZucnIzVq1c7bfrbb7/hxIkTPOwEW9d7770XDz74oMPSHvNc8tpn2LJlC6ZMmYJXX33Vua54vq0j+bVt29b5PnTv3t3z9Ox1xmW8Xbt24euvv3au2T179mSX1ZPFE088gZtvvhmlSpXKPl9XlIASUAKFhYCX3NDcT5PCUmIpJ0ssz6UzCFI+vPiQ4UOHIoQV5D8KFC95oAFBwSJMK/qiYZNA1BZhWq68r+zzhjw35TwgJdngwP50bN6Ygg3rUnBMdMuJxEwRIXzYuIWNO70shJJ0wYI0MkuQUnjyoeotHx9nyYJ6iSAtFijCIcQHVaoEomnjMmjetDwqVCiB4iJEfXzcD2LPB6gU4qII9kF+PoI0MTERP//8Mz799FNHCHmKHNY1MDDQERH9+/d3ROK51N8zrl3n5c7PxShI582bh8cee8wRH1a0sIFZdop5Cg6KwkqVKjli37Li8bS0NFCovPnmm/jhhx/+VkFqL0KKsPj4eEyYMMERYWvWrHHKbo+Te8WKFZ32pNivXr26fNd8T4nDeEzr119/BQU2lydPnnSSYV15vFixYmjYsCE++eQT1K5dG/7+/ipIVZDaS02XSkAJ/E0EeK+Oi4tDQkKC6JUKjrHDPpvOtQhFWpBaGHyAucUo91CQiijhqgQxPsBPrJp16vnjiqsD0aBxAMLD3QJQnn3yYASST9Lyk4HfliRh84YMxMRkyP4MEa0Ul+50jFg7IcL3zIJUrInMlPEdQSrKGN4iOA2qV/fHVVeXQquW5VC9aog8dHnMLaytoHLndnH9P19ByvMopFasWIFJkyY51jl7IbvbTBBJ211//fUYPHiwY/0JDg52Ku/Jw8blAa7zw7T54TrTpGDxPH6xCtKRI0c6lmaW3QbWlVYvClJaiqtUqeLUzZMVrXr8QTB27FjHUnvw4MFsoUcGf6WF1JaT+aSkpDgWTf7AWLhwoXPIs61oyaSFdtiwYbjmmmscoW3rwci27Xhzo9X5m2++QWRkZK62JBteBy1btsQXX3zh1I3n0bKsFlK1kNrrUZdKQAn89QTYgzRr1iwsW7YMd911l9ODFxQU5Dx3Pe/9Z1OSQi1I46XLflWBXfZupcgHlTvYJbd4zL3N/4QWFOwnDzYvVKrsjUZNA9CocSCCQ7ydY5mZInBEmB4/lol9kTkW06PSO5vpypAU3OKBaZ2NIPX2oXXULUj9/XxRprQ/rr6qjORZUkRpEEqFFxMBxbz5kUQv8kCBQIbnaiG1gpFCYurUqXjllVecmnpexGw/dldTvHTu3NnpdmVXLy1rDFbAsOuc3bT8pbZv3z7HWrh161bhWR1tpVuUXfCewudiFKTs8h89ejT++OMPx0LoVFD+kQe72Pv164c777zT6XrnMf4ypQBkNzkZssud1ua9e/c6+3keP2T0dwhSlolt+vvvv+Pdd9/FV1995WzbMvA424BW7+bNmzttSVFJCyfrZ39ps5ub9aCgZbc9xbb9HrOrnuvVqlVzrMX/+9//nPS4TwWpdtnzGtOgBJTA30eAvZx0nXrttdccN6wWLVqga9eu4LJcuXLnVJBCL0jpQ/p7vj6kbiVnH2S5qeQRpxKVsdmNXyLIB+Uq+KJ2LV/UvaQYqtf0R3gpdiuKAMgw0nXoQtzhTOyNSMPWLeJnuisZx49KN77oUkeQ+hk0bpKfDym77OPkoUsXAm/4+fmgQrniqFcvBA0uLyn+cKEoUyZQfOF8nO55PsQLS/gzgpT1PHDgAL777jtQXNCfk8KEwaZLEUMRWqNGDUe8lClTJrtbgHFpZeWvNAoXLumXynRiY2Mda9xtt92GPn365OoevhgFKX9hvv766w4L+oQy2OvX+kxSWLOrmpZGdmPTZzUqKsrpomeXfXR0tCNGyY6B7JjG3yVImSfLMXnyZEycOBERERHZZbB1YRz6EFeuXNmx9tL6Sx9PHuePipiYGOc8Cm22ra2L53eC/rAjRoxAx44dnXZlHBWkRVOQ8hrgjyz+0PT05+V19HcHXoP88Htl1z2X+e3Pb589p6Bj+e0/231/Jm3yzJsPt3n/4UeDEshLgIKUrmJ8fvPaK1++vPOcbtSokTPeoHXr1o4wpZvVmcK/VJASixWl7i5xV6Y8wLNuND5ifAsOAmrU8ke9SwLEv9RfBkH5ISCQvqde8oCUB6cI08iIdGzfkoI9MvDpoAx6OibC1MdXBKkMamrdTgY1NbODmmIx6+sIsXzFOXmElwxEjZrBMmBJBi1dFoaaNUNEYPjJjcAtQqUYhSpY4Xg+FlJewLyg6W9IMbZ06VJn22khESg2MB5vjOx6pzUtICDA2Wbe1jpKEcdtCht+uH3ppZfi9ttvx6OPPuqcy3QYcgTpBBGv7oFIPJd58HOug5peyhrUFHceg5qsUKNlkEKOfpOsE/dbtiwzRRuFHAUcu0Qo3uizye5tinHPujM+A+vC6zU0NEQsq9fIoKanL/igJndOOf9ZHlo4WRd2uTPYNrF1te3JhxzL6Bn4I8P+KPGMz3NYR/7qpi8t/W3pvsD9jJ8jSL8SNm6fU7cPuZtd0RrUxB+25Mof0hzgVcdx6SiKg5o8Ban1Jfa8Xs5nndeVvRcUdH5+cXiO54fXow02vYKWZ4rH43nPzW+fjeN5zHPdHrdLz2Oe6/a4XfIYA7c993Gd31FeZ2Riv5N26T7r3/vfsvLklt96Qfs8mecXJ+/xvNs8x3Of53p+6f3Z+J5psqeSzyAK0meffdYph/3H59Tll18OCtLGjRs7z2Ler2lMKSj8iwWpRWJFDxvVve40b9a/8HAfx7+0+VWBqCo+niVLiigqJl/YrNgnEl3YuT0Va9ckY+vmFKQkuVD/Mn9c09ZDkK6KxTdz9opF9RhKhvujYYPSaNmqLGrL6PnQEPo28kvuaNVcNwJbwot9aUVTXkFqBRLLz5tX3lH29jwu6fPI0d0coc0RxRRkvPB5jMF+iewN0XPbieARh8f4RaEgpZN1z5498YyM1g4JCXGiMg1a7j766CMZgDNRrIwcZc82cLse/BlB6oyyz7pBMDPmdaZR9pYDLboUchTP+VmKbZ2dSmT9Y/oMPGaPezLiPiLMsZA+dU6ClCyYBh9GHAme3yj7rKLkWtBKOmfOHLz11luOBTevxdeWlSd5lpfb9hj323Uu+eEPkRtuuAEc5EYXDpaLIUeQfiCj7HMEqZuPccQ8BemgQYOc64HneKbPbdsOFPdr8oyyZ96M78ri/WdH2dv6tBV3Es4i0a1bNxbhlMAysQ3yjrJnMWyZvL2tIH1cR9mfQvCv3ZGamupcN2wnfniNONeJx7bdf65xPM+zaeZN3zOOXbdx7bbn0q7/2Ti2HFzyOjybwLgMp4t/oeLY8pxNejbu2SzzS89+l7m090umZffbfZ7H7TG79IxzLvs8z7PrzNuuF5Sn5/GzjZO3XEyDBiL2SPJZ+sYbbzDrfAMNPHx+8FlIIxHPzS+oIHWouL8oOYD48MsRibSK+vl5OYOerm5VXKaK8hdrqbsrVC47x7+U/qy7d6ZiyS+J4nvqhWZXlEBT+fA7uHLFYRkpHOWMzm/duoJMU1Nazne7ATBPfp/Z2IU18CbH8vOhOW3aNGfaJ9bF3vzsuhWknAKJlj57Hs/ljZ3dzfQ9pFWNaXE/BQfj8WNDfqx4o7D7ebHzPIpaClMKGPq31KpVy4nDuBwow6mmxo+fgGPHjsn+HEHCdOjjOHDgQFB4MOS9Edn8mMeO7dvx8ssvO6PbKSSZP68opkMhdiZB6mQg/yiqWC4O+GH3PS2NNg0bh9v2Y/dxaVnzmA1cJ4eMjEwR46Hih8tpn552frXmN+0Tp4uy0z5Z5vbGwbQo7B966CFceeWVDg97zObHpScXez3wRwa73xl4DtOy5XV2FvCP8RyW0l62/elLzOmWaAmkldjml1eQJifnTPskpcolSGldZbDn2uyZB/N0BKlY7F9+6SXHYk+rnC1HpsTheZwOjEKSA7TyCywPg+e0T7wWea6tC/Nq166dM+3Trbfeml8yTlzmTZac/oo3fop9nkvXH7cF2Etcf+rh8cdHCpeOOu1TviT/np1s3z8bLoY0LkQZ/iyHwno+7/m06pMh7wNc2vud5zb32Y+NU9C2Pd8ez7vN821+nnnYfXnTz3t+fts2L89zPdftcfbULVmyxDGmFNRmvIc1a9bM6a3kM5WGBd7D8gYVpLmIeN5MCMu97ebm5QxyKldOLKZ1/WTgUyBq1Q2QuUsZjV2GBqkpBnGx6SKEpIu0pK9YBPkAgvjEJUl3fqp053uLfwX9RN1T3bgfKrkKUCg3eGGyLpyPk4L0xRdfzP4i8gJmYJzw8HDH+kdBwYFK9jyey3j8Em8Xccfpj+hTunbtWscf0qZhlwVBcvPMEWz8EjAfCtL//ve/jl+LFRa0kI4b96GM7p/sWCPZxrSQMjAO57bk1EScM5XB5s087DbXKUi3y3ybFKQclHRUuuyd+mTFYx0pSO+77z6nHEybn7zBpk8fOc59yS4Qzj5AUco0PIMtA/dxnaKTo87ps8NplShqN2/e7HSlMC+eHhLiHpU+evQoxwc1P0FK7hwdT2HKmyrLZPOimKJFktZbOqvzWH71YJlsXSjsaPlmWzJtticFu8NHzrfxeE5+gfGYB10V2E3fpk0b9O3b12kbdgfxmE2LN+ENGzY6zvXTp89w/GvdxyggXc4v+bZijaSFlD7FDJ7147a9HlluzkNKNwy2BQWpvXWyJRjvnnvucQQpmecXWB4GtsPnn3/uuKOwPAy23ty+9tprnXQo9u0xG4/bzIv15HeL85Bymiteu4Ivq+7u67VWrZpOl32nTrfkmt/VSVT/KQEl8LcR4Pfb3rPtd52Z2/WClmcT568416Z5NvnnF4cGHT43OMOLZ+B9jEYDPkv5DKSRhwNY+YziPS2/oII0PyrZ+9xiSm79socPZ/qiQUSOj9N9X6e+v3S7F0N5GQTFwVA87hJhmi6Dn+gP6p810T7nLaUooKXVV6aYcqfHB0p2RoV6xT7IOeiAYoZT7+S94BiH3cbsaqWooICyXwT7AOY2R43zgUvxQlHAkfIc9EQLG8Wa7fr1BMbzKZgospgHB0BRwPBTs2ZNR6jRqkerrM2Lac6cOcvpVqYPK8trBSnTZrcCBZgVCp75ea6zPBxwMUEm2KdVM1EEpJNWVuNSZNOHhiKIE8pTPNoyeKZjWVDIsDwUtwsWLMDKlSsdgWm7BnkOz2cerCtdEqpXr+5MtcH02YVCf1yWJTo6xtmmhbREieKOH8+QIfc6NwX+Qs0bli9f7ghHLlkefpiXXW8rgo4T85MN9+VtY8/0eJyBfMiaMwewXLQY8jrhwCWKbWtJ8DyXjFg+ik7OuUrLNl+KwDbkgC5eOyyX5ci8eH3t3EkL/VdyDf7gpMuubLYpP0yT53NCfr6gIL/AdJgmr8GtUk5ai9etW+dse5ODnGS77NnFThac6D+/wHZkWvRVpiDnDZtO/dxn2fA83qyZDt0J8gu2TGRGd46ZM2c6It9HHN3Jn/VmnKpVq8qUK4Oc2Sh4nWtQAkpACfwdBDizDV2zaIiygQNW2XvEe26TJk2c+zafVfk9d+w5XBYhQQqxViXJQ8P9IOSNn8Hz5u/sOK9/TMstSO3pnLs0vLQPLr08UAY++YtA9ZMHqI/jX0oxmpW9je4s3c9oli//47kiF6IN+9DkLyVaODmROa1atg1YFT44KRhptqdViQ9ne56tqmdb0SpFIcOBKuyu5JuH6J/J7gFaJZke06fQoBjlLzEKNI7A54XPLwR/ifFBTcusIxLdDeBkR0dsWq+YflpauhzPEQosB0cKUnhRCJ0usBz0oaHP4R4R0mnieuAItawLgIKLophO3XToPp2IYz6WAeu/fv16UByynLQsUpQykC2nTmIZq4sYZXctP1zneXxDEj88h5wpCnkOxR1FK4UemeUNtGbSEkfxQ7a2fbikwKIwJBMytsfypuG5bevCtGh15BROTJ/XCNuTPrMU356i1IpRtiXLW6NGDadu/GVtraKeedh1tgPru2HDBkf0sqlz2tx9T+C1wPZkPfILtk7kxR9AbFNeg1Zc8hwrSOmsT3HMMtnzPNO01yfLxLZgO9puKsuFS14TTIfXSH7Bps3rld8D1o/rbD8KbubD8pUqFe5YIHgNnOmmn18+uk8JKAElcD4EeB+nIOWgZD4beH/lD232/nBaP7rqeWqB0+VRNATpkjRE7OGoar46NLcgPV3lz3yMQpQft4h0L91nyTNWgnuKpkryGtLLG/qjSfMAmTLKT6ylfNtTbtFpH0Jn2zDuXP59/y0n1tyy4kOXViuKLVrVaCmliOFxPnw5ao9WIQpeCq8zib6LnaoVMywnxRHrTYuinfKG9aQrAutMi6itL9lZAWPZXQx1za9NWS/Wh2KeopR1ZmB70gLKulkBx7owDcZhXS+mul0MfLUMSkAJKIF/igAFKV2J+Ipk9gZyVhv+8KdR4VyDCtLTErOC1EaywpTb1mIqA55kovsAef98yXAZDNMiUKZ7CkCFSr4iFtwDn/QBavmd/dKKK55h+VlRkvcYj1uhYuPSasRg9zsbhegf62iDrbcVbba+nkKUce22Pe98l555e6Zh2XruO9v1vG3G82y9PPNjHrZ+XHrW+c/kf7bl1HhKQAkoASVw9gRoWGDvGntu6tat6xiG3D04+fuJni5lFaSno+NYRx1TqEesHKFgrafE7i0jXn39fVC6nAyIae4ro+wDUbN2oMd5unquBKxQsULEbueXjo1jj9m4effb44VtaevjWW5bN3vMbnvGuZjWPctp1/Mrn2c9bDzPffmdo/uUgBJQAkrg7ydA4w97LGk8ON0co2dTMhWkp6WU10JqI1tRyuNiKZX/0pEo+lRGUPu7ZGJ8H7RuW0KW7nkv7Vm6/HMErDjJL5V/g2DJW//CXue89bHtWtjrZeuhSyWgBJSAEjh7AipIT8uqIEFqT3ILU7cgdUtTH79MNBRB2qZdsHTdn7sPhU1Zl0pACSgBJaAElIAS+LcQUEF62pY+kyDlyW4LqcyjT2dH+PlmoFEzX1zbPlgspCpIT4tXDyoBJaAElIASUAJKQAioID3tZXA2gpSepDIno6RDaeoWpN4iSENEkOp8gKfFqweVgBJQAkpACSgBJSAEVJCe8TKgKD19yBGkMkekYyH1EUEaqoL09Nj0qBJQAkpACSgBJaAEHAJFTJAmyTyknM8w9xygf3Vb5whSTgElXfbNVZD+1cw1fSWgBJSAElACSqDoEChCgpSTiNuJ8c9FkNoR856Naved2TrKs1SQerLTdSWgBJSAElACSkAJnBuBoidI3QbS7MnUT4+DwtOKTxvTc995+JD6ZGZZSNWH1BLVpRJQAkpACSgBJaAETkdABekZBenp8LmPUba6BzWJD6kjSDnKnj6kOsr+zPQ0hhJQAkpACSgBJfBvJ6CC9LSC9OwuD0eQyj/aVh1B2sxPBenZodNYSkAJKAEloASUgBIoSqPss3xIL2iX/dldIacI0uYiSNuphfTs6GksJaAElIASUAJK4N9OQC2k52whpfzMHdyC1EhKHGVPH1LpsldBmhuSbikBJaAElIASUAJKoAACKkjPS5DmFqW5Rtk785Cyy56DmtSHtIDrTncrASWgBJSAElACSiCbQKEXpKuWJ2P5klRE7DEy7VMyXC7x5JRXeHrJ58zBc0S9jZ3fPnuMS6abO+1cgtRaSFWQekLTdSWgBJSAElACSkAJFEigUAvShPhMrMwWpK4sQSp1VUFaYIPrASWgBJSAElACSkAJXGwEioQg/U0spJF7KEj5piYi9v6bLaQe0z75ig9pM077pF32F9vFruVRAkpACSgBJaAELk4CRUOQLrWCVLrsRZAa6VGXTnuHuJcjUC383F3t7omackWQiNy2+/LGZzqn7uMe9zykMqiJgpSvDm2ngpS0NCgBJaAElIASUAJK4EwECrcgTXBJl30S3BZS+pAmIdMKyizd6CXqlJ8cIekpKD3Fp0Xluc/zPHv81CXFr9hknZz9nEFNtJAG66CmU1HpHiWgBJSAElACSkAJnEKgcAvSeBdW/JYsgjQFkREuZLqSRZBSkrqy5KHIUCNS0fhIxWnD9BSjZOEpPrnN4LnvfAQpu+zFQqqC1I1T/ysBJaAElEDhJXByF1Z/vxDfzV6GnayFdz2069MFbds2QM3AwlstLfnFR6BQC9JEx0KaKqPs0xAhgjQjMxGZJkMkZYaQ5gz5FKS+zgegKFVB6kDRf0pACSiBokDgeCTWbdyExWv35KpNSKU6qNmsLVpWDYCvd977fq6oRWojIyUBR7bOw6+bAxBS83I0bFYXFYudbxVpnEnBoaUTMXXqUnyzOhn1rq6CAK9auKZrB7RoUR+CV4MSuGAECqkglSnoZSR9UpLBpnXpWL0iHTu2u5CQcBwZrnQYEaViL3Ug5QhSX9nOe2PytIZ6Ms163dMp8T3j2HW3t2pOl71aSC0ZXSoBJaAELjwBeQlJZgqO79uNQ5uWY8aCZfhy2TaE8hbvhEyUrNUYjTveif4dmqNGeDEU92MPWdEPKUcjsHFiVzz8UWlU7XovHnr8NlxTMu9z7yw5yHMUGQcw/7n/YMqmAMS3fAATHmsJzq5N844GJXChCRRKQWohuEQ3Hj+WiV07UrH69yRs2ZyKpGSDzMx0mY80zZGThl8ddtlL1z2ng3J33dsUChKk9jjjn/nLnMuH1JmH1Fu67IPUh9Ri1KUSUAJK4IIRSEVqQgR+HNkXr3xfHGEdB2HYC4NxXSl7r05ExKKpWDDhEyzq8AWe6FAVDcudt5nwgpXaSci43+jnPIoubMpOam5Beise/rgUqnUdggdH9j5/QepKAeJ+xiuDX8QKr8Zo8OizeLZ96b+g1OeepBGOfDb/VRzPvUR5z5B2doroNljlParb+RMo1IKUVcrIMEg6aXA0LkMmx0/FhrXJ2LM7HceOiR+p3J9cLrGU8sKgsPTy/JXMm5cKUpLRoASUgBIoLATS4rZh/68fY/Dorajd83bc2rsDWtcrixAPC2lqwhEkxMUiIbQWKoTQQmrF6j9Xy8MbpuOXb3/AuKXt8OT7ndC8WijCLnBxXBmpSI7bib2xvvAPK4tyFcIRnM3lHDPzEKS7glug5eMvYVAjv3NM5AJHz0gQK9RqvPOfcThQ6yY06dYLfRoEX+BM/mRysVuwZvE8PPzmPPQe9SluubI2ap+vlfpPFqWwnV7oBSmBG7GUUpgmJGRi/9507NmVht07MxC5O9NtMXWJXykjMa58eGtypoOSFf5eLTg4MQs+nHWEsSh1nXfZO6PsdVDTGaFpBCWgBJTAOROIR8yqBfhx9Bg8W6w7HnmwF/q2rovS/uec0N9+wsHf3sWsiVPw9Lwe+PjnAWhfrzQuDntjASg8BOnesFa49r8vo++lnkadAs77K3enH3OstiM7P41dDW5HmyEP4JGrS/6VOZ572odWYdHs8bhx+AQ89NnvGNChARqWoUrQcCYCRUKQ2krSRJ6WRmtppkyUn47NGzJwYL8LsbHSlZ+UIV35NKNzBL78OV0nIiJzT1Rqk8panq0gNR6ClPOQSpe9zkOah6VuKgEloAT+JIGTO7B27pcYM+Q9HH16Cp7scSWuq3lmC1n6sb3YHxmFNXtD0KJDKaT8sRn79kYhqkQoAupdJWmURFiALzISo3Fk3xb8vD5KBsm6jRjexUujeKXL0bZJBYQU8/Xwn5QHTmo0tq/ajJ2R0Tjm9NG661e5fjPUqX8pKgeJH6bE2bRso1jNvsTCJeLzuq45Bv/3WlxaPggVKtZC1UubokmFAMdQAhFchyN2Y8PKbTgs6XEkhJdXCEqWr4GG1zREefE8OJ2x16QnIzVqHZZsTENAxWqod1l1lPVnPeKxf+k6xKSXgG/tOmgYcAjzf9uGowlJToEDg0JRr0VH1CzlhxJ+GUiKO4AD65Zi3e71mDXuG8SVqIt6nXujRWWxvNa7Gs1rSZmOHMS+jQeQ0KgN6nnvkplu9mH7wXQEFK+Ixu2aopJYpv1P7MfBiG1YvDHaDYb18S6NkNJ1pB1qIUwGnGXbXMXVDscjsGj1dhw4fNyJ7+3rh/KN2+PyKqUQkrYXB7cvwe9r1mDqGzNwuHJL1G/XATfWEUHqWxfN2wjLCj7IPLgPkUs3I75Ra1QPOIxjh2Tg256TwrGsU65qJTNwcu9u7NwajZItbkT1Uv4IsoUQ4xXLsOSPHUgOKI86DZqiRmiOmEyR6yhq9yos354is/q4jVk+YeUQUrepXEPFkbhjDbavWYz5Py/Cq18sQYd7/odrL6+CahXKo2TVS9GmSUUEeifg8B9bcOhwGtIvv0raXjj5ZOUhPwIyTx7Cmp/XIbnCpahYqybqSPkYju/5FZtjA+EqURYNyqdi06J1iE5Jh3/V+qhRvwEaZLmlJB5YjR0792DLgVTnPP7zq3IJatauiysrh2TvuxhXipQgtYAdYZpqcOyoC5s3SsOtT5WbTyYSEzORlioXPa8j+dAPhYLUfVnZsz2X5ypIpeF1YnxPgLquBJSAErhgBFx7F+PbaRPQ96Wf8eiEhbjjmpqoF54jGArKKHHDV/h6ynwMm1IOL0xqgMzx3+L33zZiXdXaCO/3DD69tZ6Il5OI2bQQS+ZOwVMzd8JHBin4eLngCqmBkMt74NkRXXBlzdIoJcLVW4SLK+U49m1fjtkfTMVPi9did9aTJDXhEBp2HoZuAx5Gz+bFUSLhd3z43w8w68clWJ8Qj7gTQShfJRTF/X1QvdWtuPGukRjeMhzeaSJU9v6ORV/PxaR3f0RkcS9kStVc6aVR5dLW6Pn0g+hyWVmULeFboCjNSIzCkR+fRt8Xj6LMDbdlDWqi29oWfHP7k/gxOgymd388VHkrhr01E3sOxMGkJiIgOBQdRs7CwOuqo345F45tWoSfxz6Dt3+PwZ69cUj3DkRgeBmEFPdDyO3P4+nuIrKWzcX0Z6bjj4fGon/IIqxY9jvmr05FqfKt8egHj6FlmRS4dv+MhT/MEXG2Lqtp0pF6shpKVeiIkdPvQdsKwWLd9oG3DKDKlB8DhxeNx0PjFmLVzmgE+soIkGLF0PD2l3BP1xaom7YYK2a9gqc/34fDUu60YiEoHhqGksVLwTuwD554twdubOGNE/Nn4Ys+L2Ltw2/jpoq7ELVxGb745Yg8m5s75bqpzjHsnjYeH76xEI0+WYq+zcNQ3YrO9CSYTV+gz8j3EV22PYY89X/o51iFM5FyPA57Vn6DBbPexbsysw9/LXhzisnKl6DcTYPx4YBmODrzdcyY/R2mr4sRUR2PsPLVEFpCXEaqXY3619+Fd/9zDUr77sCSJ17F90vjkfjE+xjToTRKBmQNE0s9jOR9P2BEp6cRfd1w3DR4IO5pxmFkwKZJ3fHKr8VxJPRKPHRtBmY9PwUbTp5E6RvvRKc77sN9zUrgZGwU1s17DdPnL8KcTRlwe06nwVzeGe069caTtzZD5dBi8L5InW+LrCCl4jQyIX66WExjojKwZVMy1qxKwh55xWhmOr/l8quR1lKuSrzcwtTe4LKUq3M5FPyPsb2Zn/zGdQSpvjq0YFh6RAkoASVwngRObJqJOVO+wtBPvPHcN2/g1sYVUe0s5sKkIJ01+QMMemMligf5oNeI99GnWydcVVXEZbFAlBBRtH/h85g88XtM2dwEj44fhevEalna/yQOrfkBP7z3BsYVfxTPPNoRnZtXQlDiQSRt+Bo3PpaE9ne3Ru/u9VEpq07bpg3E2K+OIqpsDzzxzsNoE0YraQr2LhuHb6bMwAs/dsbYOf1wbe1wlPH1h1+AiD1feQZtnYkn/+8jfB0RhHb3vYyn2pVCkL8ILJnG6aev5+GJ6cF4dtpzuKVBBVQpYLqlMwnST2f+goXl6iK8zQiMG9kKTUUYn9zyDRZPHYOR0xrj0Y9Goff1l6F2QDrSTx5DyuHFeOvB17A/9Gq0GP4MetST3sVixRHodwBbJ07C+Pv+Dx/7+yKw5cN46J6uGHRDXYR6y3aJQER+OwwTd3pjd/l+GHdLbTcdsxcbJk7FV2PmY9YNT2LC6OtwbV2xQKccROzm7zGq52iEDHkT7Tt3wNWVpAzJMVjy0ifIuKEn6l5zFS71jkJS1K8Y3ecFRFzaG60G3o37rhALqVcxyVNY+kQhQgTphK6P42M/P6Q1G4Db7+iF4b0boiR8ERAUCP+T6/HrpHMRpHzCH8cfn72IyZM2YEFaJ7wysy8aBPohGHJ9rP0Ryyd+gOQBs9DhkpKonLASi+Z+ju5PTcG97/6Evm0vw2Vl/eDjVwwl5Bxvsw0/n6cgffHTxZi1uiSq1LweIz55Eu2rB6NCUDH4FfOGd+oBLBo9GG8uqIrw67vh4VHtUJ/UzXb8Mvo9fL02BQfveQoz+1yGULH0X4yhSApSC5qWUgaK0kTxL42OzsCObWnOwKeogxlIcfdWiJB0yYcSNm84dU/eGNzmO5qyfUidUfb0IeWrQy+0y3p+ues+JaAElMC/g0DixumY88U03D8+AC/MeRVdG1U4q7kwHUE66V3cM24jmgx8Hv+5oyuubyQPbkfYyX0+fi2mjXkJi3d4I6znMxgiFtNygd7w9xbL2IG12DrvQ3R5cx16/ucl3NntOjQpmepY9FZuMyhTrTQqVQyG1cUntk/Ghy9Oxc/7yqDZ829hxJWh0tXvjYJ9SNkxn4A/3n4Ub24LRNIlnfFC3w7SVevnzKGaeWILNsydibfvm4IDo8ZipLgp3FDDbTXL2+pnEqSfLTmGiPa34ZnhvUUIlkK4CKTMIxuwbdEkDBs0DZVHfYDbe7WX9KU20n1sR9mf4kNqIrH+swkiSD/EOL8bMPS9Ibj9lkZoXFZcArIKdTJmCw4meSM5sDIaiXuCOyQjduVc/CTn3jWvMl6eOBLdWtVGheNrsf3HD3Hb8K3o8uqLuK1bK2EsRp7MVMTtiERmqXIoHh6OEHMGH1JzELspSLuMxof+16PTs4MxoF9LtKwUkuMaIG296FwE6SWiDSJ/wAtj3sKv+0qixaD/w8M9KqGkTCXmK2bSlHhxC9gXgbSKTVEmJADFY8/gQ/onBOkLHy3A6uSW6PHw6841WklGrMmlBZyMQvyW73HHA1+jlLRv5z434obGpeGmfhL7547D5Gm/4ZOYJnjn4+FoUbE4wq2bQlbLXBQL6bYu+sElnqOZxqSkuMzBA2lm8aIE89mHR8yox6LNXX33mzt67Te399znfPrLMuezV9bP/LmjZ6QZ0CvC3Nkr0gzus9uM/b+9Zu0a8SjSoASUgBJQAheMQMKGaebzx3uakLL9zdjfD5m9yWeXdML6L82EER1NUOmW5tHZ282mI+k5J7oyzMl148x/u3UyPXo9ZaZHuEy6PC+yQ9IBE7vqI9O3YjkzaNQXZs72M2Qat8h8NrSrufXqLmbo3GhzLNmd2IFl75ix97YwIRVfM19tizWxNoOME8YkrDAf9LrS9Bgyyjy14IA9krVMMIdWTTOfdqxq6gz51ExcecCk5IlhN9MTDpnoGXeZdk1uNb0fn2qWHJWHn5G6utab2X1vMd2b9jLXv/mbkRxNdhXTDpqoVZ+a4SGhpt+o6WbWlkR3cplSz5hvzcudWpqh/R8zUzZnnyHpRZh1n/zPDAurY8I6TjBfb4gxWWe5zz3N/5M7fzI/vtTL+BXrYp6bs9lsk8Kkx20222c9blqWamRu6PY/8/Y360xEUj6JpB015tAM81iz+qbbwOfNW8tl2zO4Dphd3441owLKmCrt3zIf/hJpjnse5/rxP8zPYx8yt1W/1IxZcNREHCejrJB20rj++Mj0vr6xad1vuPmCdc7MMCeWvmYG33KDadXzSTN9T57rw55rlwdXmp/fGyr1CzTDv1hv1h/2SJ9xXFvNwpGDzGMtu5v75kSbo8kZ9kwRKTEmacckc3/dqqb70LfMR6tzSr9xYjfTp00zc02PF8y30S6T4tEcyYfWmo0f9zK1qg8xj49fYbbmuUBSIuabac/cZVrUuNGMXXHM7OMFcBGGIm0hzaX45UcwX2kvbYB08S89JM7XW2Xe0o0bkhET45L5TF3OgCga52nxZHe//ETMlURBG14Sz9vxRZUue8dCKu+ybxeqFtKCgOl+JaAElMB5EEjeNhdzp07F3e8fwagZn6Jns8qoYY1vp0nPsZB+PgOPTi6OF+f9HzqLL6bt9jbiD3rkx6cw/PU/sD6zFnrc3QmNZexHznjyE0g+sh0/P/Yejt35ivjr9UD/RhKBXXDSdb9+eyT2x7gH4ThFSNyEBZ9/gw1Hy6D+Ux9jzPVlZMDUaSykWSPHH+86CmtCmqHmTbegS/3clToZvQk7F4/DR8nD8NRDXdGvdXXpLj41nMlC+vnBkki+ZyTm9W/gcXIc4rYswsRWQ7H5oXHo3PcmdLtE8j8LC+mk0dMxdei7mH5nU7SqeqrVNuVYJKL378SmfTkDbDjoauuyhXh2aghGz3gJvdtfinp+cTge+Ts+e/YDzF8Uj+JXt0CL3m3QUN52UKr+lahdPhSlAsXP8kyj7LMspJPEh3Tqfe/i5YFt0f3SPHMZnKOFtG99Fw7OeRhPvBeLw5VuwpNj78K1wV7iX+yB0HP1TKPs/4SFdMzEYjha9Ta8Mv5WXCZ5Wmv08T2LsXLiINz7WVNc068t2l9bDWU9y5S0RwZBLcSC77ah3ae/od8V4bkGa3lG/SfX/z2CVChTjLJf3ivrVXJiMUVUdDpWLU/ChnVpiInOdMSq/IRxXExzGkZOyu7QP/UqdBybVZDm4NI1JaAElMBfQeDgcnw/fTz6PvM1Bny4GIPb10ODMjnSsaAsz0qQvvYNvlp2SHxMxc+wgCSb3/cGBvXugh6XyGjnlHiZEvNLDH9jGr5evFX8KrOeDfJSlpSTyQhv1AEdn/rknATp7E37cShAun3zebOUl19xFGv1OJ5/9GZ0b1E1qzs2d40vHkHqQnrSCexZ+jHmTH1HfgQkO0xJyGTK6PJUP8SnXI1nZ73sFqQlWA8ZKGR2YO7AZzD5h+X4JSNZHtYuNHp0Mv7T4xq0l9H0/q6z67K/oIK0XiY2T+6BZyYEI/2S2/Dce13QQK6PAi4R4J8SpBP6i0tKPI6kiq+sDLzLGiaV6wIJr1gDd789H70ah6FqyKlaJlfkf2DjXyVILV8rTDlrA8c2paYYRESkYd3qFHkVaQoOizDlfi8RmRSibl9U56vkbNt0spfypWFcZ1CTWkizseiKElACSuCCEojfhJXffI4nHvgYUcPG49Xbr0HneuFnzOKsBOkbW7CrRDMMGXUnWoXlbwErFipTFgWVgH/CbkT/+iYGv/wDkhoPwC2db0VfO0H78RWY8fpnWLQ7ENWf+uicBOnmqh3RtN8dGNTkVGsjX+ziFRCGUmElUIIj/fOp9cUhSNmzeByrPvgfJny1Dut8m+KOlx5BK5kcXsaTIXnvMqyZ/xUGv+2NUdOzLKSOIOXzNh0nY44iMUmew/tXYsOsYXjmWx+0H/IGBvTpgVblxBItb48qcB7Sv8hCGjN/JEa+vQ+Hyl+HJ96+D23l+pBxaPmHf0qQThyMIROuQ7cR3dC9U93sQXaehfSRabRCSldEkDie+uZ3AXlG/ifWL0I3gr+lSC76lconUyYTc8nKiROZZl9kmln2ywnzyXtHzIihUebuPgfMnT32O58B4lt6Zw9+9mZ9ImXJj2z3jBAf0j3iQxohPqS7zNjXItWH9G9pRc1ECSiBfxWB9Hizf8VUM7Z3ZVP5yqHm+Rlr8/c1zAPF8SF9rKcJK3+neW91jNnn6QYqPoIpv79jBndqZ1p2H26m7nCZNA//vDxJOZuJ+1eZFa81M3VrdDN3v/GDWX4kLSfaufqQZiYYk/SLeadFE3NzzyfMiO8jc9I6x7Uz+ZD2bN3f3DJ5Q55UxZ918zTzWlgp8ZE9Nx/S4RUvNRWe/9ks3Zvj62iMsHBtN/PuFp/clt1Mh+e/M/uFd1qWK2V+PqR5CuRspp3YK239knmkZiUzaPg4M2XjSUnk7HxIRweXM3Uem25mbs721M3JIsuHtHuV+uaeLyPM5sM5bZeZkmCO//S06XZN7Vw+pCkr3jF3d25nWnQbZqac6fo4Sx/S+5rdYq6bsNkcPpGTv0ncbxKXv2na1KxgWg998xQf0r7t+5gbB35t1kltPLygzUm5Hte8fYOpWaW/GfHJb2ZTfv63OQQu2jV2Y/+rA8Wo+yPfIRGnJxIzzfYtKWbujATz5phYM/y+Q2ZQ7wOmYEEqolQF6b/6GtLKKwEl8PcRSIrdZDbOvNf0qHKV6d7rOfPuvA2nDG5Kit1htq+YYj5eKaImPsWcVpByxOuhJeadR7qYW9p1NPe8tNBsPJZuTmaPNUmWqTr3mbWfzjebNh8ysanGnDiw2qx+82pTr/qN5oG3vjd/OANjKBGizZbxz5v/tGpoWlzdOdegpsOrx5tPHrnGlCjV04xdstfszRYNkqBrn1k8opfp2ambueHpT8zC3SdNakbOYJiU4/vNvpUTzY9bosyBeE8pkpv7xSFIOYhqp/nu/s6mZ8vbTIfRi4RKloA6HmFWzXrdDLnlSuPj3zl7UFPSkd0mYtUUM39rnIlOdIPPOLHfHF75hrlbBOnAER+ZrzYLsAwRvvE/mJevbGBuvnmEeXzWLkOM2aSyBjWdVpAm7zGrpzxr7m9Y1zQfMNt8uynOGZAlL0UwMau/NG880M5cVi0sR5Da6+PRruaW9jIQ6bX1JjI100irSUgzCYe2mi3fTTCr9ybKACXZFbvO/D5hhKnjH2g6v77ALNyTdwRRjFnz/jAz7LprTO1Bn5plB04Yp8qJUSbyt2lmzNCbTbnwINP8HARpenyEOfjLC+a2GteaHre9bT78IcLEOeXL+pd62Oxfv8l8P3m92Z+SXuCgOM9T/on1f2WXfX6WaLmiOZpJut5lSJOspiQb7Ngqg56kC3/HNpl6IjYdKdK1L6LVOd3djc9Vnied9XKudtnnR1b3KQEloAQuJIETSD2+DfOHvoavNsmk7VdcjWt73oRmHi+hSY7bhH37VuHb8KEYfV191Ir9FrMKGNTkLlkCtn4t/o4zfsWCqHJoeX8/XFHaD2HOqJFUpCfEYsv7W1FxaC80bHc5qqZG4PDyT/DgmEnwaXQnWra9CVdWoA9kJDaO/R4LVq/EgdpN0OyRD7O77JMjfsHi2R/jP699i+b3v4vrGlfHJdXLonSlGqgeJj6Vqz7Fh1Pm4KfIQFRt2R99modm+6Wmxkcgbve32FlnFDo3qS3TKLmnPM9L9eLpsk/A+s/HYNLE3Vib1AC3v3I9qkthi0XvxtLlizH5xzU4vL0qhs98Gd1lUFP5WHkL0aJ38cWhnmglA86qCvv0o7txeMUkvPFrGtrc8SR6d7kJzSvI4ChhPH/g43hvZwmkNG+NYbc1kblPy6PmJeVQOvQI9su0T6f1IUUSov74Hgs/+gAvT6uBLs90wJVNKyBMpk6K3fMLJs5cjs1rd6P+TXfjjuyJ8ROwbfY4zJiyEj/sr4u+L9yA2jKXZ3EkI37fZuxd+TtC+o1Fm/oyWM5vH3Yvm4exj4zB3Gb3oP91TXHjZTVQolQlae8w+ItYiPljggzOm4Zx8/xx45ND5A1KwSiTFoOdW1bj/enf4uj6Xagy4CX0G5x7YvyCBjXJvE9IS9iO+fe/hmlbZM7Tls1xQ58mDnNeI17JRxC5Qa7xzcHoOfZm1A6St1PxwMUW/gkVfDHnSStppscv04T4TLNuTZJ565UY8/C9e81dffaYgdI9P7CndNE7n11iPZWPdtlfzM2qZVMCSqAIEtg551EzvGtZ4+fnl+tTW7o2h8+XKXSy+ok5XdSkx/uYMlUGmQ/WxDhdyPnhSNq9yPzyWicTGhSYk55/FVOu+t3mw7Wx5oBHV39mWpJZ/2lHmd4pLCeulOPBj2abj19+zLz+SH/z4LyY7GmfxK5qotd/Y8Z3KWeqlQxwzqnX8S7z359ijTx23CF+vVky7j/mRv8AU8KjTpWbXW/u+jrKRCUWbB1lAukJUSZ61j3m+it6mn5PfmWWZk/7tMF8c0dXc1u7AabLFxuzMrOLOBO3ZYZ5o3Q5c/f/Zpqvc0379J159dbW5sEBT5gvt9hCynmuSLP+s2fNY9UamipjfjG/7Yu3ieUsxUq6/NXh5t5iQdl8igX3Mr3ve9/MWfCR6Rnaw7w/b4vZ7hgQj5jjEXPNO1Wqmsul7rY9g8NKmyembzWbYz3yZvabppph/dq64xUrZwJKjjbv/LTbHJS/3fPfNc+EVzKXPDFDprDKp8veKaHUedtM82bZCuYS/2JOOiUatDEN31lq9u2cbV7r3tY8eOdIM3WLp+9GgtmzcJx5rUNpExTgn13Gai06OdM3HUnKNqmb1JgtJmLSbaZBzdJOvMA6HcxVj803+9Iy6NAgIdHs+22yea9jGVMm2J1/8cu6m47PzTYHEn4x4xpdbu5/6D3zyZocV4hNk3ua/jfcbm4ZPNuslxQKuhJ2zh1uRtya+ztRLOhW02XIHENnjYLOY6n+6aAW0vx+IYjRk0OUGFwyZ3GaM7G+C9u3JGH92hPYvTMVCfEuedcxbaJiMXWi0kNYHIXldWeNmvq7J8bPeuWXk5D+UwJKQAkogQtKIDX+AOKOHMXheE4unxP8g8IQWq4KKsrE4ZxUxZV8TKb2O44DR71RsWYlhMigoPxG0rtSTyApPga7oxJlYKv7GSAvhIavfwgq1KyIUDnPDqbnm/6Sj+5BVNxJxCe5e85YgtJVaqJ45gl5I6C8JjO4slMGH2cAiYw8T05EwqF9iDopM7rI86NYcDjCylVy4jilz0zGiWNHZaqkWJzIfgpJCQKDEVy+GiqGSP5Zs8Tk1DZnzcj74DPl9aGRMZnwDQ5D6XIlZSAR65GC+MgoHE33gSlVFjXD7TT+PDcDGSkncHTHfqSUqYKQkiHONFVCTQ6dQMy+aKT5BCGoXEV5xaXNK02mwjqCo1HHcax0FdSQ9Pi2q9whVQYoxeJIVByOZHUpenlLu4QHI1zeGXN0TwKCqldESHCATO6eicw0dxni0uWlNVnPX29vH3nxgLxZKigAgj4npBzDgeg4xB47IeY/X+mhlJcT1BSWwTLnTcJxHI2MkXIJ+/AgqYvniTaJrDrv3I+4jEykSn5eAUEoVroCaoVk4vjBw0j1Lo6g8jIBfnadJV7iMcTHHELUCRn4nHV5+BUPQai0TYVgH+dFBszBZKSIVT3KuY5S0jLh5S8vTggrixryAgU/sZBSN6SdPI746AOSlrw9UhLzCghFUMlSqFbGB/HSFsnB8gYreRlAqeJurilHIxB9VF4n618SFWWKLRZLLu1TQn7fCS/vUARL2qc775SE/oEdKkhPAz2nW14aXlr+2NEMRB9Kw57dqdixJQURe5KRJDeWjAw5KPOWeokg9ZEvf6NmfipIT8NVDykBJaAElIASUAJKwJOAClJPGvmsW1FKQcp1+poeO5YpVlLxLd2agsg9qYiNycCJRPEvFWEqsyqgYTMftG4XLMI0n6k78slDdykBJaAElIASUAJK4N9MQAXpObS+e+CT20ieKT1EiYkubPgjGZvXJ2OfzGN6/BgVK3B5Ey+xkJaQrnsVpOeAV6MqASWgBJSAElAC/1ICKkjPseHF6dcRnVzwjU/p6UYspJnYvjkFq+WNTzFRGahR1wst25RA0ys8hn2eYz4aXQkoASWgBJSAElAC/xYCKkjPs6XdXfnutzhlZEC67F2IlTc87dqeLn6kGahZxx91L/V0HD/PjPQ0JaAElIASUAJKQAkUcQIqSP9EA7tFKROgMPVCRjpwJE5GC2a4EBTshbDw/Eb3/YkM9VQloASUgBJQAkpACRRBAipIL0CjWmHKgU/ObBVuN1O+BcuZaP8CZKFJKAEloASUgBJQAkqgyBJQQXqBm1ampnOmiMp3grALnJcmpwSUgBJQAkpACSiBokBABWlRaEWtgxJQAkpACSgBJaAECjEBFaSFuPG06EpACSgBJaAElIASKAoEVJAWhVbUOigBJaAElIASUAJKoBATUEFaiBtPi64ElIASUAJKQAkogaJAQAVpUWhFrYMSUAJKQAkoASWgBAoxARWkhbjxtOhKQAkoASWgBJSAEigKBFSQFoVW1DooASWgBJSAElACSqAQE1BBWogbT4uuBJSAElACSkAJKIGiQEAFaVFoRa2DElACSkAJKAEloAQKMQEVpIW48bToSkAJKAEloASUgBIoCgRUkBaFVtQ6KAEloASUgBJQAkqgEBNQQVqIG0+LrgSUgBJQAkpACSiBokBABWlRaEWtgxJQAkpACSgBJaAECjEBFaSFuPG06EpACSgBJaAElIASKAoEVJAWhVbUOigBJaAElIASUAJKoBATUEFaiBtPi64ElIASUAJKQAkogaJAQAVpUWhFrYMSUAJKQAkoASWgBAoxARWkhbjxtOhKQAkoASWgBJSAEigKBFSQFoVW1DooASWgBJSAElACSqAQE1BBWogbT4uuBJSAElACSkAJKIGiQEAFaVFoRa2DElACSkAJKAEloAQKMQEVpIW48bToSkAJKAEloASUgBIoCgRUkBaFVtQ6KAEloASUgBJQAkqgEBP4f/aWEASzORqQAAAAAElFTkSuQmCC;" vertex="1" parent="1">
          <mxGeometry x="20" y="490" width="250" height="60.66" as="geometry" />
        </mxCell>
        <mxCell id="bwCUnxS7NbJIKGIXhCUE-21" value="" style="endArrow=classic;html=1;rounded=0;exitX=0.353;exitY=0.989;exitDx=0;exitDy=0;exitPerimeter=0;" edge="1" parent="1" source="bwCUnxS7NbJIKGIXhCUE-5">
          <mxGeometry width="50" height="50" relative="1" as="geometry">
            <mxPoint x="390" y="390" as="sourcePoint" />
            <mxPoint x="340" y="490" as="targetPoint" />
          </mxGeometry>
        </mxCell>
        <mxCell id="bwCUnxS7NbJIKGIXhCUE-23" value="Builds trigger and make changes to app" style="text;html=1;align=center;verticalAlign=middle;whiteSpace=wrap;rounded=0;" vertex="1" parent="1">
          <mxGeometry x="384" y="450" width="166" height="50" as="geometry" />
        </mxCell>
        <mxCell id="bwCUnxS7NbJIKGIXhCUE-25" value="" style="shape=image;verticalLabelPosition=bottom;labelBackgroundColor=default;verticalAlign=top;aspect=fixed;imageAspect=0;image=data:image/png,iVBORw0KGgoAAAANSUhEUgAAAOAAAADgCAMAAAAt85rTAAAAkFBMVEX///8XFRUAAAAUEhIJBQUQDQ0MCQkEAADt7e319fXr6+vw8PAVEhLo6Oi/v7/6+vpcW1shHx9rampXVla5uLh4d3dBQECfnp7j4+PLy8tPTk7HxsbX19cuLS1IR0eYl5eOjY04Njaop6coJiaFhIRubW0yMTGvrq58e3tjYmKSkpKJiYnc29tDQkIkIiKkpKQrDOYYAAAKMUlEQVR4nO2d53arOhBGDyMDJrjhGre4xiVOef+3u8Y+jjGgGYEKPndp/8paSRAfqEyT+PPHYrFYLBaLxWKxWCwWi8VisVgsFovF8u/Rbs7G09aF6XjWbFd9P8oIXsY/p84GMkS97c+0GVR9f1IE02VnHoupMScDq8W/2fRO03rV91mKcHqKtdXcrLSMzGg7Dau+32IE+yMDILQlVJ4fRGf9z2gM+z0AP6dTUm/ybf8vaJwdHPCKibvhgTcYV33/OO3+CqDgu3t4jwDz/ROvIKO5+Ljj4cL34jklthcFphXiNS6fcHkcRdBQIe8q0VlUrSdFK5IZenkSvX3VmhK8dtR0zkeJk8+qdf2l/QE11fJiarB9iqE424EOeTHw/QTL4kl977zjwqBiec03ba/vCgxfq9TXL2uViePBujp9B7VrA4fKummou3v+Klw1q9DXjAzpOy8YXgVL4lTn7JnGhb5pfX0jw+8XBoYttx+z+s6AUfN7bWz4VaNwUYG+s8KTKX37SvSdFY7+3/pMKZxWpu+s0MBqMTM+fyZgoN1/CjyD63uewhe9+torLc67ON5Gr5f/XuEAvAIdnfp+Ktd3VvihTx9ngmFxos9XOjbdS/IwfzrTONG4uSKY97H+OR2HoCq45gGsjtvRerHhPE9dw3CQ30HhcP11c98B+RCGC/C2fr1mJ0acBrt69PU5AxBmv3/SXn/JvUYPVot7krDJyQboCdO0Oa2584dk0LhXXqIHw9ZDm5P8DsFAR6a0y3uB6ZjQrGQgn8FkmroUz23xe+r1jXkrRI59ON5lJsCG69X8WwWJX/Pc9B8wcHIuVKBRWRq8twJ5kdm183tr7KIrWk063cH2tFyetofucTKM4GEh8POXN55ABqqTpJwJLRaY+/dh99xPLzUiXvdjP3sJ0zcUvnz2F+/RdQVtwCQ/MrjhPlbF3u8L14dwh5x/GUewOY7G1JOerbs78Hk9jrMyxa9QbUif25AD77z/CWeCC3L7kxvY5QdH4FhcBZ9Xvg2q0zREoweJ5VcexInQG0Zo8RuuKXQrPhEnQm/yh7tOOEqNbt4aX63AmrLVvol5gXoFohEuUJWS2aKtaB2DPAP/2jR3Ai9G6GFxNFiqaSUfNEfAQE3eEE9E+JqcsysfaNuK0hUOGghlkZJGOHRQ14vlm4kFmRGBJiWN8CCizJD2r8pARQp1BpvR+fuMr8BeC/AeqneWofI8DV/etUcn6hh3p69+tUdFPxRkto8+1YbGUPOBerreRLoNsom5AiFcOlTz0jFSKhuo2vFMEXBd+ptA2eAM39NV1AAB5sjEyNoZ7RX+BHXE7x5Z4gqZZDqNeICqrEEM4hFLOvZEQYxeS/sK4tRfbkHOm+mii4QaW5BiiCZ0JN1e3BY08QKpV9iQesi4LcjAzNZGfBRK+fX4KqjXFbyDV45Bi74CF8LfVOGsCPCC38VW4tK4IWpkionZYX1UKj46xK6swhkTA+2j7qq8NxMyNNxkrN4fi446zC8/1SEpCUdhWJIkzNumfr+P8uY+OomyhrktxehQkZhGUUPN/VKogACd7OCn9HXRwa0yu0OBx9bLJ/DQiIHJHTdojZzEjaBhVzOG6BU08iVhbuNj21CJeAxqb7ur0tf9Rmfn8mO7MKhAieQBunH8ad6ghFdqIrUjBO4S6hKotbzikWoEyrgpBcFzFLoEGlwH+YVkGgWa8udj8OCoJoGe9pjvHTxHKSEQWwe5VXgaQE0qiWUCzX02InPu0hdmUjGn9HXRWIhjIGz/lzDCLA53V/rCnJrwm0BDQTUqPCuRBMUD9+aMUXydl5jO8dnZV1RJRUOEZ5elL4yvr4ypk4DTw4dKeaufqLAwNssQt1E+yUwUOZk6f4G6jfIpUDwpYCy0fSIElt/1GuTvb7vBIjOHSqGRE7ksPb4QymWuhCF6qFQtEFFEYiY0igZFJd02qhjOxDzapu5BplwNTes4Zs7PoE4+kSvnJAu5NO/bP79AsphL6vJEFY6BwAy1s10i7BtDFFJJJeeECMgbWEpdnzx6RN32k3yoYkBZpy30qFNRK9wYEsM8ybgCsdQ7ejPZdfJsF+mSX9xjinH1xWbaK/rxynYgqiD1jK8tvNajG5fvP9SugriRiZ66+yOtTyKidoNcKGKFbzoUCrw/FWlmgT56bmejfDlsCp2sq2KGw72xv3iqvfuWL3KuiZLoOj2PxjA4KvR+g67Y2V9KFmHSWLo15iirXVuLHl2q5uicTPgXIPc8IgYbJf20/y16dJuiDF7aKYRDfzbeD3JOOHJh9SM5nwajnfhhLap29r09jPdf63bayz5pF6A7Ld1vwtaxyBcPvDc1+lKBi0SkqeXmjBUfou6+RCjjdX10ix0mpO7U2Idt2My5r3nt3N1hlxNk3kfjF8FXGTSniyMU/k4Mc1XpS3nVrpcIJfPq9S4i55PulnDXptvuZMP5MhOBwuxWKi7CYHufSrCKRNcDsqD6C9Bt+sjFNwrtw3RgBHZ3Ewnbw8gcsp46+C55pJ7a9GSUespuYoZ2+HcoEk+gtrFzcNXu38+EDhJHmfLjNmLutoBXlINq4zcTukjsbeUGhsQSW69lvoajYHfyI9mO5P0GJAOOaeUJlq3j5znko/TAowvZ13Q7tJEb4RedBogtkLmXVl8oF2ZjF3dvM9+lEg0KU+mVLMzREOjKPueELZgX2GC+6KW/ih7aqScxmY2RJNr5yRrJ4hlukbjPQ7t6wunZTposopqtUpNhTbzmueDZ61o6aEy2kz7MZaOzSXk9dJJ55x8nLWFTquBary9znrE7Uy71dPDVuBxF+TboF3EKqWNjUvoO9BVLkgmlZ/fuhc1mU9RN+oUoV3nEk9gQSZJJhqh5mvUCzlJD79bvzDBUkgCtu+LGmu7SlbTjpOQ8oAIC9ddwps85VHEgkLhAXUdsJ0k7uArarGeONObpM1J5NE8rlM6e1QWjFqD1eKVfgvQ3J3xZ51NQYG1l6IuSYSOlkEFHKsYstkzUzG37rs/TLmoNVut00ZP47QgJrO0MftY9jDL1+C7A12A9nTXD8OVz3Bq9TxrCN1QXCPn6BvehnAmGOdaVC0lqNXGBdDoJhoa/6Nomv67IPIUC9VQB4FCnVjLxN8g/h/2mz9gWjSQf+G0VEohaMszkbtokLfQDKAWOQcHdJc9MaXgen2mj5vG5qxEI8yq/if3O76YN8WpgxKNn1Qy/O33g7lBTIVDaCpSn3uG9RHmBZxPQoPXCZQ2cyL1wop4jEKr8SnSSy+dPlAt0oWvUOEMZRzn9VEogg+gJvkWfYJ+tvpIRCJHhDwvTBIt0dVdpgQxgYdi0FqK9aDxILCmQQWNh3rIWI1z791qlAtt+Esa2B/76eeaWHFo9+Gs5FznfuHe1FhoAvcrsTmFeT37s7UKRmPfr9T/8k+aNQqoYH3q9ZaGOFi57vcNzrQsWi8VisVgsFovFYrFYLBaLxWKxWCyWLP8Bd0OMHy9KQeAAAAAASUVORK5CYII=;" vertex="1" parent="1">
          <mxGeometry x="290" y="155.59" width="120" height="120" as="geometry" />
        </mxCell>
        <mxCell id="bwCUnxS7NbJIKGIXhCUE-27" value="Push code to Github&lt;div&gt;Pull code from Github&lt;/div&gt;" style="text;html=1;align=center;verticalAlign=middle;whiteSpace=wrap;rounded=0;" vertex="1" parent="1">
          <mxGeometry x="180" y="155.59" width="143.5" height="49.91" as="geometry" />
        </mxCell>
        <mxCell id="bwCUnxS7NbJIKGIXhCUE-30" value="Track work being done" style="text;html=1;align=center;verticalAlign=middle;whiteSpace=wrap;rounded=0;" vertex="1" parent="1">
          <mxGeometry x="413.5" y="170" width="143.5" height="49.91" as="geometry" />
        </mxCell>
        <mxCell id="bwCUnxS7NbJIKGIXhCUE-31" value="Get changes through a webhook&amp;nbsp;" style="text;html=1;align=center;verticalAlign=middle;whiteSpace=wrap;rounded=0;" vertex="1" parent="1">
          <mxGeometry x="380" y="274.66" width="113.5" height="45.34" as="geometry" />
        </mxCell>
      </root>
    </mxGraphModel>
  </diagram>
</mxfile>
